<?xml version="1.0" encoding="utf-8"?>
<!-- Generator: Adobe Illustrator 23.0.2, SVG Export Plug-In . SVG Version: 6.00 Build 0)  -->
<svg version="1.1" id="Layer_1" xmlns="http://www.w3.org/2000/svg" xmlns:xlink="http://www.w3.org/1999/xlink" x="0px" y="0px"
	 viewBox="0 0 100 40" style="enable-background:new 0 0 100 40;" xml:space="preserve">
<style type="text/css">
	.st0{fill:#FFFFFF;}
</style>
<g>
	<g>
		<path class="st0" d="M6.1,23.2c0.7,0,1.2,0.2,1.5,0.5C7.9,24,8.1,24.4,8.1,25l0,0.5c0,0.6-0.2,1.1-0.6,1.4
			c0.5,0.3,0.7,0.8,0.7,1.4l0,0.6c0,0.3,0,0.6-0.1,0.8c-0.1,0.2-0.2,0.4-0.3,0.6c-0.1,0.2-0.3,0.3-0.6,0.4C7,31,6.7,31,6.3,31l-6,0
			C0.1,31,0,30.9,0,30.7l0-7.1c0-0.2,0.1-0.3,0.3-0.3L6.1,23.2z M1.6,26.5l4.2,0c0.3,0,0.6-0.1,0.7-0.2c0.1-0.1,0.2-0.3,0.2-0.5
			l0-0.4c0-0.2-0.1-0.4-0.2-0.5c-0.1-0.1-0.3-0.2-0.6-0.2l-4.1,0c-0.1,0-0.1,0-0.1,0.1L1.6,26.5z M1.6,27.7l0,1.7
			c0,0.1,0,0.1,0.1,0.1l4.2,0c0.3,0,0.5-0.1,0.6-0.2c0.1-0.1,0.2-0.3,0.2-0.5l0-0.4c0-0.2-0.1-0.4-0.2-0.5c-0.1-0.1-0.4-0.2-0.7-0.2
			L1.6,27.7z"/>
		<path class="st0" d="M11,23.2c0.1,0,0.2,0.1,0.2,0.2l0,4.5c0,0.3,0,0.5,0.1,0.7c0,0.2,0.1,0.4,0.2,0.5c0.1,0.1,0.2,0.2,0.4,0.2
			c0.2,0,0.4,0.1,0.7,0.1l2.8,0c0.3,0,0.5,0,0.7-0.1c0.2,0,0.3-0.1,0.4-0.2c0.1-0.1,0.2-0.3,0.2-0.5c0-0.2,0.1-0.4,0.1-0.7l0-4.5
			c0-0.2,0.1-0.2,0.2-0.2l1.1,0c0.1,0,0.2,0.1,0.2,0.2l0,4.6c0,0.5,0,1-0.1,1.4c-0.1,0.4-0.3,0.7-0.5,0.9c-0.2,0.2-0.5,0.4-0.9,0.5
			C16.4,30.9,16,31,15.5,31l-2.9,0c-0.5,0-1-0.1-1.3-0.2c-0.4-0.1-0.7-0.3-0.9-0.5c-0.2-0.2-0.4-0.5-0.5-0.9
			c-0.1-0.4-0.2-0.8-0.2-1.4l0-4.6c0-0.2,0.1-0.2,0.2-0.2L11,23.2z"/>
		<path class="st0" d="M27.1,23.2c0.1,0,0.2,0.1,0.2,0.2l0,1.1c0,0.2-0.1,0.2-0.2,0.2l-5.1,0c-0.2,0-0.3,0.1-0.4,0.2
			c-0.1,0.1-0.1,0.3-0.1,0.5l0,0.4c0,0.4,0.2,0.6,0.5,0.6l3.8,0c0.6,0,1,0.2,1.3,0.5c0.3,0.3,0.4,0.8,0.4,1.4l0,0.9
			c0,0.5-0.1,1-0.4,1.3c-0.3,0.3-0.7,0.5-1.4,0.5l-5.6,0c-0.2,0-0.2-0.1-0.2-0.2l0-1.1c0-0.2,0.1-0.2,0.2-0.2l5.3,0
			c0.2,0,0.3-0.1,0.4-0.2C26,29.1,26,29,26,28.8l0-0.5c0-0.4-0.2-0.6-0.5-0.6l-3.8,0c-0.6,0-1-0.2-1.3-0.5c-0.3-0.3-0.4-0.8-0.4-1.4
			l0-0.8c0-0.5,0.1-1,0.4-1.3c0.3-0.3,0.7-0.5,1.4-0.5L27.1,23.2z"/>
		<path class="st0" d="M30.5,23.2c0.1,0,0.2,0.1,0.2,0.2l0,7.3c0,0.2-0.1,0.2-0.2,0.2l-1.1,0c-0.2,0-0.2-0.1-0.2-0.2l0-7.3
			c0-0.2,0.1-0.2,0.2-0.2L30.5,23.2z"/>
		<path class="st0" d="M34.3,23.1c0.2,0,0.3,0,0.4,0c0.1,0,0.2,0,0.3,0.1c0.1,0,0.2,0.1,0.2,0.2c0.1,0.1,0.2,0.2,0.3,0.3l3.8,5.4
			c0,0.1,0.1,0.1,0.1,0.1h0.1c0.1,0,0.1,0,0.1-0.1l0-5.8c0-0.2,0.1-0.2,0.2-0.2l1.1,0c0.1,0,0.2,0.1,0.2,0.2l0,6.4
			c0,0.5-0.1,0.8-0.2,0.9c-0.1,0.2-0.4,0.2-0.7,0.2l-0.9,0c-0.2,0-0.3,0-0.4,0c-0.1,0-0.2,0-0.3-0.1c-0.1,0-0.2-0.1-0.2-0.2
			c-0.1-0.1-0.2-0.2-0.3-0.4l-3.8-5.4c0-0.1-0.1-0.1-0.1-0.1h-0.1c-0.1,0-0.1,0-0.1,0.1l0,5.8c0,0.2-0.1,0.2-0.2,0.2l-1.1,0
			c-0.2,0-0.2-0.1-0.2-0.2l0-6.4c0-0.5,0.1-0.8,0.2-0.9c0.1-0.2,0.4-0.2,0.7-0.2L34.3,23.1z"/>
		<path class="st0" d="M50,23.1c0.2,0,0.2,0.1,0.2,0.2l0,1.1c0,0.2-0.1,0.2-0.2,0.2l-4.4,0c-0.3,0-0.5,0-0.7,0.1
			c-0.2,0-0.3,0.1-0.4,0.2c-0.1,0.1-0.2,0.3-0.2,0.5c0,0.2-0.1,0.4-0.1,0.7v0.1l5.7,0c0.1,0,0.2,0.1,0.2,0.2l0,0.9
			c0,0.2-0.1,0.2-0.2,0.2l-5.7,0v0.2c0,0.3,0,0.5,0.1,0.7c0,0.2,0.1,0.4,0.2,0.5c0.1,0.1,0.2,0.2,0.4,0.2c0.2,0,0.4,0.1,0.7,0.1
			l4.4,0c0.2,0,0.2,0.1,0.2,0.2l0,1.1c0,0.2-0.1,0.2-0.2,0.2l-4.5,0c-0.5,0-1,0-1.3-0.2c-0.4-0.1-0.7-0.3-0.9-0.5
			c-0.2-0.2-0.4-0.5-0.5-0.9c-0.1-0.4-0.2-0.8-0.2-1.4l0-1.9c0-0.5,0-1,0.2-1.4c0.1-0.4,0.3-0.7,0.5-0.9c0.2-0.2,0.5-0.4,0.9-0.5
			c0.4-0.1,0.8-0.2,1.3-0.2L50,23.1z"/>
		<path class="st0" d="M58.9,23.1c0.1,0,0.2,0.1,0.2,0.2l0,1.1c0,0.2-0.1,0.2-0.2,0.2l-5.1,0c-0.2,0-0.3,0.1-0.4,0.2
			c-0.1,0.1-0.1,0.3-0.1,0.5l0,0.4c0,0.4,0.2,0.6,0.5,0.6l3.8,0c0.6,0,1,0.2,1.3,0.5c0.3,0.3,0.4,0.8,0.4,1.4l0,0.9
			c0,0.5-0.1,1-0.4,1.3c-0.3,0.3-0.7,0.5-1.4,0.5l-5.6,0c-0.2,0-0.2-0.1-0.2-0.2l0-1.1c0-0.2,0.1-0.2,0.2-0.2l5.3,0
			c0.2,0,0.3-0.1,0.4-0.2c0.1-0.1,0.1-0.3,0.1-0.5l0-0.5c0-0.4-0.2-0.6-0.5-0.6l-3.8,0c-0.6,0-1-0.2-1.3-0.5
			c-0.3-0.3-0.4-0.8-0.4-1.4l0-0.8c0-0.5,0.1-1,0.4-1.3c0.3-0.3,0.7-0.5,1.4-0.5L58.9,23.1z"/>
		<path class="st0" d="M67.9,23.1c0.1,0,0.2,0.1,0.2,0.2l0,1.1c0,0.2-0.1,0.2-0.2,0.2l-5.1,0c-0.2,0-0.3,0.1-0.4,0.2
			c-0.1,0.1-0.1,0.3-0.1,0.5l0,0.4c0,0.4,0.2,0.6,0.5,0.6l3.8,0c0.6,0,1,0.2,1.3,0.5c0.3,0.3,0.4,0.8,0.4,1.4l0,0.9
			c0,0.5-0.1,1-0.4,1.3c-0.3,0.3-0.7,0.5-1.4,0.5l-5.6,0c-0.2,0-0.2-0.1-0.2-0.2l0-1.1c0-0.2,0.1-0.2,0.2-0.2l5.3,0
			c0.2,0,0.3-0.1,0.4-0.2c0.1-0.1,0.1-0.3,0.1-0.5l0-0.5c0-0.4-0.2-0.6-0.5-0.6l-3.8,0c-0.6,0-1-0.2-1.3-0.5
			c-0.3-0.3-0.4-0.8-0.4-1.4l0-0.8c0-0.5,0.1-1,0.4-1.3c0.3-0.3,0.7-0.5,1.4-0.5L67.9,23.1z"/>
	</g>
	<g>
		<path class="st0" d="M71.3,23.2c0.1,0,0.2,0.1,0.2,0.2l0,4.5c0,0.3,0,0.5,0.1,0.7c0,0.2,0.1,0.4,0.2,0.5c0.1,0.1,0.2,0.2,0.4,0.2
			c0.2,0,0.4,0.1,0.7,0.1l4.1,0c0.1,0,0.2,0.1,0.2,0.2l0,1.1c0,0.2-0.1,0.2-0.2,0.2l-4.2,0c-0.5,0-1-0.1-1.3-0.2
			c-0.4-0.1-0.7-0.3-0.9-0.5c-0.2-0.2-0.4-0.5-0.5-0.9C70,29,70,28.6,70,28l0-4.6c0-0.2,0.1-0.2,0.2-0.2L71.3,23.2z"/>
		<path class="st0" d="M79.8,23.2c0.1,0,0.2,0.1,0.2,0.2l0,7.3c0,0.2-0.1,0.2-0.2,0.2l-1.1,0c-0.2,0-0.2-0.1-0.2-0.2l0-7.3
			c0-0.2,0.1-0.2,0.2-0.2L79.8,23.2z"/>
		<path class="st0" d="M83.6,23.2c0.2,0,0.3,0,0.4,0c0.1,0,0.2,0,0.3,0.1c0.1,0,0.2,0.1,0.2,0.2c0.1,0.1,0.2,0.2,0.3,0.3l3.8,5.4
			c0,0.1,0.1,0.1,0.1,0.1h0.1c0.1,0,0.1,0,0.1-0.1l0-5.8c0-0.2,0.1-0.2,0.2-0.2l1.1,0c0.1,0,0.2,0.1,0.2,0.2l0,6.4
			c0,0.5-0.1,0.8-0.2,0.9C90,30.9,89.8,31,89.5,31l-0.9,0c-0.2,0-0.3,0-0.4,0c-0.1,0-0.2,0-0.3-0.1c-0.1,0-0.2-0.1-0.2-0.2
			c-0.1-0.1-0.2-0.2-0.3-0.4l-3.8-5.4c0-0.1-0.1-0.1-0.1-0.1h-0.1c-0.1,0-0.1,0-0.1,0.1l0,5.8c0,0.2-0.1,0.2-0.2,0.2l-1.1,0
			c-0.2,0-0.2-0.1-0.2-0.2l0-6.4c0-0.5,0.1-0.8,0.2-0.9c0.1-0.2,0.4-0.2,0.7-0.2L83.6,23.2z"/>
		<path class="st0" d="M93.5,23.1c0.1,0,0.2,0.1,0.2,0.2l0,3l1.4,0c0.2,0,0.3,0,0.4,0c0.1,0,0.2,0,0.3-0.1c0.1,0,0.2-0.1,0.2-0.2
			c0.1-0.1,0.1-0.2,0.2-0.3l1.7-2.6c0-0.1,0.1-0.1,0.1-0.1c0,0,0.1,0,0.2,0l1.3,0c0.1,0,0.1,0,0.2,0.1c0,0.1,0,0.1,0,0.2l-2,2.8
			c-0.1,0.2-0.2,0.3-0.3,0.4c-0.1,0.1-0.2,0.2-0.3,0.3c0.3,0.2,0.5,0.4,0.8,0.8l2.1,2.9c0,0,0,0.1,0,0.2c0,0.1-0.1,0.1-0.2,0.1
			l-1.3,0c-0.1,0-0.1,0-0.2,0c0,0-0.1-0.1-0.1-0.1l-1.9-2.7c-0.1-0.2-0.3-0.3-0.4-0.4c-0.2-0.1-0.4-0.1-0.7-0.1l-1.5,0l0,3.1
			c0,0.2-0.1,0.2-0.2,0.2l-1.1,0c-0.2,0-0.2-0.1-0.2-0.2l0-7.3c0-0.2,0.1-0.2,0.2-0.2L93.5,23.1z"/>
	</g>
	<g>
		<path class="st0" d="M73.4,34c0.5,0,0.8,0.1,1,0.3c0.2,0.2,0.3,0.6,0.3,1v0.5c0,0.5-0.1,0.8-0.3,1c-0.2,0.2-0.5,0.3-1,0.3h-2.5
			v1.3c0,0.1,0,0.1-0.1,0.1h-0.7c-0.1,0-0.1,0-0.1-0.1v-4.3c0-0.1,0.1-0.2,0.2-0.2H73.4z M70.9,36.4h2.3c0.2,0,0.4,0,0.4-0.1
			c0.1-0.1,0.1-0.2,0.1-0.4v-0.3c0-0.2,0-0.3-0.1-0.4c-0.1-0.1-0.2-0.1-0.4-0.1H71c-0.1,0-0.1,0-0.1,0.1V36.4z"/>
		<path class="st0" d="M77.6,34c0.2,0,0.3,0,0.4,0.1c0.1,0.1,0.2,0.2,0.3,0.4l2,4c0,0,0,0.1,0,0.1c0,0,0,0-0.1,0h-0.8
			c-0.1,0-0.1,0-0.1-0.1l-0.4-0.9h-2.8l-0.4,0.9c0,0.1-0.1,0.1-0.1,0.1h-0.8c-0.1,0-0.1,0-0.1,0c0,0,0-0.1,0-0.1l2-4
			c0.1-0.2,0.2-0.3,0.3-0.4C77,34,77.1,34,77.3,34H77.6z M76.4,36.9h2.1l-1-2c0,0,0,0-0.1,0h0c0,0-0.1,0-0.1,0L76.4,36.9z"/>
		<path class="st0" d="M85.2,34c0.1,0,0.1,0,0.1,0.1v0.7c0,0.1,0,0.2-0.1,0.2h-2.7c-0.2,0-0.3,0-0.4,0c-0.1,0-0.2,0.1-0.2,0.1
			c-0.1,0.1-0.1,0.2-0.1,0.3c0,0.1,0,0.3,0,0.4v0.9c0,0.2,0,0.3,0,0.4c0,0.1,0.1,0.2,0.1,0.3c0.1,0.1,0.1,0.1,0.2,0.1
			c0.1,0,0.2,0,0.4,0h2.7c0.1,0,0.1,0,0.1,0.1v0.7c0,0.1,0,0.1-0.1,0.1h-2.7c-0.3,0-0.6,0-0.8-0.1c-0.2-0.1-0.4-0.2-0.5-0.3
			c-0.1-0.1-0.2-0.3-0.3-0.5c-0.1-0.2-0.1-0.5-0.1-0.8v-1.1c0-0.3,0-0.6,0.1-0.8c0.1-0.2,0.2-0.4,0.3-0.5c0.1-0.1,0.3-0.2,0.5-0.3
			c0.2-0.1,0.5-0.1,0.8-0.1H85.2z"/>
		<path class="st0" d="M87,34c0.1,0,0.1,0,0.1,0.1v4.4c0,0.1,0,0.1-0.1,0.1h-0.7c-0.1,0-0.1,0-0.1-0.1v-4.4c0-0.1,0-0.1,0.1-0.1H87z
			"/>
		<path class="st0" d="M92.5,34c0.1,0,0.1,0,0.1,0.1v0.6c0,0.1,0,0.1-0.1,0.1h-2.6c-0.2,0-0.3,0-0.4,0c-0.1,0-0.2,0.1-0.2,0.1
			c-0.1,0.1-0.1,0.2-0.1,0.3c0,0.1,0,0.3,0,0.4V36h3.4c0.1,0,0.1,0,0.1,0.1v0.5c0,0.1,0,0.1-0.1,0.1h-3.4v1.7c0,0.1,0,0.1-0.1,0.1
			h-0.7c-0.1,0-0.1,0-0.1-0.1v-2.8c0-0.3,0-0.6,0.1-0.8c0.1-0.2,0.2-0.4,0.3-0.5c0.1-0.1,0.3-0.2,0.5-0.3c0.2-0.1,0.5-0.1,0.8-0.1
			H92.5z"/>
		<path class="st0" d="M94.3,34c0.1,0,0.1,0,0.1,0.1v4.4c0,0.1,0,0.1-0.1,0.1h-0.7c-0.1,0-0.1,0-0.1-0.1v-4.4c0-0.1,0-0.1,0.1-0.1
			H94.3z"/>
		<path class="st0" d="M99.9,34c0.1,0,0.1,0,0.1,0.1v0.7c0,0.1,0,0.2-0.1,0.2h-2.7c-0.2,0-0.3,0-0.4,0c-0.1,0-0.2,0.1-0.2,0.1
			c-0.1,0.1-0.1,0.2-0.1,0.3c0,0.1,0,0.3,0,0.4v0.9c0,0.2,0,0.3,0,0.4c0,0.1,0.1,0.2,0.1,0.3c0.1,0.1,0.1,0.1,0.2,0.1
			c0.1,0,0.2,0,0.4,0h2.7c0.1,0,0.1,0,0.1,0.1v0.7c0,0.1,0,0.1-0.1,0.1h-2.7c-0.3,0-0.6,0-0.8-0.1c-0.2-0.1-0.4-0.2-0.5-0.3
			c-0.1-0.1-0.2-0.3-0.3-0.5c-0.1-0.2-0.1-0.5-0.1-0.8v-1.1c0-0.3,0-0.6,0.1-0.8c0.1-0.2,0.2-0.4,0.3-0.5c0.1-0.1,0.3-0.2,0.5-0.3
			c0.2-0.1,0.5-0.1,0.8-0.1H99.9z"/>
	</g>
	<path class="st0" d="M64.6,8.5c0,0,0-0.1,0-0.1c0-0.3,0-0.6-0.1-0.9c0,0,0,0,0,0c0-0.3-0.1-0.6-0.2-0.9c0,0,0,0,0,0
		c0-0.1-0.1-0.3-0.1-0.4c-0.5-1.6-1.6-3-3-3.8c0,0,0,0,0,0c-0.1-0.1-0.2-0.1-0.3-0.2c0,0,0,0-0.1,0c-0.1,0-0.2-0.1-0.2-0.1
		c0,0-0.1,0-0.1,0c-0.1,0-0.1-0.1-0.2-0.1c0,0-0.1,0-0.1-0.1c-0.1,0-0.1,0-0.2-0.1c-0.1,0-0.1,0-0.2-0.1c-0.1,0-0.1,0-0.2-0.1
		c-0.1,0-0.1,0-0.2-0.1c0,0-0.1,0-0.1,0c-0.1,0-0.2,0-0.2-0.1c0,0-0.1,0-0.1,0c-0.1,0-0.2,0-0.2,0c0,0-0.1,0-0.1,0
		c-0.1,0-0.2,0-0.3,0c0,0-0.1,0-0.1,0c-0.1,0-0.2,0-0.3,0c0,0-0.1,0-0.1,0c-0.1,0-0.2,0-0.2,0c0,0-0.1,0-0.1,0c-0.1,0-0.1,0-0.2,0
		c-0.1,0-0.1,0-0.2,0c-0.1,0-0.1,0-0.2,0c-0.1,0-0.2,0-0.2,0c0,0-0.1,0-0.1,0c-0.1,0-0.2,0-0.3,0c0,0,0,0,0,0
		c-0.5,0.1-1,0.2-1.6,0.4c-2.7,0.9-4.8,4-6.7,6.7c-1.3,1.8-2.8,3.5-4.1,3.9c-0.8,0.3-1.6,0.4-2.3,0.3c-1.5-0.3-2.6-1.3-3.1-2.8
		c0-0.1-0.1-0.3-0.1-0.4c0,0,0,0,0,0c0-0.1,0-0.2-0.1-0.3c0,0,0-0.1,0-0.1c0-0.1,0-0.2,0-0.2c0-0.1,0-0.1,0-0.2c0-0.1,0-0.1,0-0.2
		c0-0.1,0-0.1,0-0.2c0-0.1,0-0.1,0-0.2c0,0,0-0.1,0-0.1c0-0.1,0-0.1,0-0.2c0,0,0-0.1,0-0.1c0-0.1,0-0.2,0.1-0.2c0,0,0,0,0-0.1
		c0-0.1,0.1-0.2,0.1-0.3c0,0,0,0,0,0c0.3-0.7,0.7-1.3,1.4-1.9c0,0,0,0,0,0C39.9,5.1,40,5.1,40,5c0,0,0.1,0,0.1-0.1
		c0,0,0.1-0.1,0.1-0.1c0.1,0,0.1-0.1,0.2-0.1c0,0,0,0,0,0c0.3-0.2,0.7-0.3,1.1-0.5c1.1-0.4,2.6-0.1,4.2,0.2c-0.8,0.9-1.5,2-2.1,2.7
		c0,0.1-0.1,0.1-0.1,0.1c0,0,0,0.1-0.1,0.1c0-1.1-0.9-2-2.1-2c-1.1,0-2.1,0.9-2.1,2.1c0,0,0,0,0,0c0,0,0,0,0,0c0,0.5,0.2,1,0.5,1.3
		l0,0c0,0,0,0,0,0c0.2,0.2,0.5,0.4,0.7,0.5c0.5,0.3,1,0.4,1.5,0.4c0,0,0,0,0,0c0.1,0,0.2,0,0.3,0c0,0,0.1,0,0.1,0c0,0,0.1,0,0.1,0
		c0.2,0,0.3,0,0.5-0.1c0,0,0,0,0,0c0.1,0,0.1,0,0.2-0.1c0,0,0,0,0,0c0.1,0,0.1,0,0.2-0.1c0,0,0,0,0,0c0.1,0,0.1,0,0.2-0.1
		c0,0,0,0,0,0c0.1,0,0.1-0.1,0.2-0.1c0,0,0,0,0,0c0.3-0.2,0.7-0.3,1-0.5c0,0,0,0,0,0c0,0,0.1-0.1,0.1-0.1c0,0,0,0,0.1,0
		c0,0,0.1-0.1,0.1-0.1c0,0,0.1,0,0.1-0.1c0,0,0.1-0.1,0.1-0.1c0,0,0.1,0,0.1-0.1c0,0,0.1-0.1,0.1-0.1c0,0,0.1,0,0.1-0.1
		c0,0,0.1-0.1,0.1-0.1c0,0,0.1-0.1,0.1-0.1c0,0,0.1-0.1,0.1-0.1c0,0,0.1-0.1,0.1-0.1c0,0,0.1-0.1,0.1-0.1c0,0,0.1-0.1,0.1-0.1
		c0,0,0.1-0.1,0.1-0.1c0,0,0.1-0.1,0.1-0.1c0,0,0.1-0.1,0.1-0.1c0,0,0-0.1,0.1-0.1c0,0,0.1-0.1,0.1-0.1C48.7,5.1,50.6,3,50.6,3h0
		l0,0c0,0,0,0,0,0c0,0,0,0,0,0s0,0-0.1,0c0,0,0,0,0,0s0,0,0,0c0,0,0,0,0,0h0l0,0c0,0-0.1,0-0.3-0.1c-3.3-1-6.9-2.1-9.5-1.2
		c-0.6,0.2-1.1,0.4-1.6,0.7c-0.1,0-0.1,0.1-0.2,0.1c-0.1,0-0.2,0.1-0.2,0.1c-0.1,0.1-0.2,0.1-0.3,0.2c0,0,0,0-0.1,0
		c-1.9,1.4-2.9,3.4-2.9,5.5c0,0,0,0,0,0c0,0,0,0,0,0c0,0,0,0,0,0v0c0,0,0,0,0,0c0,0,0,0,0,0v0c0,0,0,0.1,0,0.1c0,0.3,0,0.6,0.1,0.9
		c0,0,0,0,0,0c0,0.3,0.1,0.6,0.2,0.9c0,0,0,0,0,0c0,0.1,0.1,0.3,0.1,0.4c0.5,1.6,1.6,3,3,3.8c0,0,0,0,0,0c0.1,0.1,0.2,0.1,0.3,0.1
		c0,0,0,0,0.1,0c0.1,0,0.2,0.1,0.2,0.1c0,0,0.1,0,0.1,0c0.1,0,0.1,0.1,0.2,0.1c0,0,0.1,0,0.1,0.1c0.1,0,0.1,0,0.2,0.1
		c0.1,0,0.1,0,0.2,0.1c0,0,0.1,0,0.1,0c0.1,0,0.1,0,0.2,0.1c0,0,0.1,0,0.1,0c0.1,0,0.2,0,0.2,0.1c0,0,0.1,0,0.1,0c0.1,0,0.2,0,0.3,0
		c0,0,0.1,0,0.1,0c0.1,0,0.2,0,0.3,0c0,0,0.1,0,0.1,0c0.1,0,0.2,0,0.3,0c0,0,0.1,0,0.1,0c0.1,0,0.2,0,0.2,0c0,0,0.1,0,0.1,0
		c0.1,0,0.1,0,0.2,0c0.1,0,0.1,0,0.2,0c0.1,0,0.1,0,0.2,0c0.1,0,0.2,0,0.2,0c0,0,0.1,0,0.1,0c0.1,0,0.2,0,0.3,0c0,0,0,0,0,0
		c0.5-0.1,1-0.2,1.6-0.4c2.7-0.9,4.8-4,6.7-6.7c1.3-1.8,2.8-3.5,4.1-3.9c0.8-0.3,1.6-0.3,2.4-0.3c1.5,0.3,2.6,1.2,3.1,2.8
		c0,0.1,0.1,0.3,0.1,0.4c0,0,0,0,0,0c0,0.1,0,0.2,0.1,0.3c0,0,0,0.1,0,0.1c0,0.1,0,0.2,0,0.3c0,0.1,0,0.1,0,0.2c0,0.1,0,0.1,0,0.2
		c0,0.1,0,0.1,0,0.2c0,0.1,0,0.1,0,0.2c0,0,0,0.1,0,0.1c0,0.1,0,0.2,0,0.2c0,0,0,0.1,0,0.1c0,0.1,0,0.2-0.1,0.3c0,0,0,0,0,0.1
		c0,0.1-0.1,0.2-0.1,0.3c0,0,0,0,0,0c-0.3,0.7-0.8,1.4-1.4,1.9c0,0,0,0,0,0C60.1,11.9,60,11.9,60,12c0,0-0.1,0-0.1,0.1
		c0,0-0.1,0.1-0.1,0.1c-0.1,0-0.1,0.1-0.2,0.1c0,0,0,0,0,0c-0.3,0.2-0.7,0.3-1.1,0.5c-1.1,0.4-2.6,0.1-4.2-0.2
		c0.8-0.9,1.5-2,2.1-2.7c0-0.1,0.1-0.1,0.1-0.1c0,0,0-0.1,0.1-0.1c0,1.1,0.9,2,2.1,2c1.1,0,2.1-0.9,2.1-2.1c0,0,0,0,0,0c0,0,0,0,0,0
		c0-0.5-0.2-1-0.5-1.3l0,0c0,0,0,0,0,0c-0.2-0.2-0.5-0.4-0.7-0.5c-0.5-0.3-1-0.4-1.5-0.4c0,0,0,0,0,0c-0.1,0-0.2,0-0.3,0
		c0,0-0.1,0-0.1,0c0,0-0.1,0-0.1,0c-0.2,0-0.3,0-0.5,0.1c0,0,0,0,0,0c-0.1,0-0.1,0-0.2,0.1c0,0,0,0,0,0c-0.1,0-0.1,0-0.2,0.1
		c0,0,0,0,0,0c-0.1,0-0.1,0-0.2,0.1c0,0,0,0,0,0c-0.1,0-0.1,0.1-0.2,0.1c0,0,0,0,0,0c-0.3,0.2-0.7,0.3-1,0.5c0,0,0,0,0,0
		c0,0-0.1,0.1-0.1,0.1c0,0,0,0-0.1,0c0,0-0.1,0.1-0.1,0.1c0,0-0.1,0-0.1,0.1c0,0-0.1,0.1-0.1,0.1c0,0-0.1,0-0.1,0.1
		c0,0-0.1,0.1-0.1,0.1c0,0-0.1,0-0.1,0.1c0,0-0.1,0.1-0.1,0.1c0,0-0.1,0.1-0.1,0.1c0,0-0.1,0.1-0.1,0.1c0,0-0.1,0.1-0.1,0.1
		c0,0-0.1,0.1-0.1,0.1c0,0-0.1,0.1-0.1,0.1c0,0-0.1,0.1-0.1,0.1c0,0-0.1,0.1-0.1,0.1c0,0-0.1,0.1-0.1,0.1c0,0,0,0.1-0.1,0.1
		c0,0-0.1,0.1-0.1,0.1c-1.6,2.1-3.6,4.1-3.6,4.1l0,0l0,0c0,0,0,0,0,0c0,0,0,0,0,0s0,0,0.1,0c0,0,0,0,0,0s0,0,0,0c0,0,0,0,0,0l0,0
		l0,0c0,0,0.1,0,0.3,0.1c3.3,1,6.9,2.1,9.5,1.2c0.4-0.1,0.8-0.3,1.2-0.5c0,0,0,0,0,0c0.1-0.1,0.3-0.1,0.4-0.2c0.1,0,0.1-0.1,0.2-0.1
		c0.1,0,0.1-0.1,0.2-0.1c0.1-0.1,0.2-0.1,0.3-0.2c0,0,0,0,0.1,0C63.5,12.7,64.5,10.8,64.6,8.5C64.6,8.6,64.6,8.6,64.6,8.5
		C64.6,8.6,64.6,8.6,64.6,8.5C64.6,8.6,64.6,8.6,64.6,8.5L64.6,8.5C64.6,8.6,64.6,8.6,64.6,8.5C64.6,8.6,64.6,8.6,64.6,8.5L64.6,8.5
		z"/>
</g>
</svg>
