<?xml version="1.0" encoding="utf-8"?>
<!-- Generator: Adobe Illustrator 23.0.2, SVG Export Plug-In . SVG Version: 6.00 Build 0)  -->
<svg version="1.1" id="Layer_1" xmlns="http://www.w3.org/2000/svg" xmlns:xlink="http://www.w3.org/1999/xlink" x="0px" y="0px"
	 viewBox="0 0 400 250" style="enable-background:new 0 0 400 250;" xml:space="preserve">
<style type="text/css">
	.st0{fill:#3D2C56;}
	.st1{fill:#5A713B;}
	.st2{fill:#66873B;}
</style>
<rect x="20.4" y="187.2" transform="matrix(0.7071 -0.7071 0.7071 0.7071 -123.5891 77.1098)" class="st0" width="21.7" height="1"/>
<rect x="259.9" y="16.4" transform="matrix(0.7071 -0.7071 0.7071 0.7071 70.8518 204.8327)" class="st0" width="45.6" height="1"/>
<path class="st1" d="M67.4,109.1c-13.2,0-24-10.8-24-24s10.8-24,24-24s24,10.8,24,24S80.6,109.1,67.4,109.1z M67.4,63
	C55.2,63,45.3,72.9,45.3,85s9.9,22.1,22.1,22.1S89.4,97.2,89.4,85S79.5,63,67.4,63z"/>
<path class="st1" d="M298.8,249.6c-11.1,0-20.2-9.1-20.2-20.2c0-11.1,9.1-20.2,20.2-20.2c11.1,0,20.2,9.1,20.2,20.2
	C319,240.5,309.9,249.6,298.8,249.6z M298.8,211.2c-10,0-18.2,8.2-18.2,18.2s8.2,18.2,18.2,18.2c10,0,18.2-8.2,18.2-18.2
	S308.8,211.2,298.8,211.2z"/>
<path class="st1" d="M90.4,241.4c-9,0-16.2-7.3-16.2-16.2S81.4,209,90.4,209s16.2,7.3,16.2,16.2S99.3,241.4,90.4,241.4z M90.4,209.9
	c-8.4,0-15.2,6.8-15.2,15.2c0,8.4,6.8,15.2,15.2,15.2c8.4,0,15.2-6.8,15.2-15.2C105.6,216.8,98.8,209.9,90.4,209.9z"/>
<path class="st1" d="M388.1,162.4c-6.5,0-11.9-5.3-11.9-11.9c0-6.5,5.3-11.9,11.9-11.9S400,144,400,150.5
	C400,157.1,394.7,162.4,388.1,162.4z M388.1,139.6c-6,0-10.9,4.9-10.9,10.9c0,6,4.9,10.9,10.9,10.9s10.9-4.9,10.9-10.9
	C399,144.5,394.1,139.6,388.1,139.6z"/>
<path class="st1" d="M329.7,108.6c-3.9,0-7-3.1-7-7c0-3.9,3.1-7,7-7s7,3.1,7,7C336.7,105.4,333.6,108.6,329.7,108.6z M329.7,95.5
	c-3.3,0-6,2.7-6,6s2.7,6,6,6s6-2.7,6-6S333,95.5,329.7,95.5z"/>
<rect x="332" y="194.9" transform="matrix(0.7071 -0.7071 0.7071 0.7071 -36.6759 302.2937)" class="st0" width="29.2" height="1"/>
<path class="st2" d="M388.1,66.7c-4.1,0-7.4-3.3-7.4-7.4s3.3-7.4,7.4-7.4s7.4,3.3,7.4,7.4S392.2,66.7,388.1,66.7z M388.1,53.9
	c-3,0-5.4,2.4-5.4,5.4s2.4,5.4,5.4,5.4s5.4-2.4,5.4-5.4S391.1,53.9,388.1,53.9z"/>
<path class="st2" d="M6.4,156.9c-3.5,0-6.4-2.9-6.4-6.4s2.9-6.4,6.4-6.4s6.4,2.9,6.4,6.4S9.9,156.9,6.4,156.9z M6.4,146.1
	c-2.4,0-4.4,2-4.4,4.4s2,4.4,4.4,4.4s4.4-2,4.4-4.4S8.8,146.1,6.4,146.1z"/>
</svg>
