<?xml version="1.0" encoding="UTF-8"?>
<svg width="156px" height="36px" viewBox="0 0 156 36" version="1.1" xmlns="http://www.w3.org/2000/svg" xmlns:xlink="http://www.w3.org/1999/xlink">
    <!-- Generator: Sketch 56.2 (81672) - https://sketch.com -->
    <title>Group 23</title>
    <desc>Created with Sketch.</desc>
    <defs>
        <polygon id="path-1" points="0 36 156 36 156 0 0 0"></polygon>
    </defs>
    <g id="Symbols" stroke="none" stroke-width="1" fill="none" fill-rule="evenodd">
        <g id="Footer/desktop" transform="translate(-997.000000, -231.000000)">
            <g id="Group-23" transform="translate(997.000000, 231.000000)">
                <path d="M58.137931,18.4653341 C58.137931,14.5859406 55.9655172,12.6109766 51.5862069,12.6109766 L48.7931034,12.6109766 L48.7931034,24.2491573 L51.8965517,24.2491573 C53.8965517,24.2491573 55.4482759,23.7554163 56.5172414,22.7679343 C57.6206897,21.8157195 58.137931,20.3697637 58.137931,18.4653341 M58.5862069,12.18777 C60.1724138,13.668993 61,15.7497586 61,18.3947997 C61,21.0398408 60.2068966,23.1206064 58.6551724,24.6727165 C57.1034483,26.2241213 54.7241379,27 51.5172414,27 L46,27 L46,10.0012027 L51.7241379,10.0012027 C54.6896552,9.96593549 56.9655172,10.706547 58.5862069,12.18777" id="Fill-1" fill="#FEFEFE"></path>
                <polygon id="Fill-3" fill="#FEFEFE" points="68.8903743 12.6099585 68.8903743 27 66.0748663 27 66.0748663 12.6099585 61 12.6099585 61 10 74 10 74 12.6099585"></polygon>
                <path d="M94.2757848,18.8236473 L97,18.8236473 L97,24.4448898 C95.4529148,26.1482966 93.2668161,27 90.441704,27 C88.0538117,27 86.0358744,26.2164329 84.4215247,24.6152305 C82.8068386,23.0140281 82,21.004008 82,18.5511022 C82,16.0981964 82.8068386,14.0541082 84.455157,12.4529058 C86.103139,10.8176353 88.0874439,10 90.441704,10 C92.7623318,10 94.7130045,10.6813627 96.2597534,12.0781563 L94.8139013,14.1903808 C94.1748879,13.6452906 93.5358744,13.2705411 92.8965247,13.0661323 C92.2578475,12.8617234 91.5179372,12.759519 90.6434978,12.759519 C88.9955157,12.759519 87.6165919,13.3046092 86.5063901,14.3607214 C85.396861,15.4509018 84.8247758,16.8476954 84.8247758,18.5851703 C84.8247758,20.3226453 85.3632287,21.7194389 86.4394619,22.7755511 C87.5153587,23.8316633 88.8273543,24.3767535 90.3741031,24.3767535 C91.9215247,24.3767535 93.1995516,24.0360721 94.2418161,23.3547094 L94.2418161,18.8236473 L94.2757848,18.8236473 Z" id="Fill-5" fill="#FEFEFE"></path>
                <mask id="mask-2" fill="white">
                    <use xlink:href="#path-1"></use>
                </mask>
                <g id="Clip-8"></g>
                <polygon id="Fill-7" fill="#FEFEFE" mask="url(#mask-2)" points="101 27 104 27 104 9 101 9"></polygon>
                <path d="M109.70431,24.457672 C110.444835,25.2142857 111.388087,25.5925926 112.49938,25.5925926 C113.610673,25.5925926 114.553251,25.2142857 115.29445,24.457672 C116.035312,23.7010582 116.405406,22.7037037 116.405406,21.4656085 C116.405406,20.2619048 116.035312,19.2645503 115.29445,18.473545 C114.553251,17.7169312 113.610673,17.3386243 112.49938,17.3386243 C111.388087,17.3386243 110.444835,17.7169312 109.70431,18.473545 C108.963448,19.2301587 108.59268,20.2275132 108.59268,21.4656085 C108.626692,22.7037037 108.996787,23.7010582 109.70431,24.457672 M117.146605,26.1084656 C115.900273,27.3809524 114.351535,28 112.49938,28 C110.647225,28 109.097813,27.3809524 107.852155,26.1084656 C106.60616,24.8359788 106,23.3227513 106,21.5 C106,19.6772487 106.60616,18.1296296 107.852155,16.8915344 C109.097813,15.6190476 110.647225,15 112.49938,15 C114.351535,15 115.900273,15.6190476 117.146605,16.8915344 C118.3926,18.1640212 118.99876,19.6772487 118.99876,21.5 C119.032099,23.2883598 118.3926,24.8359788 117.146605,26.1084656" id="Fill-9" fill="#FEFEFE" mask="url(#mask-2)"></path>
                <path d="M125.635013,20.4671815 C125.635013,21.6833977 126.016347,22.6911197 126.744,23.4555985 C127.472347,24.2200772 128.373333,24.6023166 129.413333,24.6023166 C130.453333,24.6023166 131.38968,24.2200772 132.152347,23.4555985 C132.94968,22.6911197 133.330667,21.6833977 133.330667,20.4671815 C133.330667,19.2509653 132.94968,18.2432432 132.186667,17.4092664 C131.424,16.6100386 130.488347,16.1930502 129.448347,16.1930502 C128.373333,16.1930502 127.472347,16.6100386 126.744,17.4092664 C126.016347,18.2432432 125.635013,19.2509653 125.635013,20.4671815 M129.82968,13.8648649 C131.528347,13.8648649 132.984,14.4555985 134.197333,15.6370656 C135.410667,16.8185328 136,18.3822394 136,20.3629344 C136,22.3436293 135.410667,23.9420849 134.197333,25.1583012 C132.984,26.3745174 131.597333,27 130.003013,27 C128.408347,27 126.952347,26.3050193 125.66968,24.8803089 L125.66968,26.7915058 L123,26.7915058 L123,9 L125.66968,9 L125.66968,16.2625483 C126.744,14.6988417 128.130667,13.8648649 129.82968,13.8648649" id="Fill-10" fill="#FEFEFE" mask="url(#mask-2)"></path>
                <path d="M146.368098,22.1164021 L146.368098,21.0502646 L143.432515,21.0502646 C141.542945,21.0502646 140.631902,21.6349206 140.631902,22.8386243 C140.631902,23.457672 140.868098,23.9391534 141.340491,24.2486772 C141.812883,24.5582011 142.45365,24.7301587 143.297209,24.7301587 C144.140767,24.7301587 144.849693,24.4890741 145.457055,24.0079365 C146.064417,23.5608466 146.368098,22.9417989 146.368098,22.1164021 L146.368098,22.1164021 Z M148.966258,26.8280423 L146.604294,26.8280423 L146.604294,25.1428571 C145.592025,26.3806085 144.208589,27 142.48773,27 C141.205521,27 140.125767,26.6216931 139.282209,25.8994709 C138.43865,25.1428571 138,24.1798942 138,22.9074074 C138,21.6693122 138.43865,20.7407407 139.349693,20.1216931 C140.260399,19.5026455 141.47546,19.1931217 142.993865,19.1931217 L146.368098,19.1931217 L146.368098,18.7116402 C146.368098,17.026455 145.457055,16.2010582 143.634632,16.2010582 C142.48773,16.2010582 141.306748,16.6137566 140.058282,17.473545 L138.910706,15.8227513 C140.42911,14.6190476 142.116227,14 144.039877,14 C145.49046,14 146.705521,14.3783069 147.616564,15.1349206 C148.52727,15.8915344 149,17.0608466 149,18.6772487 L148.966258,26.8280423 Z" id="Fill-11" fill="#FEFEFE" mask="url(#mask-2)"></path>
                <polygon id="Fill-12" fill="#FEFEFE" mask="url(#mask-2)" points="153 27 156 27 156 9 153 9"></polygon>
                <path d="M22.3863658,36 L12.6139757,36 C12.274889,36 12,35.7760156 12,35.5 C12,35.2239844 12.274889,35 12.6139757,35 L22.3863658,35 C22.7254525,35 23,35.2239844 23,35.5 C23,35.7760156 22.7254525,36 22.3863658,36" id="Fill-13" fill="#FEFEFE" mask="url(#mask-2)"></path>
                <path d="M33.3336964,26 L1.66630362,26 C1.2982469,26 1,25.7761349 1,25.4998703 C1,25.2238651 1.2982469,25 1.66630362,25 L33.3336964,25 C33.7017531,25 34,25.2238651 34,25.4998703 C34,25.7761349 33.7017531,26 33.3336964,26" id="Fill-14" fill="#FEFEFE" mask="url(#mask-2)"></path>
                <path d="M31.319209,31 L5.68079096,31 C5.30473164,31 5,30.7761349 5,30.4998703 C5,30.2238651 5.30473164,30 5.68079096,30 L31.319209,30 C31.6952684,30 32,30.2238651 32,30.4998703 C32,30.7761349 31.6952684,31 31.319209,31" id="Fill-15" fill="#FEFEFE" mask="url(#mask-2)"></path>
                <path d="M11.3548963,21 L0.645103725,21 C0.288757528,21 0,20.7761349 0,20.4998703 C0,20.2236057 0.288757528,20 0.645103725,20 L11.3548963,20 C11.7112425,20 12,20.2236057 12,20.4998703 C12,20.7761349 11.7112425,21 11.3548963,21" id="Fill-16" fill="#FEFEFE" mask="url(#mask-2)"></path>
                <path d="M35.3548963,21 L24.6451037,21 C24.2887575,21 24,20.7761349 24,20.4998703 C24,20.2236057 24.2887575,20 24.6451037,20 L35.3548963,20 C35.7112425,20 36,20.2236057 36,20.4998703 C36,20.7761349 35.7112425,21 35.3548963,21" id="Fill-17" fill="#FEFEFE" mask="url(#mask-2)"></path>
                <path d="M12.2943082,18 C12.2043138,18 12.1132218,17.9821936 12.0250565,17.9443077 L1.43570838,13.4051932 C1.07573054,13.2509974 0.904887403,12.823644 1.05378068,12.4512252 C1.20267395,12.0784275 1.61496564,11.9015002 1.97494348,12.055696 L12.5642916,16.5948105 C12.9242695,16.7490062 13.0951126,17.1759808 12.9462193,17.5487785 C12.8339092,17.830271 12.5712424,18 12.2943082,18" id="Fill-18" fill="#FEFEFE" mask="url(#mask-2)"></path>
                <path d="M24.6490148,18 C24.3977015,18 24.1584997,17.8389092 24.0531971,17.5701788 C23.9112236,17.2096599 24.06329,16.7916349 24.3919822,16.6364422 L34.0946255,12.0580728 C34.4236541,11.9028801 34.8051658,12.0695003 34.9468029,12.4296506 C35.0887764,12.7901695 34.93671,13.2081946 34.6080178,13.3633873 L24.9053745,17.9417567 C24.8216034,17.9811999 24.734468,18 24.6490148,18" id="Fill-19" fill="#FEFEFE" mask="url(#mask-2)"></path>
                <path d="M14.312954,14 C14.1293831,14 13.9461686,13.9233522 13.8107182,13.7715523 L6.1848609,5.21280229 C5.92607935,4.92191471 5.94069373,4.4657671 6.2180106,4.19394799 C6.49497101,3.92250277 6.92983808,3.93783232 7.18933252,4.22834601 L14.8148334,12.787096 C15.0739714,13.0779836 15.059357,13.5341312 14.7820402,13.8059503 C14.6494413,13.9356907 14.4811977,14 14.312954,14" id="Fill-20" fill="#FEFEFE" mask="url(#mask-2)"></path>
                <path d="M22.6387049,14 C22.4922025,14 22.3447059,13.9453912 22.2243883,13.8336422 C21.9559112,13.5837438 21.9237603,13.1436189 22.1527944,12.8506845 L28.874666,4.244561 C29.1037002,3.95198824 29.5074102,3.91690844 29.7755559,4.16644516 C30.044033,4.41598187 30.076184,4.85610677 29.8474812,5.14904118 L23.1252782,13.7551647 C22.9989945,13.9168211 22.8193469,14 22.6387049,14" id="Fill-21" fill="#FEFEFE" mask="url(#mask-2)"></path>
                <path d="M17.5,12 C17.2238071,12 17,11.7051421 17,11.3412676 L17,0.658732418 C17,0.294857924 17.2238071,0 17.5,0 C17.7761929,0 18,0.294857924 18,0.658732418 L18,11.3412676 C18,11.7051421 17.7761929,12 17.5,12" id="Fill-22" fill="#FEFEFE" mask="url(#mask-2)"></path>
            </g>
        </g>
    </g>
</svg>