<?xml version="1.0" encoding="UTF-8"?>
<svg width="1400px" height="352px" viewBox="0 0 1400 352" version="1.1" xmlns="http://www.w3.org/2000/svg" xmlns:xlink="http://www.w3.org/1999/xlink">
    <!-- Generator: Sketch 54.1 (76490) - https://sketchapp.com -->
    <title>BannerBkgrd Copy</title>
    <desc>Created with Sketch.</desc>
    <defs>
        <path d="M0,49.5483871 C238.001784,16.516129 472.920098,7.32747196e-15 704.75494,0 C936.589783,0 1168.33814,16.516129 1400,49.5483871 L1400,352 L0,352 L0,49.5483871 Z" id="path-1"></path>
    </defs>
    <g id="Symbols" stroke="none" stroke-width="1" fill="none" fill-rule="evenodd">
        <g id="BannerBkgrd-Copy">
            <g id="BLP_logo_white-Copy">
                <g id="Fill-1">
                    <mask id="mask-2" fill="white">
                        <use xlink:href="#path-1"></use>
                    </mask>
                    <use id="Mask" fill="#2E1A47" xlink:href="#path-1"></use>
                    <path d="M1399.99904,185.096923 C1400.00894,183.38631 1399.93969,181.675696 1399.90012,179.955195 C1399.73195,165.667122 1398.6339,151.28017 1396.64554,136.853666 C1396.55651,136.280165 1396.49715,135.706665 1396.40812,135.133164 C1394.30105,120.459462 1391.2542,105.765983 1387.26758,91.0823929 C1387.16866,90.7560909 1387.07963,90.410013 1387.00049,90.083711 C1385.20998,83.5873347 1383.31064,77.1008463 1381.15411,70.6440217 C1354.76131,-8.52871126 1304.90385,-72.4740171 1238.90206,-112.975018 L1237.85347,-113.578182 C1233.64922,-116.149047 1229.37573,-118.630919 1225.02309,-121.004025 C1224.06353,-121.537974 1223.0743,-122.022483 1222.10485,-122.526768 C1218.33586,-124.534019 1214.5372,-126.521495 1210.66929,-128.380428 C1209.10629,-129.131911 1207.49384,-129.833955 1205.92096,-130.555775 C1202.59713,-132.088405 1199.27329,-133.611148 1195.88022,-135.044899 C1193.7039,-135.964478 1191.4979,-136.785177 1189.29191,-137.655315 C1186.41323,-138.792428 1183.55434,-139.949317 1180.62621,-140.997439 C1177.89592,-141.996121 1175.10627,-142.886035 1172.32652,-143.815502 C1169.87322,-144.626313 1167.42981,-145.476676 1164.94683,-146.228159 C1161.69224,-147.216953 1158.3882,-148.09698 1155.08415,-148.996782 C1152.99686,-149.570283 1150.92936,-150.163559 1148.8124,-150.697508 C1145.17201,-151.617086 1141.48216,-152.408121 1137.78242,-153.199157 C1135.93255,-153.594674 1134.09258,-154.039631 1132.22292,-154.405485 C1128.30555,-155.176744 1124.33871,-155.829348 1120.36199,-156.462177 C1118.64072,-156.729151 1116.93923,-157.065341 1115.19818,-157.312539 C1111.14231,-157.895928 1107.0271,-158.350773 1102.90198,-158.79573 C1101.18071,-158.993489 1099.46934,-159.220912 1097.73818,-159.389007 C1093.73177,-159.764748 1089.6858,-160.002059 1085.62993,-160.249258 C1083.68114,-160.367913 1081.75213,-160.52612 1079.79345,-160.615111 C1076.07392,-160.773318 1072.29504,-160.802982 1068.52605,-160.852422 C1066.16178,-160.882086 1063.8074,-160.961189 1061.41345,-160.941413 C1058.17865,-160.921637 1054.91418,-160.783206 1051.65959,-160.694215 C1048.63253,-160.595335 1045.62526,-160.52612 1042.57841,-160.367913 C1040.08554,-160.229482 1037.56299,-159.982283 1035.05033,-159.8043 C1031.14285,-159.51755 1027.23537,-159.220912 1023.28832,-158.805618 C1021.79458,-158.657299 1020.28105,-158.429877 1018.7873,-158.261782 C1013.72241,-157.678393 1008.64764,-157.045565 1003.53329,-156.244642 C1003.31566,-156.224866 1003.10792,-156.185314 1002.8804,-156.145763 C978.436389,-152.36857 953.359272,-146.356702 927.747968,-137.82341 C799.196831,-94.9987436 698.126653,53.3104634 604.436171,185.037596 C539.928132,271.487852 471.393905,351.570276 406.589096,373.798364 C366.703126,387.473384 328.647241,392.743656 293.71734,390.330999 C223.560767,376.913065 168.994543,329.737705 142.898514,253.689561 C140.771658,247.509598 138.961358,241.3593 137.358796,235.248553 C137.240088,234.773932 137.062026,234.299311 136.943317,233.82469 C135.706773,228.959824 134.786784,224.144397 133.876688,219.348746 C133.540348,217.559029 133.075407,215.749536 132.778636,213.969707 C132.135633,210.063971 131.769616,206.22745 131.344245,202.361266 C131.067259,199.80029 130.65178,197.209649 130.463826,194.658561 C130.206624,191.197782 130.206624,187.796331 130.117593,184.384992 C130.048347,181.547153 129.860392,178.669763 129.909854,175.861588 C129.969208,172.648007 130.226409,169.493754 130.434149,166.329614 C130.592426,164.085052 130.65178,161.830601 130.85952,159.625591 C131.225537,156.085708 131.789401,152.615041 132.343373,149.134487 C132.630251,147.34477 132.818206,145.515501 133.154546,143.735672 C133.906365,139.740944 134.865923,135.815432 135.874943,131.88992 C136.171714,130.703367 136.40913,129.497039 136.735578,128.310486 C137.972122,123.831249 139.43619,119.41134 140.999182,115.060647 C141.216814,114.477258 141.375092,113.89387 141.582831,113.310481 C154.373645,78.9993307 177.442614,48.5049247 209.652117,23.6070927 C210.176412,23.2016871 210.641353,22.7765057 211.165648,22.3809881 C214.420232,19.9090032 217.872663,17.5655615 221.30531,15.2023439 C223.006795,14.045455 224.629141,12.8292384 226.360303,11.7020133 C228.457482,10.3374776 230.703046,9.07182135 232.859579,7.74683743 C236.193303,5.7198098 239.487456,3.64334247 242.959672,1.72508217 C243.365259,1.49765956 243.79063,1.29990077 244.196217,1.08236609 C260.429569,-7.80689167 278.225914,-15.5590364 297.575358,-22.005973 C348.214316,-38.8747981 422.011275,-29.1747293 501.209459,-10.1206695 C464.340657,33.6829032 428.144535,85.4067156 401.880335,119.757418 C400.020573,122.179963 398.190488,124.414638 396.330725,126.718528 C395.321705,127.964408 394.312685,129.29928 393.303665,130.505608 C392.621092,76.4482422 348.619903,32.7831007 294.399912,32.7831007 C239.705088,32.7831007 195.397236,77.1008463 195.397236,131.731713 C195.397236,131.959136 195.41702,132.17667 195.426913,132.413981 C195.41702,132.720507 195.377451,133.027033 195.377451,133.343447 C195.377451,158.003969 204.468524,180.489143 219.425763,197.802926 C219.425763,197.793038 219.386193,197.78315 219.386193,197.78315 C219.425763,197.802926 219.445548,197.83259 219.485117,197.862253 C229.238978,209.144393 241.495604,218.181969 255.384469,224.144397 C279.076656,237.186589 304.262589,243.218233 329.824431,243.821397 C330.378403,243.831285 330.932374,243.831285 331.486346,243.841173 C336.412738,243.910388 341.339131,243.841173 346.285307,243.514871 C348.501195,243.386328 350.717082,243.109465 352.923077,242.901819 C355.148856,242.684284 357.364744,242.446973 359.580631,242.150335 C367.385698,241.141765 375.190765,239.846445 382.956263,237.977625 L383.193679,237.918297 C386.586757,237.08771 389.969942,236.17802 393.343234,235.199114 C393.630112,235.12001 393.916991,235.040907 394.184084,234.961803 C397.438669,233.992785 400.673468,232.974327 403.91816,231.876766 C404.303962,231.758111 404.689764,231.619679 405.075566,231.481248 C408.241119,230.393575 411.39678,229.246574 414.542548,228.030357 C414.958027,227.87215 415.363614,227.704055 415.7692,227.545848 C418.914969,226.309856 422.060737,225.034312 425.176829,223.659888 C425.483492,223.541233 425.780262,223.392914 426.086925,223.254482 C442.626941,215.996735 458.711908,207.087701 474.035164,196.903123 C474.599028,196.527382 475.182677,196.161528 475.756433,195.775898 C478.031675,194.253155 480.257454,192.671085 482.503019,191.079127 C483.571393,190.327643 484.669444,189.57616 485.727926,188.804901 C487.736074,187.361261 489.724437,185.848407 491.702908,184.365216 C492.949344,183.415974 494.195781,182.486507 495.432325,181.527377 C497.272303,180.093626 499.102388,178.630211 500.912689,177.156908 C502.248157,176.079122 503.573732,175.001337 504.889415,173.913664 C506.5909,172.4898 508.292385,171.036273 509.974085,169.592634 C511.33923,168.415969 512.68459,167.229416 514.020058,166.032976 C515.652296,164.599224 517.254857,163.145697 518.847526,161.682282 C520.192886,160.436402 521.518462,159.180633 522.844037,157.924865 C524.377352,156.46145 525.910667,155.007923 527.404412,153.524732 C528.73988,152.209636 530.045671,150.89454 531.341569,149.559668 C532.795745,148.096253 534.249921,146.62295 535.664528,145.129871 C536.950534,143.775223 538.206863,142.410688 539.463191,141.046152 C540.838229,139.543185 542.23305,138.050106 543.578411,136.527364 C544.805062,135.15294 545.982253,133.758741 547.179227,132.364541 C548.49491,130.83191 549.840271,129.319056 551.106492,127.776537 C552.27379,126.37245 553.381733,124.948586 554.509461,123.524723 C555.696544,122.05142 556.933088,120.578117 558.090494,119.085038 C635.161822,19.3849424 729.29746,-79.8899718 729.29746,-79.8899718 L729.287568,-79.8899718 L729.29746,-79.9097477 C729.29746,-79.9097477 729.188644,-79.9492995 729.139182,-79.9690754 C729.198536,-80.0185151 729.29746,-80.1371703 729.29746,-80.1371703 C729.29746,-80.1371703 727.803714,-80.6612311 725.152564,-81.5115939 C726.260507,-82.6981467 726.893618,-83.3804145 726.893618,-83.3804145 C726.893618,-83.3804145 726.784802,-83.4199663 726.715556,-83.4397422 C726.794694,-83.5188457 726.893618,-83.637501 726.893618,-83.637501 L726.883726,-83.637501 L726.893618,-83.6473889 C726.893618,-83.6473889 720.572404,-85.8523995 710.363495,-88.5023673 C553.401518,-134.827365 380.542528,-188.459549 253.544491,-144.893287 C225.905255,-135.400865 200.70943,-123.841864 177.541537,-110.770007 C174.98931,-109.336256 172.308482,-108.011272 169.815609,-106.537969 C166.056514,-104.323071 162.544729,-101.910413 158.924127,-99.6065235 C154.086766,-96.5313743 149.160374,-93.5254406 144.530753,-90.3019723 C143.472271,-89.5603768 142.522605,-88.7594537 141.464123,-88.0178582 C49.3267402,-22.4212665 1.52688686,73.1456704 0.0727108601,174.84313 C0.0529261526,174.813466 0.0331414451,174.783802 0.0232490914,174.764026 C0.0232490914,175.070552 0.0232490914,175.386967 0.0232490914,175.693493 C0.0232490914,175.772596 0.0232490914,175.841812 0.0232490914,175.920915 L0.0232490914,176.000019 C0.0232490914,176.563631 0.0331414451,177.117356 0.0331414451,177.680969 C0.0232490914,178.046822 0.0034643839,178.3929 0.0034643839,178.758754 L0.0034643839,178.907073 C-0.0163203236,180.785782 0.0529261526,182.674378 0.102387921,184.553087 C0.300234996,198.623625 1.3686092,212.793042 3.32729524,226.992124 C3.41632643,227.664504 3.51524997,228.336883 3.6141735,229.009263 C5.70146014,243.544535 8.71862804,258.10947 12.6755695,272.644741 C12.8041701,273.12925 12.9228784,273.623647 13.0613713,274.108156 C14.8321027,280.535317 16.7116499,286.95259 18.8582906,293.359975 C45.2313057,372.503044 95.0590916,436.428574 161.021306,476.929575 C161.506032,477.216325 162.010542,477.493187 162.495267,477.799713 C166.570917,480.271698 170.696028,482.684356 174.890386,484.96847 C176.008222,485.581522 177.135951,486.125359 178.253787,486.718635 C181.88428,488.646783 185.534559,490.565043 189.244192,492.344873 C190.945676,493.165572 192.686731,493.917055 194.408,494.70809 C197.603231,496.181393 200.798461,497.644808 204.053045,499.019232 C206.348071,499.98825 208.682667,500.868277 211.00737,501.777967 C213.757444,502.86564 216.507519,503.97309 219.307055,504.991547 C222.156053,506.010005 225.054512,506.949359 227.952972,507.898602 C230.287567,508.679749 232.622163,509.49056 234.986435,510.21238 C238.339943,511.230837 241.742913,512.140528 245.145883,513.060106 C247.134246,513.603943 249.122609,514.187331 251.130757,514.691616 C254.860174,515.63097 258.629161,516.441782 262.40804,517.252593 C264.198556,517.628334 265.949503,518.043628 267.740019,518.399594 C271.716745,519.180741 275.752825,519.843233 279.788905,520.495837 C281.450821,520.752923 283.092952,521.069337 284.774652,521.306648 C288.879979,521.909812 293.04466,522.364657 297.20934,522.819503 C298.891041,523.007373 300.552956,523.224908 302.234656,523.393003 C306.270736,523.758857 310.356279,524.006055 314.441821,524.263142 C316.360937,524.381797 318.250377,524.530116 320.189278,524.60922 C323.928588,524.787203 327.707467,524.816866 331.486346,524.856418 C333.850619,524.89597 336.204999,524.965186 338.579164,524.955298 C341.804071,524.935522 345.058656,524.797091 348.31324,524.688323 C351.350193,524.589444 354.36736,524.530116 357.43399,524.371909 C359.887294,524.22359 362.380167,523.986279 364.853255,523.808297 C368.810197,523.521546 372.747354,523.224908 376.743865,522.809615 C378.178256,522.661296 379.642324,522.443761 381.086608,522.285554 C386.200955,521.692277 391.325194,521.049561 396.508787,520.258526 C396.64728,520.228862 396.795666,520.209087 396.934159,520.189311 C421.447411,516.40223 446.583882,510.380475 472.264432,501.827407 C600.795785,459.00274 701.856071,310.723197 795.536661,178.996065 C860.054592,92.5359201 928.598711,12.4436088 993.393628,-9.7844796 C1033.29938,-23.479276 1072.02795,-24.4186303 1106.95785,-22.0257489 C1177.11442,-8.59792684 1230.99807,34.2662916 1257.0941,110.304548 C1259.30999,116.751484 1261.22911,123.168757 1262.87124,129.53659 C1262.9207,129.714573 1262.98005,129.902444 1263.01962,130.080427 C1264.3353,135.192492 1265.31465,140.255117 1266.25442,145.297966 C1266.55119,146.850373 1266.95678,148.422555 1267.20409,149.965074 C1267.88666,154.029017 1268.26257,158.053408 1268.70773,162.0778 C1268.96493,164.480569 1269.35073,166.913002 1269.53868,169.295996 C1269.80578,172.934758 1269.81567,176.494416 1269.89481,180.07385 C1269.95416,182.743594 1270.13222,185.443001 1270.08276,188.083081 C1270.02341,191.49442 1269.75631,194.85632 1269.52879,198.228107 C1269.3903,200.255135 1269.34084,202.301938 1269.1331,204.30919 C1268.75719,208.056719 1268.17354,211.725145 1267.5701,215.39357 C1267.3228,217.005305 1267.14473,218.626927 1266.85786,220.208997 C1266.06647,224.401483 1265.05745,228.534642 1263.99896,232.628249 C1263.75166,233.626931 1263.55381,234.655277 1263.28672,235.634183 C1261.97103,240.35073 1260.46739,244.978286 1258.79559,249.556402 C1258.65709,249.912368 1258.55817,250.278222 1258.42957,250.624299 C1245.59919,285.103545 1222.40162,315.766046 1189.9547,340.723206 C1189.57879,341.009956 1189.25234,341.306594 1188.88632,341.583456 C1185.48335,344.174097 1181.87264,346.626306 1178.27183,349.078515 C1176.73851,350.126636 1175.27444,351.243974 1173.69167,352.262431 C1171.456,353.715958 1169.07194,355.060718 1166.76702,356.474694 C1163.57179,358.422618 1160.42602,360.400206 1157.08241,362.24925 C1156.5779,362.536001 1156.02392,362.802975 1155.49963,363.079837 C1139.35531,371.899879 1121.65789,379.612472 1102.42715,386.009969 C1051.78819,402.878794 977.991233,393.168838 898.783157,374.124666 C935.661851,330.330981 971.857974,278.597281 998.112281,244.246578 C999.972043,241.824033 1001.81202,239.579471 1003.66189,237.295357 C1004.66102,236.039588 1005.68982,234.704717 1006.68895,233.4885 C1007.37152,287.545866 1051.38261,331.211008 1105.5927,331.211008 C1160.29742,331.211008 1204.60527,286.913038 1204.60527,232.272283 C1204.60527,232.025085 1204.5756,231.797662 1204.5657,231.540576 C1204.5756,231.243938 1204.61517,230.967075 1204.61517,230.670437 C1204.61517,206.000028 1195.5142,183.514853 1180.55696,166.210959 C1180.56685,166.210959 1180.59653,166.230734 1180.59653,166.230734 C1180.56685,166.191183 1180.53718,166.171407 1180.5075,166.141743 C1170.74375,154.869492 1158.5069,145.831915 1144.60815,139.859599 C1120.91596,126.827295 1095.73003,120.785764 1070.17808,120.192487 C1069.62411,120.172711 1069.07013,120.172711 1068.50627,120.162824 C1063.57988,120.093608 1058.64359,120.172711 1053.68752,120.499013 C1051.50131,120.627557 1049.30521,120.884643 1047.10911,121.09229 C1044.87344,121.319712 1042.62787,121.557023 1040.38231,121.863549 C1032.58713,122.872119 1024.80185,124.157551 1017.04625,126.03626 C1016.96711,126.046148 1016.87808,126.065923 1016.80883,126.085699 C1013.41575,126.906398 1010.03257,127.816089 1006.64938,128.804883 C1006.3724,128.874098 1006.09541,128.96309 1005.79864,129.052081 C1002.55395,130.001323 999.309256,131.019781 996.084348,132.12723 C995.698546,132.255774 995.312745,132.394205 994.926943,132.522748 C991.751497,133.610421 988.605729,134.747535 985.45996,135.963751 C985.054374,136.131846 984.638895,136.290053 984.233308,136.458148 C981.077648,137.694141 977.941771,138.979573 974.82568,140.33422 C974.519017,140.462764 974.212354,140.611083 973.915583,140.739626 C957.375568,148.007262 941.290601,156.916295 925.967345,167.100873 C925.383696,167.486503 924.809939,167.842469 924.246075,168.21821 C921.970834,169.750841 919.735162,171.323023 917.509382,172.914982 C916.421223,173.676353 915.342957,174.417948 914.26469,175.189208 C912.24665,176.652623 910.278072,178.145702 908.289709,179.648669 C907.053164,180.588023 905.806728,181.527377 904.580076,182.466731 C902.720313,183.920258 900.910013,185.373786 899.079927,186.847089 C897.754352,187.914986 896.428777,189.002659 895.113093,190.100221 C893.391824,191.524084 891.700231,192.957835 890.018531,194.42125 C888.663279,195.597915 887.308026,196.784468 885.972559,197.961133 C884.350213,199.404772 882.747651,200.858299 881.154982,202.321714 C879.809622,203.567595 878.474154,204.823363 877.148579,206.089019 C875.615264,207.542546 874.091842,209.005961 872.598096,210.469376 C871.262629,211.784472 869.956838,213.119344 868.651047,214.454216 C867.206764,215.917631 865.742695,217.390934 864.337981,218.874125 C863.051975,220.228773 861.795646,221.593309 860.539317,222.967732 C859.154388,224.460811 857.769458,225.963778 856.424098,227.466745 C855.197446,228.860944 854.020256,230.245256 852.823281,231.639455 C851.507598,233.162198 850.162238,234.694829 848.886124,236.237347 C847.728719,237.621659 846.620775,239.05541 845.483155,240.469385 C844.296072,241.952576 843.059528,243.415991 841.912015,244.918958 C764.840687,344.619054 670.695156,443.893968 670.695156,443.893968 L670.705049,443.903856 L670.695156,443.913744 C670.695156,443.913744 670.803972,443.943408 670.863326,443.963184 C670.79408,444.032399 670.695156,444.131279 670.695156,444.131279 C670.695156,444.131279 672.198794,444.675115 674.840053,445.51559 C673.742001,446.702143 673.108891,447.384411 673.108891,447.384411 C673.108891,447.384411 673.207814,447.414075 673.277061,447.443739 C673.197922,447.53273 673.108891,447.631609 673.108891,447.631609 L673.118783,447.641497 L673.108891,447.651385 C673.108891,447.651385 679.420212,449.866284 689.629121,452.506364 C846.600991,498.831361 1019.4402,552.463546 1146.44813,508.887396 C1166.32186,502.074605 1184.96895,494.203805 1202.51799,485.502418 C1202.59713,485.462867 1202.67626,485.423315 1202.74551,485.393651 C1209.43274,482.061415 1215.8232,478.511645 1222.17409,474.932211 C1224.83514,473.439132 1227.62478,472.05482 1230.22647,470.512302 C1233.84707,468.366619 1237.23026,466.052841 1240.74204,463.808279 C1245.708,460.673802 1250.7531,457.588765 1255.50143,454.286193 C1256.40164,453.643477 1257.2227,452.961209 1258.12291,452.308605 C1350.53728,386.721901 1398.47562,291.006645 1399.91991,189.170754 C1399.93969,189.19053 1399.95947,189.220194 1399.96937,189.249858 C1399.96937,188.963108 1399.96937,188.676357 1399.95947,188.399495 C1399.95947,188.290728 1399.97926,188.18196 1399.97926,188.092969 L1399.97926,188.013865 C1399.98915,187.410701 1399.95947,186.817425 1399.95947,186.21426 C1399.97926,185.897846 1399.99904,185.571544 1399.99904,185.25513 L1399.99904,185.096923 Z" fill="#FEFEFE" opacity="0.05" mask="url(#mask-2)"></path>
                </g>
            </g>
        </g>
    </g>
</svg>