<?xml version="1.0" encoding="utf-8"?>
<!-- Generator: Adobe Illustrator 23.0.2, SVG Export Plug-In . SVG Version: 6.00 Build 0)  -->
<svg version="1.1" id="Layer_1" xmlns="http://www.w3.org/2000/svg" xmlns:xlink="http://www.w3.org/1999/xlink" x="0px" y="0px"
	 viewBox="0 0 400 200" style="enable-background:new 0 0 400 200;" xml:space="preserve">
<style type="text/css">
	.st0{opacity:0.1;fill:#010101;}
</style>
<path class="st0" d="M0,99.1c0,0.5,0,1,0,1.5c0,4.1,0.4,8.2,0.9,12.3c0,0.2,0,0.3,0.1,0.5c0.6,4.2,1.5,8.4,2.6,12.6
	c0,0.1,0.1,0.2,0.1,0.3c0.5,1.9,1.1,3.7,1.7,5.6c7.5,22.6,21.8,40.9,40.6,52.5c0.1,0.1,0.2,0.1,0.3,0.2c1.2,0.7,2.4,1.4,3.7,2.1
	c0.3,0.2,0.6,0.3,0.8,0.4c1.1,0.6,2.2,1.1,3.3,1.7c0.4,0.2,0.9,0.4,1.4,0.6c0.9,0.4,1.9,0.9,2.9,1.3c0.6,0.3,1.3,0.5,1.9,0.7
	c0.8,0.3,1.6,0.7,2.5,1c0.8,0.3,1.6,0.5,2.4,0.8c0.7,0.2,1.4,0.5,2.1,0.7c0.9,0.3,1.9,0.5,2.8,0.8c0.6,0.2,1.2,0.3,1.8,0.5
	c1,0.3,2.1,0.5,3.2,0.7c0.5,0.1,1.1,0.2,1.6,0.3c1.1,0.2,2.3,0.4,3.4,0.6c0.5,0.1,1,0.2,1.5,0.2c1.2,0.2,2.3,0.3,3.5,0.4
	c0.5,0.1,1,0.1,1.5,0.2c1.1,0.1,2.3,0.2,3.5,0.2c0.6,0,1.1,0.1,1.7,0.1c1.1,0,2.1,0.1,3.2,0.1c0.7,0,1.3,0,2,0c0.9,0,1.9,0,2.8-0.1
	c0.9,0,1.7,0,2.6-0.1c0.7,0,1.4-0.1,2.2-0.2c1.1-0.1,2.2-0.2,3.4-0.3c0.4,0,0.9-0.1,1.3-0.2c1.4-0.2,2.9-0.3,4.4-0.6
	c0.1,0,0.1,0,0.2,0c7-1.1,14.2-2.8,21.5-5.2c36.7-12.2,65.6-54.6,92.4-92.3c18.4-24.7,38-47.6,56.5-54c11.4-3.9,22.3-5.4,32.2-4.7
	c20,3.8,35.6,17.3,43.1,39.1c0.6,1.8,1.1,3.5,1.6,5.3c0,0.1,0.1,0.3,0.1,0.4c0.4,1.4,0.6,2.8,0.9,4.1c0.1,0.5,0.2,1,0.3,1.5
	c0.2,1.1,0.3,2.2,0.4,3.3c0.1,0.7,0.2,1.5,0.3,2.2c0.1,1,0.1,2,0.1,2.9c0,0.8,0.1,1.6,0.1,2.4c0,0.9-0.1,1.8-0.1,2.7
	c0,0.6-0.1,1.3-0.1,1.9c-0.1,1-0.3,2-0.4,3c-0.1,0.5-0.1,1-0.2,1.5c-0.2,1.1-0.5,2.3-0.8,3.4c-0.1,0.3-0.2,0.7-0.2,1
	c-0.4,1.3-0.8,2.5-1.2,3.8c-0.1,0.2-0.1,0.3-0.2,0.5c-3.7,9.8-10.2,18.5-19.4,25.6c-0.1,0.1-0.3,0.2-0.4,0.4
	c-0.9,0.7-1.9,1.4-2.9,2.1c-0.5,0.3-0.9,0.7-1.4,1c-0.6,0.4-1.2,0.8-1.9,1.1c-1,0.6-1.9,1.2-2.9,1.7c-0.1,0.1-0.2,0.1-0.4,0.2
	c-4.6,2.5-9.7,4.8-15.2,6.6c-14.5,4.8-35.6,2-58.2-3.4c10.5-12.5,20.9-27.3,28.4-37.1c0.5-0.7,1.1-1.3,1.6-2
	c0.3-0.4,0.6-0.7,0.9-1.1c0.2,15.5,12.8,27.9,28.3,27.9c15.6,0,28.3-12.7,28.3-28.3c0-0.1,0-0.1,0-0.2c0-0.1,0-0.2,0-0.3
	c0-7-2.6-13.5-6.9-18.4c0,0,0,0,0,0c0,0,0,0,0,0c-2.8-3.2-6.3-5.8-10.3-7.5c-6.8-3.7-14-5.5-21.3-5.6c-0.2,0-0.3,0-0.5,0
	c-1.4,0-2.8,0-4.2,0.1c-0.6,0-1.3,0.1-1.9,0.2c-0.6,0.1-1.3,0.1-1.9,0.2c-2.2,0.3-4.5,0.7-6.7,1.2c0,0,0,0-0.1,0
	c-1,0.2-1.9,0.5-2.9,0.8c-0.1,0-0.2,0-0.2,0.1c-0.9,0.3-1.9,0.6-2.8,0.9c-0.1,0-0.2,0.1-0.3,0.1c-0.9,0.3-1.8,0.6-2.7,1
	c-0.1,0-0.2,0.1-0.4,0.1c-0.9,0.4-1.8,0.7-2.7,1.1c-0.1,0-0.2,0.1-0.3,0.1c-4.7,2.1-9.3,4.6-13.7,7.5c-0.2,0.1-0.3,0.2-0.5,0.3
	c-0.6,0.4-1.3,0.9-1.9,1.3c-0.3,0.2-0.6,0.4-0.9,0.7c-0.6,0.4-1.1,0.8-1.7,1.3c-0.4,0.3-0.7,0.5-1.1,0.8c-0.5,0.4-1,0.8-1.6,1.2
	c-0.4,0.3-0.8,0.6-1.1,0.9c-0.5,0.4-1,0.8-1.5,1.2c-0.4,0.3-0.8,0.7-1.2,1c-0.5,0.4-0.9,0.8-1.4,1.2c-0.4,0.4-0.8,0.7-1.1,1.1
	c-0.4,0.4-0.9,0.8-1.3,1.3c-0.4,0.4-0.8,0.8-1.1,1.1c-0.4,0.4-0.8,0.8-1.2,1.3c-0.4,0.4-0.7,0.8-1.1,1.2c-0.4,0.4-0.8,0.9-1.2,1.3
	c-0.4,0.4-0.7,0.8-1,1.2c-0.4,0.4-0.8,0.9-1.1,1.3c-0.3,0.4-0.6,0.8-1,1.2c-0.3,0.4-0.7,0.8-1,1.3c-22,28.5-48.9,56.9-48.9,56.9h0
	l0,0c0,0,0,0,0,0c0,0,0,0,0,0s0.4,0.1,1.2,0.4c-0.3,0.3-0.5,0.5-0.5,0.5s0,0,0,0c0,0,0,0.1,0,0.1h0l0,0c0,0,1.8,0.6,4.7,1.4
	c44.8,13.2,94.2,28.6,130.5,16.1c7.9-2.7,15.1-6,21.7-9.8c0.7-0.4,1.5-0.8,2.2-1.2c1.1-0.6,2.1-1.3,3.1-2c1.4-0.9,2.8-1.7,4.1-2.7
	c0.3-0.2,0.6-0.4,0.9-0.7c26.3-18.7,40-46.1,40.4-75.1c0,0,0,0,0,0c0-0.1,0-0.2,0-0.3c0,0,0,0,0-0.1v0c0-0.2,0-0.3,0-0.5
	c0-0.1,0-0.2,0-0.3v0c0-0.5,0-1.1,0-1.6c-0.1-4-0.4-8.1-0.9-12.1c0-0.2-0.1-0.4-0.1-0.6c-0.6-4.2-1.5-8.3-2.6-12.5
	c0-0.1-0.1-0.3-0.1-0.4c-0.5-1.8-1-3.7-1.7-5.5c-7.5-22.6-21.8-40.9-40.6-52.5c-0.1-0.1-0.3-0.2-0.4-0.2c-1.2-0.7-2.3-1.4-3.5-2.1
	c-0.3-0.2-0.6-0.3-1-0.5c-1-0.6-2.1-1.1-3.1-1.6c-0.5-0.2-1-0.4-1.5-0.7c-0.9-0.4-1.8-0.8-2.8-1.2c-0.7-0.3-1.3-0.5-2-0.8
	c-0.8-0.3-1.6-0.6-2.4-0.9c-0.8-0.3-1.6-0.6-2.5-0.8c-0.7-0.2-1.3-0.5-2-0.7c-1-0.3-1.9-0.6-2.9-0.8c-0.6-0.2-1.1-0.3-1.7-0.5
	c-1.1-0.3-2.1-0.5-3.2-0.7c-0.5-0.1-1-0.2-1.5-0.3c-1.1-0.2-2.3-0.4-3.4-0.6c-0.5-0.1-0.9-0.2-1.4-0.2c-1.2-0.2-2.4-0.3-3.6-0.4
	c-0.5-0.1-1-0.1-1.4-0.2c-1.2-0.1-2.3-0.2-3.5-0.2c-0.5,0-1.1-0.1-1.6-0.1c-1.1,0-2.1-0.1-3.2-0.1c-0.7,0-1.3,0-2,0
	c-0.9,0-1.9,0-2.8,0.1c-0.9,0-1.7,0-2.6,0.1c-0.7,0-1.4,0.1-2.1,0.2c-1.1,0.1-2.3,0.2-3.4,0.3c-0.4,0-0.8,0.1-1.2,0.2
	c-1.5,0.2-2.9,0.4-4.4,0.6c0,0-0.1,0-0.1,0c-7,1.1-14.2,2.8-21.5,5.2c-36.7,12.2-65.6,54.6-92.4,92.3c-18.4,24.7-38,47.6-56.5,54
	c-11.4,3.9-22.5,4.2-32.4,3.5c-20-3.8-35.4-16.1-42.9-37.8c-0.6-1.8-1.2-3.7-1.7-5.5c0-0.1,0-0.1,0-0.2c-0.4-1.5-0.7-2.9-0.9-4.4
	c-0.1-0.4-0.2-0.9-0.3-1.3c-0.2-1.2-0.3-2.3-0.4-3.5c-0.1-0.7-0.2-1.4-0.2-2.1c-0.1-1-0.1-2.1-0.1-3.1c0-0.8-0.1-1.5-0.1-2.3
	c0-1,0.1-1.9,0.2-2.9c0-0.6,0.1-1.2,0.1-1.7c0.1-1.1,0.3-2.1,0.4-3.2c0.1-0.5,0.1-0.9,0.2-1.4c0.2-1.2,0.5-2.4,0.8-3.5
	c0.1-0.3,0.1-0.6,0.2-0.9c0.4-1.3,0.8-2.7,1.3-4c0-0.1,0.1-0.2,0.1-0.3c3.7-9.9,10.3-18.6,19.6-25.8c0.1-0.1,0.2-0.2,0.3-0.2
	c1-0.7,2-1.4,3-2.1c0.4-0.3,0.9-0.6,1.3-0.9c0.6-0.4,1.3-0.8,2-1.2c0.9-0.6,1.8-1.1,2.8-1.7c0.1-0.1,0.3-0.2,0.5-0.2
	c4.6-2.5,9.7-4.7,15.2-6.6c14.5-4.8,35.6-2,58.2,3.4c-10.5,12.5-20.9,27.3-28.4,37.1c-0.5,0.7-1.1,1.3-1.6,2
	c-0.3,0.4-0.6,0.7-0.9,1.1c-0.2-15.5-12.8-27.9-28.3-27.9c-15.6,0-28.3,12.7-28.3,28.3c0,0.1,0,0.1,0,0.2c0,0.1,0,0.2,0,0.2
	c0,7.1,2.6,13.5,6.9,18.4c0,0,0,0,0,0c0,0,0,0,0,0c2.8,3.2,6.3,5.8,10.3,7.5c6.8,3.7,14,5.5,21.3,5.6c0.2,0,0.3,0,0.5,0
	c1.4,0,2.8,0,4.2-0.1c0.6,0,1.3-0.1,1.9-0.2c0.6-0.1,1.3-0.1,1.9-0.2c2.2-0.3,4.5-0.7,6.7-1.2c0,0,0,0,0.1,0c1-0.2,1.9-0.5,2.9-0.8
	c0.1,0,0.2,0,0.2-0.1c0.9-0.3,1.9-0.6,2.8-0.9c0.1,0,0.2-0.1,0.3-0.1c0.9-0.3,1.8-0.6,2.7-1c0.1,0,0.2-0.1,0.4-0.1
	c0.9-0.4,1.8-0.7,2.7-1.1c0.1,0,0.2-0.1,0.3-0.1c4.7-2.1,9.3-4.6,13.7-7.5c0.2-0.1,0.3-0.2,0.5-0.3c0.7-0.4,1.3-0.9,1.9-1.3
	c0.3-0.2,0.6-0.4,0.9-0.7c0.6-0.4,1.1-0.8,1.7-1.3c0.4-0.3,0.7-0.5,1.1-0.8c0.5-0.4,1-0.8,1.6-1.3c0.4-0.3,0.8-0.6,1.1-0.9
	c0.5-0.4,1-0.8,1.5-1.2c0.4-0.3,0.8-0.7,1.2-1c0.5-0.4,0.9-0.8,1.4-1.2c0.4-0.4,0.8-0.7,1.1-1.1c0.4-0.4,0.9-0.8,1.3-1.3
	c0.4-0.4,0.8-0.8,1.1-1.1c0.4-0.4,0.8-0.8,1.2-1.3c0.4-0.4,0.7-0.8,1.1-1.2c0.4-0.4,0.8-0.9,1.2-1.3c0.4-0.4,0.7-0.8,1-1.2
	c0.4-0.4,0.8-0.9,1.1-1.3c0.3-0.4,0.6-0.8,1-1.2c0.3-0.4,0.7-0.8,1-1.3c22-28.5,48.9-56.9,48.9-56.9l0,0l0,0c0,0,0,0,0,0
	c0,0,0,0,0,0s-0.4-0.2-1.2-0.4c0.3-0.3,0.5-0.5,0.5-0.5s0,0,0,0c0,0,0-0.1,0-0.1l0,0l0,0c0,0-1.8-0.6-4.7-1.4
	C158.1,9.4,108.7-5.9,72.4,6.6c-5.7,1.9-11,4.2-16,6.7c0,0,0,0-0.1,0c-1.9,1-3.7,2-5.6,3c-0.8,0.4-1.6,0.8-2.3,1.3
	c-1,0.6-2,1.3-3,1.9c-1.4,0.9-2.9,1.8-4.2,2.7c-0.3,0.2-0.5,0.4-0.8,0.6C14.1,41.5,0.4,68.8,0,97.9c0,0,0,0,0,0c0,0.1,0,0.2,0,0.2
	c0,0,0,0.1,0,0.1v0c0,0.2,0,0.3,0,0.5C0,98.9,0,99,0,99.1L0,99.1z"/>
</svg>
