<?xml version="1.0" encoding="utf-8"?>
<!-- Generator: Adobe Illustrator 23.0.2, SVG Export Plug-In . SVG Version: 6.00 Build 0)  -->
<svg version="1.1" id="Layer_1" xmlns="http://www.w3.org/2000/svg" xmlns:xlink="http://www.w3.org/1999/xlink" x="0px" y="0px"
	 viewBox="0 0 100 50" style="enable-background:new 0 0 100 50;" xml:space="preserve">
<style type="text/css">
	.st0{opacity:5.000000e-02;fill:#FFFFFF;}
</style>
<path class="st0" d="M100,25.2c0-0.1,0-0.2,0-0.4c0-1-0.1-2-0.2-3.1c0,0,0-0.1,0-0.1c-0.2-1-0.4-2.1-0.7-3.1c0,0,0,0,0-0.1
	c-0.1-0.5-0.3-0.9-0.4-1.4c-1.9-5.7-5.4-10.2-10.2-13.1c0,0,0,0-0.1,0c-0.3-0.2-0.6-0.4-0.9-0.5c-0.1,0-0.1-0.1-0.2-0.1
	C87,3.1,86.8,3,86.5,2.8c-0.1-0.1-0.2-0.1-0.3-0.2c-0.2-0.1-0.5-0.2-0.7-0.3c-0.2-0.1-0.3-0.1-0.5-0.2c-0.2-0.1-0.4-0.2-0.6-0.2
	c-0.2-0.1-0.4-0.1-0.6-0.2c-0.2-0.1-0.3-0.1-0.5-0.2c-0.2-0.1-0.5-0.1-0.7-0.2c-0.1,0-0.3-0.1-0.4-0.1c-0.3-0.1-0.5-0.1-0.8-0.2
	C81.1,1,81,1,80.9,1c-0.3-0.1-0.6-0.1-0.8-0.1c-0.1,0-0.2,0-0.4-0.1c-0.3,0-0.6-0.1-0.9-0.1c-0.1,0-0.2,0-0.4,0
	c-0.3,0-0.6,0-0.9-0.1c-0.1,0-0.3,0-0.4,0c-0.3,0-0.5,0-0.8,0c-0.2,0-0.3,0-0.5,0c-0.2,0-0.5,0-0.7,0c-0.2,0-0.4,0-0.6,0
	c-0.2,0-0.4,0-0.5,0c-0.3,0-0.6,0-0.8,0.1c-0.1,0-0.2,0-0.3,0c-0.4,0-0.7,0.1-1.1,0.1c0,0,0,0,0,0c-1.7,0.3-3.5,0.7-5.4,1.3
	c-9.2,3.1-16.4,13.7-23.1,23.1c-4.6,6.2-9.5,11.9-14.1,13.5c-2.8,1-5.6,1.4-8.1,1.2c-5-1-8.9-4.3-10.8-9.8c-0.2-0.4-0.3-0.9-0.4-1.3
	c0,0,0-0.1,0-0.1c-0.1-0.3-0.2-0.7-0.2-1c0-0.1-0.1-0.3-0.1-0.4c0-0.3-0.1-0.6-0.1-0.8c0-0.2,0-0.4-0.1-0.6c0-0.2,0-0.5,0-0.7
	c0-0.2,0-0.4,0-0.6c0-0.2,0-0.5,0-0.7c0-0.2,0-0.3,0-0.5c0-0.3,0.1-0.5,0.1-0.7c0-0.1,0-0.3,0.1-0.4c0.1-0.3,0.1-0.6,0.2-0.8
	c0-0.1,0-0.2,0.1-0.3c0.1-0.3,0.2-0.6,0.3-0.9c0,0,0-0.1,0-0.1c0.9-2.5,2.6-4.6,4.9-6.4c0,0,0.1-0.1,0.1-0.1
	c0.2-0.2,0.5-0.3,0.7-0.5c0.1-0.1,0.2-0.2,0.4-0.3c0.1-0.1,0.3-0.2,0.5-0.3c0.2-0.1,0.5-0.3,0.7-0.4c0,0,0.1,0,0.1,0
	c1.2-0.6,2.4-1.2,3.8-1.6c3.6-1.2,8.9-0.5,14.5,0.8c-2.6,3.1-5.2,6.8-7.1,9.3c-0.1,0.2-0.3,0.3-0.4,0.5c-0.1,0.1-0.1,0.2-0.2,0.3
	c0-3.9-3.2-7-7.1-7c-3.9,0-7.1,3.2-7.1,7.1c0,0,0,0,0,0c0,0,0,0,0,0.1c0,1.8,0.6,3.4,1.7,4.6c0,0,0,0,0,0c0,0,0,0,0,0
	c0.7,0.8,1.6,1.5,2.6,1.9c1.7,0.9,3.5,1.4,5.3,1.4c0,0,0.1,0,0.1,0c0.4,0,0.7,0,1.1,0c0.2,0,0.3,0,0.5,0c0.2,0,0.3,0,0.5-0.1
	c0.6-0.1,1.1-0.2,1.7-0.3c0,0,0,0,0,0c0.2-0.1,0.5-0.1,0.7-0.2c0,0,0,0,0.1,0c0.2-0.1,0.5-0.1,0.7-0.2c0,0,0.1,0,0.1,0
	c0.2-0.1,0.5-0.2,0.7-0.2c0,0,0.1,0,0.1,0c0.2-0.1,0.4-0.2,0.7-0.3c0,0,0,0,0.1,0c1.2-0.5,2.3-1.2,3.4-1.9c0,0,0.1-0.1,0.1-0.1
	c0.2-0.1,0.3-0.2,0.5-0.3c0.1-0.1,0.2-0.1,0.2-0.2c0.1-0.1,0.3-0.2,0.4-0.3c0.1-0.1,0.2-0.1,0.3-0.2c0.1-0.1,0.3-0.2,0.4-0.3
	c0.1-0.1,0.2-0.2,0.3-0.2c0.1-0.1,0.2-0.2,0.4-0.3c0.1-0.1,0.2-0.2,0.3-0.3c0.1-0.1,0.2-0.2,0.3-0.3c0.1-0.1,0.2-0.2,0.3-0.3
	c0.1-0.1,0.2-0.2,0.3-0.3c0.1-0.1,0.2-0.2,0.3-0.3c0.1-0.1,0.2-0.2,0.3-0.3c0.1-0.1,0.2-0.2,0.3-0.3c0.1-0.1,0.2-0.2,0.3-0.3
	c0.1-0.1,0.2-0.2,0.3-0.3c0.1-0.1,0.2-0.2,0.3-0.3c0.1-0.1,0.2-0.2,0.2-0.3c0.1-0.1,0.2-0.2,0.3-0.3c5.5-7.1,12.2-14.2,12.2-14.2h0
	l0,0c0,0,0,0,0,0c0,0,0,0,0,0s-0.1,0-0.3-0.1C51.9,6.1,51.9,6,51.9,6s0,0,0,0c0,0,0,0,0,0h0l0,0c0,0-0.5-0.2-1.2-0.3
	c-11.2-3.3-23.6-7.1-32.6-4c-2,0.7-3.8,1.5-5.4,2.4c-0.2,0.1-0.4,0.2-0.6,0.3c-0.3,0.2-0.5,0.3-0.8,0.5c-0.3,0.2-0.7,0.4-1,0.7
	c-0.1,0.1-0.1,0.1-0.2,0.2C3.5,10.4,0.1,17.2,0,24.5c0,0,0,0,0,0c0,0,0,0,0,0.1c0,0,0,0,0,0v0c0,0,0,0.1,0,0.1c0,0,0,0.1,0,0.1v0
	c0,0.1,0,0.3,0,0.4c0,1,0.1,2,0.2,3c0,0,0,0.1,0,0.1c0.1,1,0.4,2.1,0.6,3.1c0,0,0,0.1,0,0.1C1.1,32,1.2,32.5,1.3,33
	c1.9,5.7,5.4,10.2,10.2,13.1c0,0,0.1,0,0.1,0.1c0.3,0.2,0.6,0.3,0.9,0.5c0.1,0,0.2,0.1,0.2,0.1c0.3,0.1,0.5,0.3,0.8,0.4
	c0.1,0.1,0.2,0.1,0.4,0.2c0.2,0.1,0.5,0.2,0.7,0.3c0.2,0.1,0.3,0.1,0.5,0.2c0.2,0.1,0.4,0.2,0.6,0.2c0.2,0.1,0.4,0.1,0.6,0.2
	c0.2,0.1,0.3,0.1,0.5,0.2c0.2,0.1,0.5,0.1,0.7,0.2c0.1,0,0.3,0.1,0.4,0.1c0.3,0.1,0.5,0.1,0.8,0.2c0.1,0,0.3,0.1,0.4,0.1
	c0.3,0.1,0.6,0.1,0.9,0.1c0.1,0,0.2,0,0.4,0.1c0.3,0,0.6,0.1,0.9,0.1c0.1,0,0.2,0,0.4,0c0.3,0,0.6,0,0.9,0.1c0.1,0,0.3,0,0.4,0
	c0.3,0,0.5,0,0.8,0c0.2,0,0.3,0,0.5,0c0.2,0,0.5,0,0.7,0c0.2,0,0.4,0,0.7,0c0.2,0,0.4,0,0.5,0c0.3,0,0.6,0,0.8-0.1
	c0.1,0,0.2,0,0.3,0c0.4,0,0.7-0.1,1.1-0.1c0,0,0,0,0,0c1.8-0.3,3.5-0.7,5.4-1.3c9.2-3.1,16.4-13.7,23.1-23.1
	c4.6-6.2,9.5-11.9,14.1-13.5c2.8-1,5.6-1,8.1-0.9c5,1,8.9,4,10.7,9.5c0.2,0.5,0.3,0.9,0.4,1.4c0,0,0,0,0,0c0.1,0.4,0.2,0.7,0.2,1.1
	c0,0.1,0,0.2,0.1,0.3c0,0.3,0.1,0.6,0.1,0.9c0,0.2,0,0.3,0.1,0.5c0,0.3,0,0.5,0,0.8c0,0.2,0,0.4,0,0.6c0,0.2,0,0.5,0,0.7
	c0,0.1,0,0.3,0,0.4c0,0.3-0.1,0.5-0.1,0.8c0,0.1,0,0.2-0.1,0.3c-0.1,0.3-0.1,0.6-0.2,0.9c0,0.1,0,0.1-0.1,0.2
	c-0.1,0.3-0.2,0.7-0.3,1c0,0,0,0.1,0,0.1c-0.9,2.5-2.6,4.7-4.9,6.4c0,0,0,0-0.1,0.1c-0.2,0.2-0.5,0.4-0.8,0.5
	c-0.1,0.1-0.2,0.2-0.3,0.2c-0.2,0.1-0.3,0.2-0.5,0.3c-0.2,0.1-0.5,0.3-0.7,0.4c0,0-0.1,0-0.1,0.1c-1.2,0.6-2.4,1.2-3.8,1.6
	c-3.6,1.2-8.9,0.5-14.5-0.8c2.6-3.1,5.2-6.8,7.1-9.3c0.1-0.2,0.3-0.3,0.4-0.5c0.1-0.1,0.1-0.2,0.2-0.3c0,3.9,3.2,7,7.1,7
	c3.9,0,7.1-3.2,7.1-7.1c0,0,0,0,0-0.1c0,0,0,0,0-0.1c0-1.8-0.6-3.4-1.7-4.6c0,0,0,0,0,0c0,0,0,0,0,0c-0.7-0.8-1.6-1.5-2.6-1.9
	c-1.7-0.9-3.5-1.4-5.3-1.4c0,0-0.1,0-0.1,0c-0.4,0-0.7,0-1.1,0c-0.2,0-0.3,0-0.5,0c-0.2,0-0.3,0-0.5,0.1c-0.6,0.1-1.1,0.2-1.7,0.3
	c0,0,0,0,0,0c-0.2,0.1-0.5,0.1-0.7,0.2c0,0,0,0-0.1,0c-0.2,0.1-0.5,0.1-0.7,0.2c0,0-0.1,0-0.1,0c-0.2,0.1-0.5,0.2-0.7,0.2
	c0,0-0.1,0-0.1,0c-0.2,0.1-0.4,0.2-0.7,0.3c0,0,0,0-0.1,0c-1.2,0.5-2.3,1.2-3.4,1.9c0,0-0.1,0.1-0.1,0.1c-0.2,0.1-0.3,0.2-0.5,0.3
	c-0.1,0.1-0.2,0.1-0.2,0.2c-0.1,0.1-0.3,0.2-0.4,0.3c-0.1,0.1-0.2,0.1-0.3,0.2c-0.1,0.1-0.3,0.2-0.4,0.3c-0.1,0.1-0.2,0.2-0.3,0.2
	c-0.1,0.1-0.2,0.2-0.4,0.3c-0.1,0.1-0.2,0.2-0.3,0.3c-0.1,0.1-0.2,0.2-0.3,0.3c-0.1,0.1-0.2,0.2-0.3,0.3c-0.1,0.1-0.2,0.2-0.3,0.3
	c-0.1,0.1-0.2,0.2-0.3,0.3c-0.1,0.1-0.2,0.2-0.3,0.3c-0.1,0.1-0.2,0.2-0.3,0.3c-0.1,0.1-0.2,0.2-0.3,0.3c-0.1,0.1-0.2,0.2-0.3,0.3
	c-0.1,0.1-0.2,0.2-0.3,0.3c-0.1,0.1-0.2,0.2-0.2,0.3c-0.1,0.1-0.2,0.2-0.3,0.3c-5.5,7.1-12.2,14.2-12.2,14.2l0,0l0,0c0,0,0,0,0,0
	c0,0,0,0,0,0s0.1,0,0.3,0.1c-0.1,0.1-0.1,0.1-0.1,0.1s0,0,0,0c0,0,0,0,0,0l0,0l0,0c0,0,0.5,0.2,1.2,0.3c11.2,3.3,23.6,7.1,32.6,4
	c1.4-0.5,2.8-1,4-1.7c0,0,0,0,0,0c0.5-0.2,0.9-0.5,1.4-0.7c0.2-0.1,0.4-0.2,0.6-0.3c0.3-0.2,0.5-0.3,0.8-0.5
	c0.4-0.2,0.7-0.4,1.1-0.7c0.1,0,0.1-0.1,0.2-0.1c6.6-4.7,10-11.5,10.1-18.8c0,0,0,0,0,0c0,0,0,0,0-0.1c0,0,0,0,0,0v0
	C100,25.4,100,25.3,100,25.2C100,25.3,100,25.3,100,25.2L100,25.2z"/>
</svg>
