<?xml version="1.0" encoding="utf-8"?>
<!-- Generator: Adobe Illustrator 23.0.2, SVG Export Plug-In . SVG Version: 6.00 Build 0)  -->
<svg version="1.1" id="Layer_1" xmlns="http://www.w3.org/2000/svg" xmlns:xlink="http://www.w3.org/1999/xlink" x="0px" y="0px"
	 viewBox="0 0 100 100" style="enable-background:new 0 0 100 100;" xml:space="preserve">
<style type="text/css">
	.st0{fill:#2E1A47;}
</style>
<path class="st0" d="M33.3,99.5c-1.1,0-2.2-0.4-3-1.2l-21.1-21H4.2c-2.3,0-4.2-1.9-4.2-4.2V27.9c0-2.3,1.9-4.2,4.2-4.2h37.5
	c0.1-0.2,0.2-0.3,0.3-0.4L63.7,1.7c1.7-1.7,4.4-1.7,6,0l21.7,21.6c0.1,0.1,0.2,0.3,0.3,0.4h4.2c2.3,0,4.2,1.9,4.2,4.2v45.2
	c0,2.3-1.9,4.2-4.2,4.2H57.4l-21.1,21C35.5,99.1,34.4,99.5,33.3,99.5z M15,77.3l18.2,18.1c0.1,0.1,0.2,0.1,0.3,0l18.2-18.1h-3.4
	l-8.9,8.9c-0.8,0.8-2.1,0.8-2.8,0c-1.7-1.7-1.7-1.7-5,0.8c-0.8,0.6-1.9,0.5-2.6-0.2l-9.5-9.5H15z M25.1,77.3l5.4,5.4
	c2.3-1.6,4.5-2.6,7.3-0.7l4.7-4.7H25.1z M95.8,73.2c0.1,0,0.1-0.1,0.1-0.1V27.9c0-0.1-0.1-0.1-0.1-0.1h-16c0,0,0,0,0,0H4.2
	c-0.1,0-0.1,0.1-0.1,0.1v45.2c0,0.1,0.1,0.1,0.1,0.1H95.8z M80.7,23.7H86L66.8,4.6c-0.1-0.1-0.2-0.1-0.3,0L47.3,23.7h2.3l9.9-10.5
	c0.4-0.4,0.9-0.6,1.4-0.6c0.5,0,1.1,0.2,1.4,0.6c2,1.9,3.6,2,6.1,0.2c0.8-0.6,2-0.5,2.6,0.3L80.7,23.7z M55.2,23.7h19.9l-5.8-6.1
	c-2.9,1.5-5.6,1.5-8.2-0.2L55.2,23.7z M83.9,70.2H14.2c-1.1,0-2-0.9-2-2c0-2.5,0-2.5-4.3-3.1c-1-0.1-1.7-1-1.7-2V38.3
	c0-1,0.7-1.9,1.8-2c3.4-0.5,4.3-1.4,4.3-4.5c0-1.1,0.9-2,2-2h69.7c1.1,0,2,0.8,2,1.9c0.1,2.8,1.3,4,4.4,4.6c0.9,0.2,1.6,1,1.6,2
	v24.8c0,1-0.7,1.8-1.6,2c-2.7,0.5-4.3,2.3-4.4,3.3C85.8,69.4,84.9,70.2,83.9,70.2z M16,66.2h66.3c0.9-2,3-3.7,5.5-4.6V39.9
	c-3.2-1-5.1-3-5.8-6H16c-0.5,3.3-2.4,5.3-5.9,6.2v21.3C13,61.8,15.4,62.7,16,66.2z M49,63.1c-7,0-12.6-5.7-12.6-12.6
	S42,37.9,49,37.9c7,0,12.6,5.7,12.6,12.6S56,63.1,49,63.1z M49,41.9c-4.7,0-8.6,3.9-8.6,8.6s3.9,8.6,8.6,8.6c4.7,0,8.6-3.9,8.6-8.6
	S53.7,41.9,49,41.9z"/>
</svg>
