<?xml version="1.0" encoding="utf-8"?>
<!-- Generator: Adobe Illustrator 23.0.2, SVG Export Plug-In . SVG Version: 6.00 Build 0)  -->
<svg version="1.1" id="Layer_1" xmlns="http://www.w3.org/2000/svg" xmlns:xlink="http://www.w3.org/1999/xlink" x="0px" y="0px"
	 viewBox="0 0 100 100" style="enable-background:new 0 0 100 100;" xml:space="preserve">
<style type="text/css">
	.st0{fill:#2E1A47;}
</style>
<path class="st0" d="M54,88.6c-1.8,0-3.4-0.7-4.6-2.1l-1.2-1.3l-0.3,0.3c-1.2,1.3-2.8,2-4.4,2c0,0,0,0,0,0c-1.7,0-3.3-0.7-4.4-2
	l-0.2-0.3c-1.3-1.4-1.8-3.1-1.8-4.9c-0.9,0.4-1.8,0.6-2.8,0.6c-1.8,0-3.5-0.7-4.7-2l-0.3-0.3c-0.9-0.9-1.5-2-1.8-3.2
	c-1.6,0-3.3-0.7-4.5-1.9l-0.3-0.3c-1.2-1.2-1.9-2.8-1.9-4.5c-1.2-0.3-2.3-0.9-3.2-1.8l-0.3-0.3c-2.6-2.6-2.6-6.9,0-9.5l1.9-1.9
	L0.6,37.2c-0.4-0.4-0.6-1-0.6-1.6s0.2-1.1,0.7-1.5L21,14.2c0.8-0.8,2.2-0.8,3.1,0l8.5,8.4c3-0.6,11-1.8,19.1,0.6
	c0.6,0.2,1,0.6,1.3,1c3.7,0.6,7.2,2.4,9.1,3.5l15.2-15.7c0.4-0.4,1-0.7,1.5-0.7c0.6,0,1.1,0.2,1.6,0.6l19,19.1
	c0.8,0.8,0.8,2.2,0,3.1L76.9,57l0.1,0.1c0.5,0,1,0.2,1.3,0.6l4.5,4.4c1.3,1.3,2,2.9,2,4.7c0,1.8-0.7,3.4-2,4.7
	c-0.5,0.5-1.1,0.9-1.8,1.2c0.3,0.8,0.5,1.7,0.5,2.6c0,1.8-0.7,3.5-2,4.8c-1.8,1.8-4.4,2.4-6.8,1.7c-0.2,1.4-0.8,2.7-1.9,3.8
	c-1.3,1.3-2.9,2-4.7,2s-3.5-0.7-4.7-2l-1.2-1.2c-0.3,0.7-0.8,1.4-1.3,2C57.6,87.8,55.8,88.6,54,88.6C54,88.6,54,88.6,54,88.6z
	 M51.1,82l1.5,1.6c0.5,0.5,1,0.6,1.4,0.6l0,0c0.6,0,1.2-0.3,1.7-0.8c0.7-0.8,1-1.9,0.8-2.9L53.9,78c-0.4-0.4-0.6-0.9-0.6-1.3
	c0.1,1.7-0.5,3.5-1.8,4.8L51.1,82z M46.8,74.5L46.8,74.5c-0.5,0-0.9,0.2-1.2,0.6l-3.7,4c-0.8,0.9-0.8,2.4,0,3.3l0.2,0.3
	c0.3,0.4,0.8,0.6,1.2,0.6l0,0c0.5,0,0.9-0.2,1.2-0.6l1-1.1c0.1-0.5,0.3-1,0.7-1.4c0.3-0.3,0.7-0.5,1.1-0.5l0.9-1
	c0.8-0.9,0.8-2.4,0-3.3L48.1,75C47.7,74.7,47.3,74.5,46.8,74.5z M60.2,78.2l4.3,4.3c0.9,0.9,2.4,0.9,3.3,0c0.9-0.9,0.9-2.4,0-3.3
	l-7.5-7.5c-0.8-0.8-0.8-2.2,0-3.1c0.8-0.8,2.2-0.8,3.1,0l0.5,0.5c0.6-0.1,1.3,0.1,1.8,0.6L73,77c1,1,2.5,1,3.5,0
	c0.5-0.5,0.7-1.1,0.7-1.7c0-0.7-0.3-1.3-0.7-1.7L76,73c-1-0.3-1.9-0.8-2.6-1.6l-3.1-3c-0.5-0.5-0.7-1.1-0.6-1.8l-0.4-0.4
	c-0.8-0.8-0.8-2.2,0-3.1s2.2-0.8,3.1,0l5.9,5.9c0.6,0,1.2-0.2,1.7-0.7c0.4-0.4,0.7-1,0.7-1.6c0-0.6-0.2-1.2-0.7-1.6l-3.8-3.8
	c-0.5,0-1-0.2-1.4-0.6L53.1,39.3l-9.7,5.1c-1.8,0.9-3.9,1.1-5.8,0.5c-1.9-0.7-3.5-2.1-4.3-3.9c-1.5-3.4-0.3-7.5,2.9-9.4
	c2.8-1.7,5.4-3.5,7.7-5.3c-6.3-0.5-11.4,0.8-11.5,0.9c-0.7,0.2-1.5,0-2.1-0.6l-7.8-7.7L5.3,35.7l16.8,16.7l1-1
	c2.6-2.6,6.8-2.6,9.5,0l0.3,0.3c0.7,0.7,1.2,1.4,1.5,2.2c2.1-0.4,4.3,0.2,5.9,1.8c0,0,0,0,0,0l0.3,0.3c1.2,1.2,1.9,2.9,1.9,4.7
	c0,0.4,0,0.8-0.1,1.2c0.8,0.3,1.6,0.8,2.2,1.5l0.3,0.3c1.8,1.8,2.3,4.2,1.7,6.5c0.1,0,0.2,0,0.3,0c0,0,0,0,0,0c1.7,0,3.3,0.7,4.4,2
	c0,0,0,0,0,0l0.2,0.2c0.1-0.2,0.2-0.4,0.4-0.5c0.9-0.8,2.3-0.7,3.1,0.1l4.1,4.5C59.5,77,59.9,77.6,60.2,78.2z M31.5,74.2
	c0,0.5,0.3,1.1,0.7,1.5l0.3,0.3c0.9,0.9,2.4,0.9,3.3,0l5.9-5.9c0.4-0.4,0.7-1,0.7-1.7c0-0.6-0.2-1.2-0.7-1.7l-0.3-0.3
	c-0.4-0.4-0.9-0.6-1.4-0.7l-7.8,7.8C32,73.8,31.8,74,31.5,74.2z M25,68.4c0,0.1,0,0.2,0,0.3c0,0.6,0.2,1.2,0.7,1.6l0.3,0.3
	c0.5,0.5,1.2,0.7,1.9,0.6c0.3-0.7,0.8-1.3,1.3-1.9l5.9-5.9c0.8-0.8,1.7-1.3,2.7-1.7c0.2-0.3,0.2-0.7,0.2-1c0-0.6-0.2-1.2-0.7-1.6
	l-0.3-0.3c-0.7-0.7-1.8-0.8-2.6-0.4c-0.3,1-0.9,1.9-1.7,2.7l-5.9,5.9C26.3,67.6,25.7,68.1,25,68.4z M27.8,53.8
	c-0.6,0-1.2,0.2-1.7,0.7l-5.9,5.9c-0.9,0.9-0.9,2.4,0,3.3l0.3,0.3c0.4,0.4,0.9,0.6,1.5,0.7c0.2-0.2,0.4-0.5,0.6-0.7l7.8-7.8
	c-0.1-0.5-0.3-1-0.7-1.4l-0.3-0.3C29,54,28.5,53.8,27.8,53.8z M53.3,34.2c0.6,0,1.1,0.2,1.5,0.6l19,19l21-21.1l-15.9-16L64,32.1
	c-0.7,0.8-1.9,0.9-2.8,0.3c-2.7-1.8-10.5-6-14.4-2.9c-2.5,2-5.4,3.9-8.4,5.8c-1.3,0.8-1.8,2.5-1.2,3.9c0.3,0.8,1,1.3,1.8,1.6
	c0.8,0.3,1.6,0.2,2.3-0.2l10.1-5.3c0.1-0.1,0.2-0.2,0.3-0.3C52.1,34.5,52.7,34.2,53.3,34.2z"/>
</svg>
