<?xml version="1.0" encoding="utf-8"?>
<!-- Generator: Adobe Illustrator 23.0.2, SVG Export Plug-In . SVG Version: 6.00 Build 0)  -->
<svg version="1.1" id="Layer_1" xmlns="http://www.w3.org/2000/svg" xmlns:xlink="http://www.w3.org/1999/xlink" x="0px" y="0px"
	 viewBox="0 0 100 100" style="enable-background:new 0 0 100 100;" xml:space="preserve">
<style type="text/css">
	.st0{fill:#3B3B3B;}
</style>
<path class="st0" d="M64.8,100c-0.6,0-1.2-0.1-1.8-0.4l-13.6-6l-13.6,6c-1.4,0.6-2.9,0.5-4.1-0.3c-1.2-0.8-1.9-2.1-1.9-3.5V73
	c0,0,0,0,0,0c-1.8-1.3-2.5-3.6-3.2-5.5c-0.4-1.3-0.9-2.6-1.5-3.2c-0.6-0.6-1.9-1.1-3.2-1.5c-2.2-0.7-4.6-1.6-5.9-3.8
	c-1.3-2.2-0.8-4.7-0.3-6.9c0.3-1.4,0.5-2.8,0.3-3.6c-0.2-0.8-1.1-1.8-2-2.8c-1.5-1.7-3.3-3.7-3.3-6.3c0-2.6,1.7-4.6,3.3-6.3
	c0.9-1,1.8-2,2-2.8c0.2-0.9,0-2.3-0.3-3.6c-0.4-2.2-0.9-4.8,0.3-6.9c1.3-2.2,3.7-3,5.9-3.8c1.3-0.4,2.6-0.9,3.2-1.5
	c0.6-0.6,1.1-1.9,1.5-3.2c0.7-2.2,1.6-4.6,3.8-5.9C32.5,4,35,4.5,37.3,4.9c1.4,0.3,2.8,0.5,3.6,0.3c0.8-0.2,1.8-1.1,2.8-2
	C45.4,1.7,47.4,0,50,0c2.6,0,4.6,1.7,6.3,3.3c1,0.9,2,1.8,2.8,2c0.8,0.2,2.3,0,3.6-0.3C65,4.5,67.5,4,69.7,5.3
	c2.2,1.3,3,3.7,3.8,5.9c0.4,1.3,0.9,2.6,1.5,3.2c0.6,0.6,1.9,1.1,3.2,1.5c2.2,0.7,4.6,1.6,5.9,3.8c1.3,2.2,0.8,4.7,0.3,6.9
	c-0.3,1.4-0.5,2.8-0.3,3.6c0.2,0.8,1.1,1.8,2,2.8c1.5,1.7,3.3,3.7,3.3,6.3c0,2.6-1.7,4.6-3.3,6.3c-0.9,1-1.8,2-2,2.8
	c-0.2,0.9,0,2.3,0.3,3.6c0.4,2.2,0.9,4.8-0.3,6.9c-1.3,2.2-3.7,3-5.9,3.8c-1.3,0.4-2.6,0.9-3.2,1.5c-0.6,0.6-1.1,1.9-1.5,3.2
	c-0.7,2.2-1.6,4.6-3.8,5.9c-0.2,0.1-0.4,0.2-0.6,0.3v22.1c0,1.4-0.7,2.7-1.9,3.5C66.5,99.8,65.6,100,64.8,100z M49.4,89.1
	c0.6,0,1.2,0.1,1.8,0.4l13.4,5.9V74c-0.6-0.1-1.3-0.2-1.9-0.3c-1.4-0.3-2.8-0.5-3.6-0.3c-0.8,0.2-1.8,1.1-2.8,2
	c-1.7,1.5-3.7,3.3-6.3,3.3c-2.6,0-4.6-1.7-6.3-3.3c-1-0.9-2-1.8-2.8-2c-0.9-0.2-2.3,0-3.6,0.3c-1,0.2-2,0.4-3,0.5v21.2l13.4-5.9
	C48.2,89.2,48.8,89.1,49.4,89.1z M40.1,68.8c0.6,0,1.3,0.1,1.9,0.2c1.8,0.5,3.2,1.7,4.6,3c1.1,1,2.4,2.1,3.3,2.1
	c0.9,0,2.2-1.1,3.3-2.1c1.4-1.2,2.8-2.5,4.6-3c1.9-0.5,3.8-0.1,5.6,0.2c1.5,0.3,3.1,0.6,3.8,0.2c0.7-0.4,1.3-2,1.8-3.5
	c0.6-1.8,1.2-3.6,2.6-5c1.3-1.3,3.2-2,5-2.6c1.4-0.5,3-1,3.5-1.8c0.4-0.7,0.1-2.4-0.2-3.8c-0.4-1.9-0.7-3.8-0.2-5.6
	c0.5-1.8,1.7-3.2,3-4.6c1-1.1,2.1-2.4,2.1-3.3c0-0.9-1.1-2.2-2.1-3.3c-1.2-1.4-2.5-2.8-3-4.6c-0.5-1.9-0.1-3.8,0.2-5.6
	c0.3-1.5,0.6-3.1,0.2-3.8c-0.4-0.7-2-1.3-3.5-1.8c-1.8-0.6-3.6-1.2-5-2.6c-1.3-1.3-2-3.2-2.6-5c-0.5-1.4-1-3-1.8-3.5
	c-0.7-0.4-2.4-0.1-3.8,0.2c-1.9,0.4-3.8,0.7-5.6,0.2c-1.8-0.5-3.2-1.7-4.6-3c-1.1-1-2.4-2.1-3.3-2.1c-0.9,0-2.2,1.1-3.3,2.1
	c-1.4,1.2-2.8,2.5-4.6,3c-1.9,0.5-3.8,0.1-5.6-0.2c-1.5-0.3-3.1-0.6-3.8-0.2c-0.7,0.4-1.3,2-1.8,3.5c-0.6,1.8-1.2,3.6-2.6,5
	c-1.3,1.3-3.2,2-5,2.6c-1.4,0.5-3,1-3.5,1.8c-0.4,0.7-0.1,2.4,0.2,3.8c0.4,1.9,0.7,3.8,0.2,5.6c-0.5,1.8-1.7,3.2-3,4.6
	c-1,1.1-2.1,2.4-2.1,3.3c0,0.9,1.1,2.2,2.1,3.3c1.2,1.4,2.5,2.8,3,4.6c0.5,1.9,0.1,3.8-0.2,5.6c-0.3,1.5-0.6,3.1-0.2,3.8
	c0.4,0.7,2,1.3,3.5,1.8c1.8,0.6,3.6,1.2,5,2.6c1.3,1.3,2,3.2,2.6,5c0.5,1.4,1,3,1.8,3.5c0.7,0.4,2.4,0.1,3.8-0.2
	C37.6,69.1,38.9,68.8,40.1,68.8z M49.4,65.2C34.9,65.2,23,53.3,23,38.8s11.8-26.4,26.4-26.4c14.6,0,26.4,11.8,26.4,26.4
	S64,65.2,49.4,65.2z M49.4,16.9c-12.1,0-21.9,9.8-21.9,21.9s9.8,21.9,21.9,21.9c12.1,0,21.9-9.8,21.9-21.9S61.5,16.9,49.4,16.9z
	 M43.4,52.8c-0.9,0-1.7-0.3-2.5-0.8c-1.3-0.9-1.9-2.5-1.7-4.1l0.8-4.5l-3.3-3.2c-1.2-1.1-1.6-2.8-1.1-4.3c0.5-1.5,1.8-2.6,3.4-2.9
	l4.6-0.7l2.1-4.1c0.7-1.4,2.2-2.3,3.8-2.3c0,0,0,0,0,0c1.6,0,3.1,0.9,3.8,2.3v0l2.1,4.1l4.6,0.7c1.6,0.2,2.9,1.3,3.4,2.9
	c0.5,1.5,0.1,3.2-1.1,4.3l-3.3,3.2l0.8,4.5c0.3,1.6-0.4,3.2-1.7,4.1c-1.3,1-3,1.1-4.4,0.3l-4.1-2.2l-4.1,2.2
	C44.7,52.6,44,52.8,43.4,52.8z M49.4,45.6c0.7,0,1.3,0.2,1.9,0.5l3.7,2L54.4,44c-0.2-1.4,0.2-2.8,1.2-3.7l3-2.9l-4.2-0.6
	c-1.4-0.2-2.6-1.1-3.2-2.3l-1.9-3.8l-1.9,3.8c-0.6,1.2-1.8,2.1-3.2,2.3l-4.2,0.6l3,2.9c1,1,1.5,2.4,1.2,3.7l-0.7,4.1l3.7-2
	C48.1,45.8,48.8,45.6,49.4,45.6z M40.1,43.5C40.1,43.5,40.1,43.5,40.1,43.5L40.1,43.5z M59.2,37.4L59.2,37.4L59.2,37.4z M49.2,30.2
	C49.2,30.2,49.2,30.2,49.2,30.2C49.2,30.2,49.2,30.2,49.2,30.2z"/>
</svg>
