<?xml version="1.0" encoding="utf-8"?>
<!-- Generator: Adobe Illustrator 24.0.3, SVG Export Plug-In . SVG Version: 6.00 Build 0)  -->
<svg version="1.1" id="Capa_1" xmlns="http://www.w3.org/2000/svg" xmlns:xlink="http://www.w3.org/1999/xlink" x="0px" y="0px"
	 viewBox="0 0 512 512" style="enable-background:new 0 0 512 512;" xml:space="preserve">
<style type="text/css">
	.st0{fill:#2E1A47;}
</style>
<g>
	<g>
		<path class="st0" d="M457,331.7c-25.1,0-46.4,16.9-52.9,40H351v-58.6h54.2c58.9,0,106.8-47.9,106.8-106.8
			c0-47.2-31.3-88.7-75.8-102.2c-13.4-53.8-62-92.4-118.3-92.4c-21.8,0-42.7,5.6-61.1,16.4c-19.5-17.9-45.1-27.9-72-27.9
			c-57.7,0-104.8,46-106.7,103.2C32.4,116.3,0,158.1,0,206.4c0,58.9,47.9,106.8,106.8,106.8H161v58.6h-53.1
			c-6.5-23.1-27.8-40-52.9-40c-30.3,0-55,24.7-55,55s24.7,55,55,55c25.1,0,46.4-16.9,52.9-40H176c8.3,0,15-6.7,15-15v-73.6h50v90.7
			c-23.1,6.5-40,27.8-40,52.9c0,30.3,24.7,55,55,55s55-24.7,55-55c0-25.1-16.9-46.4-40-52.9v-90.7h50v73.6c0,8.3,6.7,15,15,15h68.1
			c6.5,23.1,27.8,40,52.9,40c30.3,0,55-24.7,55-55S487.3,331.7,457,331.7z M55,411.7c-13.8,0-25-11.2-25-25s11.2-25,25-25
			s25,11.2,25,25S68.8,411.7,55,411.7z M281,456.7c0,13.8-11.2,25-25,25s-25-11.2-25-25s11.2-25,25-25
			C269.8,431.7,281,442.9,281,456.7z M106.8,283.2c-42.3,0-76.8-34.4-76.8-76.8c0-37.8,28.2-70.5,65.6-76
			c7.9-1.2,13.5-8.3,12.8-16.2c-0.2-2.3-0.3-4.7-0.3-7.1c0-42.3,34.4-76.8,76.8-76.8c22.6,0,43.9,9.8,58.4,26.9c5.1,6,14,7,20.3,2.3
			c15.7-11.6,34.5-17.8,54.4-17.8c45.6,0,83.6,33.5,90.7,77c1,6.2,5.7,11.1,11.8,12.3c35.6,7.2,61.5,38.9,61.5,75.3
			c0,42.3-34.4,76.8-76.8,76.8L106.8,283.2L106.8,283.2z M457,411.7c-13.8,0-25-11.2-25-25s11.2-25,25-25s25,11.2,25,25
			S470.8,411.7,457,411.7z"/>
	</g>
</g>
</svg>
