<?xml version="1.0" encoding="utf-8"?>
<!-- Generator: Adobe Illustrator 21.0.0, SVG Export Plug-In . SVG Version: 6.00 Build 0)  -->
<svg version="1.1" id="Capa_1" xmlns="http://www.w3.org/2000/svg" xmlns:xlink="http://www.w3.org/1999/xlink" x="0px" y="0px"
	 viewBox="0 0 512 512" style="enable-background:new 0 0 512 512;" xml:space="preserve">
<path d="M511.9,268.8l-0.9-20.6c0-0.2,0-0.3,0-0.5l-2.4-56.6c0,0,0-0.1,0-0.1c-0.5-9-8.1-16.1-17.1-16.1c-5,0-9.8,1-14.2,2.9v-41
	c0-6.7-2.6-12.9-7.3-17.7c-4.7-4.7-11-7.3-17.7-7.3c-3.5,0-6.9,0.7-10,2.1v-8.9c0-13.8-11.2-25-25-25c-11.7,0-21.6,8.1-24.3,19.1
	c-3.2-1.5-6.9-2.4-10.7-2.4c0,0,0,0,0,0c-6.7,0-12.9,2.6-17.7,7.3c-4.2,4.2-6.7,9.6-7.2,15.4c-3.1-1.4-6.5-2.1-10.1-2.1
	c-2.3,0-4.6,0.3-6.8,0.9v-15.3c0-15.3-12.5-27.8-27.8-27.8c-4.6,0-9,1.1-12.8,3.1V65.8c0-7.4-2.9-14.4-8.2-19.7
	c-5.3-5.3-12.2-8.2-19.7-8.2h0c-7.4,0-14.4,2.9-19.7,8.2c-4,4-6.7,9.1-7.7,14.6c-3.9-2.2-8.5-3.4-13.3-3.4h0
	c-7.4,0-14.4,2.9-19.7,8.2c-5.1,5.1-8,11.8-8.1,19c-3.8-2-8.2-3.1-12.8-3.1c-15.3,0-27.8,12.5-27.8,27.8v58.6
	c-2.9,0.5-5.7,1.3-8.4,2.4v-41c0-13.8-11.2-25-25-25c-3.5,0-6.9,0.7-10,2.1v-8.9c0-13.8-11.2-25-25-25c-11.7,0-21.6,8.1-24.3,19.1
	c-3.2-1.5-6.9-2.4-10.7-2.4c-13,0-23.7,10-24.9,22.7c-3.1-1.4-6.5-2.1-10.1-2.1c-13.8,0-25,11.2-25,25v141.2
	c0,15.2,5.1,30.3,14.2,42.5l10.3,13.7v11.2c-16.9,7.3-20.5,16.4-20.5,22.8c0,6.5,3.6,15.6,20.5,22.8v77.5c0,4.1,3.4,7.5,7.5,7.5
	c4.1,0,7.5-3.4,7.5-7.5v-72.6c11.9,3,25.8,4.6,40.4,4.6c14.6,0,28.5-1.6,40.4-4.5v72.6c0,4.1,3.4,7.5,7.5,7.5c4.1,0,7.5-3.4,7.5-7.5
	V389c16.8-7.2,20.5-16.3,20.5-22.8c0-6.5-3.7-15.6-20.5-22.8v-5.2l15.4-5.5c9.3-3.3,16.8-10.1,21.1-19l0.9-1.8
	c2,3.6,4.2,7.2,6.7,10.5l12.3,16.2v36c0,0,0,0,0,0v92c0,4.1,3.4,7.5,7.5,7.5c4.1,0,7.5-3.4,7.5-7.5v-89.6c0,0,0,0,0,0v-41
	c0-1.6-0.5-3.2-1.5-4.5l-13.8-18.2c-8.6-11.3-13.3-25.4-13.3-39.6V109.2c0-7.1,5.8-12.8,12.8-12.8s12.8,5.8,12.8,12.8v95.5
	c-0.3,0.3-0.5,0.5-0.8,0.8c-15,15-15,39.3,0,54.3l39.5,39.5c2.5,2.5,5.9,3.9,9.5,3.9c3.6,0,7-1.4,9.5-3.9l39.5-39.5c0,0,0,0,0,0
	c2.8-2.8,5.1-6,6.8-9.3c2.7-0.5,5.5-0.8,8.3-0.8h8.4c4.1,0,7.5-3.4,7.5-7.5V190c0-14.6,11.9-26.5,26.5-26.5c1.9,0,3.6,1.5,3.7,3.4
	l3.8,90.3c0.4,8.7-1.5,17.5-5.3,25.4l-13.5,27.7c-3.2,6.5-8.7,11.5-15.5,13.9l-27.3,9.8h-39.2c-4.1,0-7.5,3.4-7.5,7.5
	c0,4.1,3.4,7.5,7.5,7.5h37.9v117.5c0,4.1,3.4,7.5,7.5,7.5c4.1,0,7.5-3.4,7.5-7.5V345.1l18.8-6.7c2.4-0.9,4.7-1.9,6.9-3.2l3.3,4.4
	v127c0,4.1,3.4,7.5,7.5,7.5c4.1,0,7.5-3.4,7.5-7.5V337c0-1.6-0.5-3.2-1.5-4.5l-5.3-7.1c2.1-2.6,4-5.5,5.5-8.6l13.3-27.5l16.9,16.9
	c2.5,2.5,5.7,3.7,8.9,3.7c3.2,0,6.4-1.2,8.9-3.7v0l34-33.9c2.4-2.4,4.3-5,5.8-7.8c2.1-0.4,4.3-0.6,6.5-0.6h7.2
	c4.1,0,7.5-3.4,7.5-7.5v-44.8c0-12,9.7-21.7,21.7-21.7c1.1,0,2,0.9,2.1,2l2.4,57c0,0.2,0,0.3,0,0.5l0.9,20.1
	c0.3,7.3-1.2,14.7-4.4,21.3L481,314.5c-2.6,5.3-7.1,9.4-12.7,11.4l-23.3,8.4h-33.5c-4.1,0-7.5,3.4-7.5,7.5c0,4.1,3.4,7.5,7.5,7.5
	h31.5v117.2c0,4.1,3.4,7.5,7.5,7.5c4.1,0,7.5-3.4,7.5-7.5V345.6l15.4-5.5c9.3-3.3,16.8-10.1,21.1-19l11.6-23.8
	C510.3,288.4,512.4,278.6,511.9,268.8z M24.6,372.1c-3.9-2.5-5.5-4.7-5.5-6c0-1.2,1.6-3.5,5.5-6V372.1z M119.8,129.3
	c0-5.5,4.5-10,10-10c5.5,0,10,4.5,10,10v52.6c-4.7,6.2-7.5,13.9-7.5,22.2v37.3c-0.7,0-1.4,0-2.1,0.1c0.2-9-3.1-18-9.9-24.8
	c-0.1-0.1-0.3-0.2-0.4-0.4C119.8,216.4,119.8,129.8,119.8,129.3z M84.9,97.4c0-5.5,4.5-10,10-10s10,4.5,10,10v110.5
	c-6.5-1.7-13.5-1.5-19.9,0.8V97.4z M49.9,114.1c0-5.5,4.5-10,10-10c5.5,0,10,4.5,10,10v94.6c-6.4-2.2-13.4-2.5-19.9-0.8V114.1z
	 M45.2,227.3c7.4-7.4,19.5-7.4,26.9,0c2.9,2.9,7.7,2.9,10.6,0c7.4-7.4,19.5-7.4,26.9,0c7.4,7.4,7.4,19.5,0,26.9l-32.2,32.2L45,254.2
	c-0.1-0.1-0.2-0.3-0.3-0.4C37.7,246.2,37.9,234.6,45.2,227.3z M140.9,366.1c0,1.3-1.6,3.5-5.5,6v-12
	C139.3,362.6,140.9,364.9,140.9,366.1z M158.4,307.1c-2.6,5.3-7.1,9.4-12.7,11.4l-23.3,8.4H88.9c-4.1,0-7.5,3.4-7.5,7.5
	c0,4.1,3.4,7.5,7.5,7.5h31.5v36.5c-11.3,3.3-25.4,5.1-40.4,5.1c-14.8,0-29.1-1.8-40.4-5.1v-48.8c0-1.6-0.5-3.2-1.5-4.5l-11.8-15.7
	C19,299.8,15,287.9,15,275.9V134.7c0-5.5,4.5-10,10-10c5.5,0,10,4.5,10,10v81.6c-0.1,0.1-0.3,0.2-0.4,0.4
	c-12.9,12.9-13.4,33.4-1.2,46.9c0.2,0.3,0.4,0.6,0.7,0.8l34.4,34.4c2.5,2.5,5.7,3.7,8.9,3.7c3.2,0,6.5-1.2,8.9-3.7l34-34
	c2.4-2.4,4.3-5,5.8-7.8c2.1-0.4,4.3-0.6,6.5-0.6h7.2c2,0,3.9-0.8,5.3-2.2c1.4-1.4,2.2-3.3,2.2-5.3v-44.8c0-10,6.7-18.4,15.9-20.9
	v90.4c0,6.4,0.8,12.8,2.3,19L158.4,307.1z M259.4,65.8c0-7.1,5.8-12.8,12.8-12.8c7.1,0,12.8,5.8,12.8,12.8V196
	c-8.4-2.6-17.5-2.2-25.7,1.1V65.8z M218.8,85.2L218.8,85.2c0-3.4,1.3-6.6,3.8-9.1c2.4-2.4,5.6-3.8,9.1-3.8c7.1,0,12.8,5.8,12.8,12.8
	v111.8c-8.2-3.3-17.3-3.6-25.7-1.1V85.2z M290.3,249.2l-38.4,38.4l-38.4-38.4c-9.1-9.1-9.1-24,0-33.1c4.6-4.6,10.5-6.8,16.5-6.8
	c6,0,12,2.3,16.5,6.8c2.9,2.9,7.7,2.9,10.6,0c9.1-9.1,24-9.1,33.1,0S299.4,240.1,290.3,249.2L290.3,249.2z M325.8,164.5
	c-5.5,7-8.7,15.8-8.7,25.4h0v44.7h-0.9c-1.4,0-2.7,0.1-4,0.2c0.6-10.5-3.1-21.2-11.2-29.3c-0.3-0.3-0.5-0.5-0.8-0.8V102.9
	c0-7.1,5.8-12.8,12.8-12.8s12.8,5.8,12.8,12.8V164.5z M357.5,148.5c-6,0.1-11.7,1.5-16.8,4v-17.5c1.9-1.7,4.3-2.7,6.8-2.7h0
	c5.5,0,10,4.5,10,10V148.5z M407.5,104.9c0-5.5,4.5-10,10-10c5.5,0,10,4.5,10,10v110.4c-2.8-0.7-5.7-1.1-8.7-1.1
	c-3.9,0-7.7,0.7-11.2,1.9V104.9z M377.2,166.2c0,0,0-0.1,0-0.1c-0.3-4.3-2-8.2-4.7-11.3c0,0,0-0.1,0-0.1v-33.1c0-5.5,4.5-10,10-10
	c5.5,0,10,4.5,10,10v94.6c-4.2-1.5-8.7-2.1-13.2-1.9L377.2,166.2z M432.2,261.7L400,294l-20.4-20.4c1.2-5.6,1.7-11.3,1.4-17
	l-1.2-27.3c5.4-0.4,10.9,1.6,14.8,5.5c2.9,2.9,7.7,2.9,10.6,0c3.6-3.6,8.4-5.6,13.5-5.6c5.1,0,9.9,2,13.5,5.6
	C439.6,242.2,439.6,254.3,432.2,261.7z M462.3,189.4c-4.7,6.2-7.5,13.9-7.5,22.2v37.3c-0.7,0-1.4,0-2.1,0.1c0.2-9-3.1-18-9.9-24.8
	c-0.1-0.1-0.3-0.2-0.4-0.4c0,0,0-86.6,0-87.1c0-5.5,4.5-10,10-10c2.7,0,5.2,1,7,2.9c1.9,1.9,2.9,4.4,2.9,7V189.4z"/>
</svg>
