<?xml version="1.0" encoding="utf-8"?>
<!-- Generator: Adobe Illustrator 21.0.0, SVG Export Plug-In . SVG Version: 6.00 Build 0)  -->
<svg version="1.1" id="Layer_1" xmlns="http://www.w3.org/2000/svg" xmlns:xlink="http://www.w3.org/1999/xlink" x="0px" y="0px"
	 viewBox="0 0 98.8 99" style="enable-background:new 0 0 98.8 99;" xml:space="preserve">
<style type="text/css">
	.st0{fill:#3B3B3B;}
</style>
<path class="st0" d="M37,99c-1.7,0-3.4-0.9-4.3-2.5L24,82.3l-0.3,0c-0.2,0-0.5,0-0.7,0c-1.8,0-3.3-0.6-4.5-1.8
	c-1.4-1.4-2-3.3-1.8-5.2l0-0.3L2.5,66.3c-2-1.2-2.8-3.4-2.2-5.7c0.7-2.3,2.6-3.7,4.9-3.7h21.2l11.1-11.1L2.3,25.5h0
	c-2-1.5-2.8-4.1-1.9-6.3C1.1,17.2,3,16,5.1,16c0.2,0,0.4,0,0.6,0l18.5,1.9l9.3-9.3c1.2-1.2,2.8-1.9,4.4-1.9s3.3,0.7,4.4,1.9l2,2
	c2.3,2.3,2.5,6.1,0.4,8.5l-0.6,0.7l16.4,1.7c0.1,0,0.2,0,0.2,0l0.4,0.4l0.3-0.4l18-17.8c2.3-2.3,5.3-3.6,8.6-3.7L94,0
	c1.4,0,2.5,0.5,3.4,1.4c0.9,0.9,1.4,2.2,1.4,3.4l-0.1,6.1c0,3.2-1.3,6.2-3.7,8.6l-18.7,19L78,53.7l0.7-0.7c1-0.9,2.5-1.5,4.1-1.5
	c1.7,0,3.3,0.7,4.4,1.9l2,2c1.2,1.2,1.9,2.8,1.9,4.4s-0.7,3.3-1.9,4.4L80,73.6l1.9,18.6c0.3,2.4-1,4.6-3.2,5.4
	c-0.6,0.3-1.3,0.4-1.9,0.4c-1.7,0-3.3-0.9-4.4-2.3c0,0,0,0,0,0v0L52.8,62L42,72.7v21.2c0,2.3-1.5,4.3-3.7,4.9
	C37.8,98.9,37.4,99,37,99z M36.3,77l-8.1,3.6l8.5,13.8h0.9V76.3L36.3,77z M56.2,58.5l20,34.6l0,0c0.1,0.1,0.2,0.2,0.3,0.2l0.1,0.1
	l0.9,0l0-0.7l-3.5-33.2l0-0.1c-0.2-0.5-0.2-0.9-0.2-1.1l-1.7-16L56.2,58.5z M21.7,77.4c0.1,0.1,0.4,0.4,0.7,0.5l0.3,0.1l0.2-0.2
	c0.2-0.2,0.3-0.3,0.5-0.4c0.4-0.3,0.8-0.4,1.3-0.4c0.1,0,0.3,0,0.4,0l0.1,0l9.1-4.1c1.3-0.6,2.4-1.3,3.3-2.2l0.1-0.1l0-0.1
	c0.3-0.5,0.7-0.9,1.2-1.2l0.1,0l53.1-53.1c1.5-1.5,2.3-3.4,2.3-5.5l0.1-6.4l-6.4,0.1c-2,0-4.1,0.9-5.5,2.4l-53,53l0,0.1
	c-0.3,0.5-0.7,0.9-1.2,1.2l-0.1,0l-0.1,0.1c-1,1-1.7,2-2.2,3.3L22,73.7l0,0.1c0.1,0.6,0,1.2-0.3,1.7c-0.1,0-0.1,0.2-0.2,0.3
	c-0.1,0.1-0.1,0.2-0.2,0.2L21,76.3l0.1,0.3C21.2,76.9,21.4,77.2,21.7,77.4z M5,61.3c-0.4,0-0.6,0.3-0.6,0.6v0.3l13.9,8.5l3.5-8
	l0.6-1.3L5,61.3z M82.6,56c-0.2,0-0.8,0-1.3,0.4l-2.8,3.1l0.8,8.3l6.6-6.6c0.4-0.4,0.4-1,0.4-1.3c0-0.6-0.3-1-0.5-1.3L84,56.5
	C83.6,56.2,83.2,56,82.6,56z M4.5,21c0,0.1,0,0.4,0.2,0.7l0,0l35.8,20.8l16.6-16.6L39.6,24c-0.4,0-0.8,0-1.1-0.1L4.5,20.2V21z
	 M37.9,11.3c-0.2,0-0.8,0-1.3,0.4l-6.5,6.7l8.3,0.8l3-3c0.3-0.3,0.5-0.8,0.5-1.3c0-0.5-0.3-0.9-0.6-1.3l-2-2
	C38.9,11.5,38.5,11.3,37.9,11.3z"/>
</svg>
