<?xml version="1.0" encoding="utf-8"?>
<!-- Generator: Adobe Illustrator 21.0.0, SVG Export Plug-In . SVG Version: 6.00 Build 0)  -->
<svg version="1.1" id="Layer_1" xmlns="http://www.w3.org/2000/svg" xmlns:xlink="http://www.w3.org/1999/xlink" x="0px" y="0px"
	 viewBox="0 0 99.9 94.8" style="enable-background:new 0 0 99.9 94.8;" xml:space="preserve">
<style type="text/css">
	.st0{fill:#3B3B3B;}
</style>
<path class="st0" d="M82.9,0c-9,0-16.3,7.4-16.3,16.4c0,9,7.3,16.3,16.3,16.3c9,0,16.4-7.4,16.4-16.4C99.3,7.2,92,0,82.9,0z
	 M82.9,28C76.3,28,71,22.7,71,16.2c0-6.5,5.3-11.7,11.8-11.7c6.5,0,11.8,5.3,11.8,11.8C94.7,22.9,89.5,28,82.9,28z"/>
<path class="st0" d="M70.8,34.5c-0.8-1.1-2.4-1.4-3.6-0.5L52.3,46l-19.3-8.1c-0.8-0.3-1.7-0.2-2.4,0.3L9.5,53.5
	c-1.2,0.8-1.4,2.4-0.7,3.4c0.4,0.7,1.2,1.2,2.1,1.2c0.5,0,1-0.2,1.5-0.5l20-14.5l19.4,8.1c0.8,0.3,1.8,0.2,2.5-0.3l16-12.8
	C71.4,37.4,71.7,35.6,70.8,34.5z"/>
<path class="st0" d="M99.4,91.5c-0.4-0.4-0.9-0.6-1.4-0.6h-6.4V49.4c0-1.1-0.9-1.9-2-1.9H75.8c-1.1,0-2,0.9-2,1.9v41.5h-4.1v-27
	c0-1.1-0.9-1.9-2-1.9H54c-1.1,0-2,0.9-2,1.9V91H48V61.7c0-1.1-0.9-1.9-2-1.9H32.3c-1.1,0-2,0.9-2,1.9v29.2h-4.1V70.2
	c0-1.1-0.9-1.9-2-1.9H10.5c-1.1,0-2,0.9-2,1.9v20.7H2c-1.1,0-2,0.9-2,1.9s0.9,1.9,2,1.9h95.9c1.1,0,2-0.9,2-1.9
	C99.9,92.4,99.8,91.9,99.4,91.5z M77.8,90.9V51.3h9.7v39.6H77.8z M56.1,90.9v-25h9.7v25H56.1z M34.3,90.9V63.6H44v27.3H34.3z
	 M12.5,90.9V72.2h9.7v18.7H12.5z"/>
<path class="st0" d="M88.1,18.4c-0.1-0.4-0.2-0.8-0.4-1.2c-0.2-0.5-0.7-0.9-1-1.3c-0.4-0.3-0.9-0.5-1.3-0.7
	c-0.3-0.1-0.5-0.2-0.8-0.3c-0.2-0.1-0.3-0.1-0.6-0.2l-1.2-0.4c-0.2-0.1-0.4-0.1-0.5-0.2c-0.1-0.1-0.3-0.1-0.4-0.2
	c-0.1-0.1-0.3-0.2-0.5-0.4c0,0-0.1-0.1-0.1-0.2c0,0,0-0.1,0-0.1c0,0,0-0.1,0.1-0.1l0.1-0.1c0.2-0.1,0.3-0.1,0.6-0.2
	c0.5-0.1,0.8-0.1,1.3-0.1c0.2,0,0.3,0,0.5,0.1l0.2,0c0,0,0.1,0,0.2,0c0.1,0,0.3,0.1,0.5,0.1c0,0,0.1,0,0.2,0c0.1,0,0.2,0,0.3,0.1
	c0.6,0.2,1.4,0,1.8-0.4c0.3-0.3,0.4-0.7,0.4-1.2c0-0.4-0.1-0.7-0.3-0.9l-0.1-0.1c-0.2-0.2-0.5-0.5-0.8-0.6c-0.4-0.2-1-0.3-1.4-0.4
	l-0.3,0c-0.1,0-0.2,0-0.4,0c0-0.4,0-1-0.6-1.2c-0.6-0.4-1.7-0.4-2.3,0.1l-0.1,0.1c-0.3,0.2-0.6,0.6-0.6,1v0.1c-0.1,0-0.2,0-0.3,0.1
	c-0.5,0.2-0.9,0.4-1.3,0.8c-0.4,0.3-0.6,0.6-0.8,0.9c-0.1,0.1-0.1,0.2-0.2,0.3L78,11.5c-0.2,0.6-0.3,1.1-0.3,1.7
	c0,0.7,0.1,1.3,0.4,1.7c0.3,0.5,0.6,1,0.9,1.1c0.4,0.4,0.8,0.6,1.2,0.8c0.3,0.2,0.6,0.3,0.9,0.4l0.4,0.2c0.2,0,0.4,0.1,0.5,0.2
	c0.2,0.1,0.4,0.2,0.7,0.2c0.3,0.1,0.6,0.2,1,0.4c0.1,0.1,0.3,0.2,0.4,0.2c0.1,0.1,0.2,0.1,0.3,0.2c0,0,0.1,0.1,0.1,0.1
	c0,0,0,0.1,0.1,0.1c0,0.1,0,0.1,0.1,0.2c0,0.1,0,0.1,0,0.2l0,0.1c-0.1,0.1-0.1,0.1-0.2,0.2c-0.2,0.1-0.4,0.2-0.6,0.3
	c-0.4,0.1-0.8,0.1-1.2,0.1c-0.3,0-0.5,0-0.7-0.1c-0.1,0-0.2-0.1-0.4-0.1c0,0-0.1,0-0.2,0c-0.1,0-0.2-0.1-0.3-0.1l-0.6-0.2
	c-0.5-0.1-1.3,0-1.8,0.4c-0.3,0.3-0.4,0.7-0.4,1.2c0,0.3,0.1,0.7,0.3,0.9l0.1,0.1c0.2,0.2,0.5,0.5,0.8,0.6c0.1,0.1,0.3,0.1,0.4,0.1
	c0.1,0,0.1,0,0.2,0.1c0.2,0.1,0.3,0.1,0.5,0.1c0.1,0,0.2,0,0.3,0.1l0.1,0v0.1c0,0.7,0.6,1.1,0.9,1.2c0.3,0.3,0.8,0.4,1.1,0.4
	c0.4,0,0.7-0.1,1-0.4c0.4-0.3,0.6-0.7,0.6-1.2v-0.1c0.3,0,0.6-0.1,0.8-0.2c0.5-0.2,1.1-0.4,1.5-0.9c0.6-0.4,1-0.9,1.1-1.3
	c0.3-0.5,0.5-1.1,0.5-1.9L88.1,18.4z"/>
</svg>
