<?xml version="1.0" encoding="utf-8"?>
<!-- Generator: Adobe Illustrator 21.0.0, SVG Export Plug-In . SVG Version: 6.00 Build 0)  -->
<svg version="1.1" id="Layer_1" xmlns="http://www.w3.org/2000/svg" xmlns:xlink="http://www.w3.org/1999/xlink" x="0px" y="0px"
	 viewBox="0 0 101.4 74.9" style="enable-background:new 0 0 101.4 74.9;" xml:space="preserve">
<style type="text/css">
	.st0{fill:#2E1A47;}
</style>
<path class="st0" d="M77.4,74.9c-1.1,0-2.1-1-2.1-2.1V61.5c0-1.7-1.1-3.3-2.8-3.9l-9.1-3.3l-3.7,5.5c-0.6,0.9-1.6,1.4-2.6,1.6
	l-0.4,0c-1,0-1.8-0.4-2.5-1.1l-1.4-1.4v13.8c0,1.1-1,2.1-2.1,2.1s-2.1-1-2.1-2.1V58.8l-1.4,1.4c-0.6,0.7-1.5,1.1-2.5,1.1h-0.3
	c-1.2-0.1-2.1-0.7-2.7-1.6L38,54.1l-9.1,3.3c-1.7,0.6-2.8,2.2-2.8,3.9v11.3c0,1.1-1,2.1-2.1,2.1s-2.1-1-2.1-2.1V61.4
	c0-1.4,0.3-2.7,1-3.9l-0.6-0.3l-1.4,1.3c-1.2,1.2-2.9,1.9-4.6,1.9c-1.7,0-3.3-0.7-4.6-1.9l-1.4-1.3l-4.5,2.3
	c-0.9,0.5-1.5,1.4-1.5,2.4v10.9c0,1.1-1,2.1-2.1,2.1S0,73.9,0,72.8V61.9c0-2.6,1.4-4.9,3.7-6.1l2.8-1.4c-2-1.1-3.7-2.5-4.7-4.1
	l-0.1-0.1l0-0.1c-0.3-0.6-0.3-1.3,0-1.8c1-1.9,1.1-5.6,1.2-8.6l0-0.2c0-0.5,0-1,0.1-1.5c0-0.5,0-0.9,0-1.3c0.5-7.3,6.1-12.9,13.1-13
	c6.9,0,12.5,5.6,13,13c0,0.5,0,0.9,0,1.4c0,0.5,0.1,1,0.1,1.6l0,0.2c0.1,3,0.2,6.7,1.2,8.6c0.3,0.6,0.3,1.3,0,1.8
	c-0.2,0.4-1.1,1.9-3.2,3.4c0.1,0,0.2-0.1,0.2-0.1l8.6-3.2c0.1-0.4,0.3-0.8,0.5-1.1l2.5-2.7v-4.4c-4-3.5-6.3-8.6-6.3-14v-3.2
	c-1.1-2.2-1.6-4.6-1.6-7.2v-3.1C31.3,6.6,37.8,0,45.9,0h21.9c1.1,0,2.1,1,2.1,2.1v15.8c0,2.3-0.5,4.7-1.6,7.2v3.8
	c0,4.9-2,9.6-5.6,12.9c-0.1,0.2-0.4,0.4-0.6,0.6v4.3l2.5,2.7c0.3,0.3,0.5,0.6,0.5,1.1l7.9,2.7l2.8-0.8c0.5-0.1,0.7-0.2,0.8-0.2
	l0-1.8c-2.9-2.3-4.7-5.9-4.7-9.6v-2.3l-0.6-1.4c-0.6-1.2-0.9-2.5-0.9-3.8v-0.1c0-5.5,4.4-9.9,9.9-9.9h14.1c1.1,0,2.1,1,2.1,2.1v7.6
	c0,1.5-0.3,2.9-1.1,4.5l-0.5,1.1v2.7c0,3.1-1.2,5.9-3.5,8.2c-0.3,0.4-0.7,0.8-1.2,1.1v1.7l6.1,1.7c2.9,0.9,4.9,3.4,5.1,6.5l0,12
	c0,1.1-1,2.1-2.1,2.1s-2.1-1-2.1-2.1V60.5c0-1.2-0.8-2.2-1.9-2.5l-5.9-1.7c-0.1,0-0.3,0-0.4-0.1l-3.2,3.2v13.2c0,1.1-1,2.1-2.1,2.1
	s-2.1-1-2.1-2.1V59.4l-3.2-3.2c-0.2,0.1-0.4,0.2-0.6,0.2c1.1,1.4,1.7,3.2,1.7,5.1v11.4C79.5,73.9,78.5,74.9,77.4,74.9z M56.5,57
	l3.9-6l-0.8-0.8l-5.9,4L56.5,57z M44.7,57l2.7-2.8l-5.9-4L40.7,51L44.7,57z M14.3,55.6c0.5,0.5,1.2,0.7,1.9,0.7
	c0.7,0,1.3-0.3,1.8-0.7l1.1-1c-0.2-0.4-0.2-0.8-0.2-1.3v-0.8c-0.9,0.2-1.8,0.3-2.6,0.3c-0.8,0-1.7-0.1-2.6-0.3v0.8
	c0,0.4-0.1,0.8-0.3,1.3L14.3,55.6z M83.5,55.7l2.6-2.6c0-0.2,0-0.4,0-0.5c-0.9,0.2-1.8,0.3-2.6,0.3h-0.3c-0.7,0-1.5-0.1-2.3-0.3
	c0,0.2,0,0.3,0,0.5L83.5,55.7z M50.6,51.4l7.4-4.9V45c-2.3,1-4.8,1.6-7.3,1.6h-1.2c-2.2-0.2-4.2-0.7-6.2-1.6v1.4L50.6,51.4z
	 M22.9,51.2c1.7-0.8,2.8-1.6,3.4-2.4c-0.2-0.5-0.3-1-0.4-1.5c-0.8,1.2-1.8,2.3-3,3.2V51.2z M6,48.9c0.6,0.6,1.6,1.5,3.4,2.2v-0.5
	c-1.2-0.9-2.2-2-3-3.2C6.3,47.9,6.2,48.4,6,48.9z M7.2,39.2c1,0.2,1.7,1.1,1.7,2.1c0,4.1,3.3,7.4,7.3,7.4c3.5,0,6.6-2.6,7.3-6.2
	c-2.2-4.5-7.5-5.3-9.5-5.5l-2,2.1c-0.5,0.4-1,0.6-1.5,0.6c-0.5,0-1-0.2-1.4-0.6c-0.8-0.9-0.8-2.2,0-2.9l2.6-2.7l0.1,0
	c0.3-0.2,0.8-0.5,1.3-0.5c0.3,0,2.9,0,5.8,0.9c2.6,0.8,4.8,2.2,6.4,4.1c0-0.4,0-0.9-0.1-1.2c-0.2-2.4-1.2-4.7-2.8-6.5
	c-1.6-1.7-3.7-2.6-6.1-2.6c-2.3,0-4.5,1-6.1,2.6c-1.6,1.5-2.6,3.8-2.8,6.4c0,0.3,0,0.8,0,1.2C7.2,38.3,7.2,38.8,7.2,39.2z
	 M80.3,27.6c-3.1,0-5.8,2.7-5.8,5.8v0.1c0,0.6,0.1,1.2,0.5,2l0.9,1.8c0,0.1,0.3,0.5,0.3,1v2.7c0,4.1,3.3,7.6,7.1,7.7
	c0.1,0,0.2,0,0.4,0c1.9,0,3.6-0.7,5-2c1.4-1.4,2.2-3.3,2.2-5.3v-3.1c0-0.4,0.2-0.7,0.3-1l0.6-1.5c0.4-0.8,0.7-1.7,0.7-2.7v-5.5H80.3
	z M46,4.2c-5.8,0-10.5,4.7-10.5,10.5v3.1c0,2,0.4,3.9,1.3,6l0.1,0.1V24c0,0,0,0.1,0,0.2c0,0.1,0.1,0.3,0.1,0.4v3.6
	c0,7.5,5.7,13.7,12.9,14.2c0.4,0,0.8,0.1,1.2,0.1c2.9,0,5.6-0.9,7.9-2.7c0.2-0.1,0.3-0.3,0.5-0.5c0.2-0.2,0.4-0.4,0.6-0.6
	c2.7-2.5,4.3-6.1,4.3-9.9v-4.2c0-0.2,0-0.5,0.2-0.9c0.9-2,1.3-4,1.3-5.9V4.2H46z"/>
</svg>
