<?xml version="1.0" encoding="utf-8"?>
<!-- Generator: Adobe Illustrator 23.0.2, SVG Export Plug-In . SVG Version: 6.00 Build 0)  -->
<svg version="1.1" id="Layer_1" xmlns="http://www.w3.org/2000/svg" xmlns:xlink="http://www.w3.org/1999/xlink" x="0px" y="0px"
	 viewBox="0 0 100 100" style="enable-background:new 0 0 100 100;" xml:space="preserve">
<style type="text/css">
	.st0{fill:#2E1A47;}
</style>
<path class="st0" d="M42.9,21.1c0.5,0.4,1.1,0.8,1.7,1.1c0.6,0.3,1.2,0.5,1.9,0.7c0.6,0.2,1.3,0.4,1.9,0.6c0.6,0.2,1.2,0.4,1.8,0.6
	c0.3,0.1,0.6,0.3,0.9,0.4c0.2,0.1,0.4,0.3,0.6,0.4c0.1,0.1,0.2,0.3,0.3,0.5c0.1,0.2,0.1,0.4,0.1,0.6c0,0.3-0.1,0.6-0.2,0.8
	c-0.2,0.3-0.4,0.5-0.7,0.7c-0.3,0.2-0.7,0.4-1.1,0.5c-1,0.2-2.1,0.2-2.9,0.1c-0.4,0-0.8-0.1-1.1-0.2c-0.3-0.1-0.6-0.2-0.9-0.2
	l-1-0.3c-0.7-0.2-1.6,0-2,0.5c-0.3,0.4-0.5,0.8-0.5,1.3c0,0.4,0.1,0.8,0.4,1.1c0.2,0.4,0.6,0.6,1.1,0.8c0.3,0.1,0.6,0.2,1,0.3
	c0.4,0.1,0.8,0.2,1.2,0.3c0.4,0.1,0.4,0.2,0.8,0.2c0.1,0-0.1,0-0.1,0.1v0.8c0,0.7,0.8,1.1,1.1,1.4c0.3,0.3,1,0.4,1.4,0.4
	c0.4,0,0.8-0.1,1.1-0.4c0.4-0.3,0.6-0.8,0.6-1.4v-0.8c0-0.1,1.2-0.2,1.8-0.4c0.8-0.3,1.7-0.7,2.3-1.2c0.7-0.5,1.2-1.2,1.6-1.9
	c0.4-0.8,0.6-1.6,0.6-2.6c0-1-0.2-1.8-0.6-2.5c-0.4-0.7-0.9-1.3-1.5-1.7c-0.6-0.4-1.2-0.8-2-1.1c-0.7-0.3-1.4-0.5-2-0.7l-2-0.6
	c-0.6-0.2-1.1-0.4-1.5-0.7c-0.4-0.2-0.7-0.5-0.9-0.8c-0.2-0.2-0.3-0.5-0.3-0.9c0-0.3,0.1-0.4,0.2-0.6c0.2-0.2,0.4-0.4,0.7-0.6
	c0.3-0.2,0.7-0.3,1.1-0.4c0.7-0.2,1.4-0.2,2.2-0.1c0.3,0,0.7,0.1,1.1,0.1c0.4,0.1,0.7,0.1,1.1,0.2c0.4,0.1,0.7,0.2,0.9,0.2
	c0.7,0.2,1.6,0.1,2-0.5c0.3-0.4,0.5-0.8,0.5-1.3c0-0.4-0.1-0.8-0.3-1.1c-0.3-0.4-0.6-0.7-1-0.8c-0.7-0.3-1.6-0.5-2.4-0.6
	c-0.4-0.1-1.4-0.1-1.4-0.2v-0.6c0-0.6-0.1-1.1-0.5-1.4c-0.7-0.5-2-0.5-2.7,0c-0.4,0.3-1,0.8-1,1.4v0.7c0,0.1-0.5,0.2-1,0.4
	c-0.8,0.3-1.3,0.7-1.9,1.2c-0.6,0.5-1,1.1-1.4,1.8c-0.4,0.7-0.5,1.6-0.5,2.5c0,0.9,0.2,1.7,0.5,2.4C42,20.1,42.4,20.7,42.9,21.1z"/>
<path class="st0" d="M72,38.2L62.2,39c-1.3,0.1-2.3,1.2-2.2,2.5c0.1,1.3,1.2,2.3,2.5,2.2l2.9-0.2L49.4,59.1l-11.2-9
	c-0.9-0.8-2.3-0.7-3.1,0.2L24.2,61.3c-0.9,0.9-0.9,2.4,0,3.3c0.5,0.5,1.1,0.7,1.7,0.7c0.6,0,1.2-0.2,1.7-0.7l9.4-9.4l11.1,8.9
	c0.9,0.7,2.3,0.7,3.1-0.1l19-18.5l0.4,4.8c0.1,1.2,1.1,2.2,2.3,2.2c0.1,0,0.1,0,0.2,0c1.3-0.1,2.3-1.2,2.2-2.5l-0.8-9.4
	C74.4,39.1,73.3,38.1,72,38.2z"/>
<path class="st0" d="M95.6,72.4h-1.5V21.5c0-2.4-2-4.4-4.4-4.4H68.9C66.7,7.6,58.3,0.6,48.2,0.6S29.8,7.6,27.6,17.1H9.1
	c-2.4,0-4.4,2-4.4,4.4v50.9H4.4C2,72.4,0,74.3,0,76.7v5.4c0,2.4,2,4.3,4.4,4.3H36l-5.2,9.5c-0.6,1.1-0.2,2.6,0.9,3.2
	c0.4,0.2,0.7,0.3,1.1,0.3c0.8,0,1.6-0.4,2.1-1.2l6.4-11.7h6.2v10.6c0,1.3,1.1,2.4,2.4,2.4s2.4-1.1,2.4-2.4V86.5h7.4l6.4,11.7
	c0.4,0.8,1.2,1.2,2.1,1.2c0.4,0,0.8-0.1,1.1-0.3c1.1-0.6,1.6-2.1,0.9-3.2l-5.2-9.5h30.4c2.4,0,4.4-1.9,4.4-4.3v-5.4
	C100,74.3,98,72.4,95.6,72.4z M48.2,5.3c9.1,0,16.5,7.4,16.5,16.5c0,9.1-7.4,16.5-16.5,16.5s-16.5-7.4-16.5-16.5
	C31.8,12.7,39.2,5.3,48.2,5.3z M9.4,21.8h17.6c0,11.7,9.5,21.2,21.2,21.2s21.2-9.5,21.2-21.2h20v50.6h-80V21.8z M95.3,81.8H4.7v-4.7
	h2.4h84.7h3.5V81.8z"/>
</svg>
