<?xml version="1.0" encoding="utf-8"?>
<!-- Generator: Adobe Illustrator 23.0.2, SVG Export Plug-In . SVG Version: 6.00 Build 0)  -->
<svg version="1.1" id="Layer_1" xmlns="http://www.w3.org/2000/svg" xmlns:xlink="http://www.w3.org/1999/xlink" x="0px" y="0px"
	 viewBox="0 0 100 100" style="enable-background:new 0 0 100 100;" xml:space="preserve">
<style type="text/css">
	.st0{fill:#2E1A47;}
</style>
<path class="st0" d="M82.4,96.5H17.6C7.9,96.5,0,88.7,0,79.1c0-9.6,7.9-17.4,17.6-17.4h64.7c9.7,0,17.6,7.8,17.6,17.4
	C100,88.7,92.1,96.5,82.4,96.5z M17.6,66.3c-7.2,0-13,5.7-13,12.8c0,7.1,5.8,12.8,13,12.8h64.7c7.2,0,13-5.7,13-12.8
	c0-7.1-5.8-12.8-13-12.8H17.6z M41.3,84.9c-3.5,0-6.4-2.9-6.4-6.4c0-3.5,2.9-6.4,6.4-6.4c3.5,0,6.4,2.9,6.4,6.4
	C47.7,82,44.8,84.9,41.3,84.9z M41.3,76.7c-1,0-1.7,0.8-1.7,1.7c0,1,0.8,1.7,1.7,1.7c1,0,1.7-0.8,1.7-1.7
	C43,77.5,42.2,76.7,41.3,76.7z M22.7,84.9c-3.5,0-6.4-2.9-6.4-6.4c0-3.5,2.9-6.4,6.4-6.4c3.5,0,6.4,2.9,6.4,6.4
	C29.1,82,26.2,84.9,22.7,84.9z M22.7,76.7c-1,0-1.7,0.8-1.7,1.7c0,1,0.8,1.7,1.7,1.7c1,0,1.7-0.8,1.7-1.7
	C24.4,77.5,23.6,76.7,22.7,76.7z M69.8,65.1c-1.3,0-2.3-1-2.3-2.3V25.6c0-1.3,1-2.3,2.3-2.3s2.3,1,2.3,2.3v37.2
	C72.1,64.1,71.1,65.1,69.8,65.1z M79.1,22.1c-0.7,0-1.4-0.3-1.9-0.9c-1.1-1.5-4.3-2.6-7.5-2.6c-3.1,0-6.3,1-7.4,2.5
	c-0.8,1-2.3,1.1-3.3,0.3c-1-0.8-1.1-2.3-0.3-3.3c2.5-3.1,7.5-4.1,11-4.1c3.6,0,8.8,1.2,11.2,4.4c0.8,1,0.6,2.5-0.5,3.3
	C80.1,21.9,79.6,22.1,79.1,22.1z M84.9,15.1c-0.8,0-1.5-0.4-2-1.1c-2.1-3.5-7.6-5.9-13.3-5.9c-5.5,0-10.8,2.3-13.1,5.6
	c-0.7,1.1-2.2,1.3-3.2,0.6c-1.1-0.7-1.3-2.2-0.6-3.2c3.1-4.6,9.8-7.6,16.9-7.6c6.1,0,13.8,2.5,17.2,8.1c0.7,1.1,0.3,2.5-0.8,3.2
	C85.7,15,85.3,15.1,84.9,15.1z"/>
</svg>
