<?xml version="1.0" encoding="utf-8"?>
<!-- Generator: Adobe Illustrator 23.0.2, SVG Export Plug-In . SVG Version: 6.00 Build 0)  -->
<svg version="1.1" id="Layer_1" xmlns="http://www.w3.org/2000/svg" xmlns:xlink="http://www.w3.org/1999/xlink" x="0px" y="0px"
	 viewBox="0 0 100 100" style="enable-background:new 0 0 100 100;" xml:space="preserve">
<style type="text/css">
	.st0{clip-path:url(#XMLID_2_);fill:#2E1A47;}
	.st1{fill-rule:evenodd;clip-rule:evenodd;fill:#2E1A47;}
	.st2{clip-path:url(#XMLID_3_);fill:#2E1A47;}
	.st3{clip-path:url(#XMLID_4_);fill:#2E1A47;}
	.st4{clip-path:url(#XMLID_5_);fill:#2E1A47;}
	.st5{clip-path:url(#XMLID_6_);fill:#2E1A47;}
	.st6{clip-path:url(#XMLID_7_);fill:#2E1A47;}
	.st7{clip-path:url(#XMLID_8_);fill:#2E1A47;}
</style>
<g id="XMLID_171_">
	<g id="XMLID_163_">
		<defs>
			<path id="XMLID_164_" d="M12.1,32.5c-0.4-0.4-0.9-0.6-1.5-0.6c-0.6,0-1.1,0.2-1.5,0.6c-0.4,0.4-0.6,0.9-0.6,1.5
				c0,0.6,0.2,1.1,0.6,1.5c0.4,0.4,0.9,0.6,1.5,0.6c0.6,0,1.1-0.2,1.5-0.6c0.4-0.4,0.6-0.9,0.6-1.5C12.8,33.5,12.5,32.9,12.1,32.5"
				/>
		</defs>
		<use xlink:href="#XMLID_164_"  style="overflow:visible;fill-rule:evenodd;clip-rule:evenodd;fill:#2E1A47;"/>
		<clipPath id="XMLID_2_">
			<use xlink:href="#XMLID_164_"  style="overflow:visible;"/>
		</clipPath>
		<rect id="XMLID_165_" x="3.2" y="26.6" class="st0" width="14.9" height="14.9"/>
	</g>
	<path id="XMLID_162_" class="st1" d="M85.6,0H46c-1.1,0-2,0.9-2,2c0,1.1,0.9,2,2,2h39.6c1.1,0,2,0.9,2,2v88.3c0,1.1-0.9,2-2,2H14.4
		c-1.1,0-2-0.9-2-2V41.9c0-1.1-0.9-2-2-2c-1.1,0-2,0.9-2,2v52.3c0,3.2,2.6,5.9,5.9,5.9h71.2c3.2,0,5.9-2.6,5.9-5.9V5.9
		C91.5,2.6,88.9,0,85.6,0"/>
	<g id="XMLID_155_">
		<defs>
			<path id="XMLID_156_" d="M50.4,55.7c-5.3,0-10.3-1.9-14.1-5c2.6-5.3,8.1-8.7,14.1-8.7c6.1,0,11.5,3.4,14.1,8.7
				C60.6,53.8,55.7,55.7,50.4,55.7L50.4,55.7L50.4,55.7z M44.6,30.4c0-3.1,2.6-5.7,5.7-5.7c3.2,0,5.7,2.5,5.7,5.7v1.9
				c0,3.1-2.6,5.7-5.7,5.7c-3.2,0-5.7-2.5-5.7-5.7V30.4L44.6,30.4z M50.4,7.4c-1.3,0-2.7,0.1-4,0.3c-1.1,0.2-1.8,1.2-1.7,2.2
				c0.2,1.1,1.2,1.8,2.2,1.6c1.1-0.2,2.3-0.3,3.4-0.3c12.3,0,22.3,9.9,22.3,22.1c0,5.4-2,10.4-5.2,14.2c-1.4-2.5-3.4-4.6-5.8-6.3
				c-1.4-1-2.9-1.7-4.5-2.3c1.8-1.7,2.9-4.2,2.9-6.9v-1.9c0-5.3-4.3-9.6-9.7-9.6c-5.3,0-9.7,4.3-9.7,9.6v1.9c0,2.7,1.1,5.1,2.9,6.9
				c-1.6,0.6-3.1,1.3-4.5,2.3c-2.4,1.7-4.4,3.8-5.8,6.3c-2.5-2.9-4.2-6.6-4.9-10.6c-0.2-1.1-1.2-1.8-2.3-1.6
				c-1.1,0.2-1.8,1.2-1.6,2.3c1,6,4.2,11.5,8.8,15.5c4.7,4,10.8,6.2,17,6.2c14.5,0,26.2-11.7,26.2-26.1C76.6,19.1,64.8,7.4,50.4,7.4
				L50.4,7.4L50.4,7.4z"/>
		</defs>
		<use xlink:href="#XMLID_156_"  style="overflow:visible;fill-rule:evenodd;clip-rule:evenodd;fill:#2E1A47;"/>
		<clipPath id="XMLID_3_">
			<use xlink:href="#XMLID_156_"  style="overflow:visible;"/>
		</clipPath>
		<rect id="XMLID_160_" x="19.1" y="2.1" class="st2" width="62.8" height="62.8"/>
	</g>
	<g id="XMLID_151_">
		<defs>
			<path id="XMLID_152_" d="M68.2,77.7h-28c-1.1,0-2,1-2,2.1c0,1.2,0.9,2.1,2,2.1h28c1.1,0,2-1,2-2.1C70.2,78.6,69.3,77.7,68.2,77.7
				"/>
		</defs>
		<use xlink:href="#XMLID_152_"  style="overflow:visible;fill-rule:evenodd;clip-rule:evenodd;fill:#2E1A47;"/>
		<clipPath id="XMLID_4_">
			<use xlink:href="#XMLID_152_"  style="overflow:visible;"/>
		</clipPath>
		<rect id="XMLID_153_" x="33" y="72.3" class="st3" width="42.6" height="14.9"/>
	</g>
	<g id="XMLID_147_">
		<defs>
			<path id="XMLID_148_" d="M33.4,67.6C33,67.2,32.5,67,31.9,67c-0.6,0-1.1,0.2-1.5,0.6c-0.4,0.4-0.6,0.9-0.6,1.5
				c0,0.6,0.2,1.1,0.6,1.5c0.4,0.4,0.9,0.6,1.5,0.6c0.6,0,1.1-0.2,1.5-0.6c0.4-0.4,0.6-0.9,0.6-1.5C34,68.6,33.8,68,33.4,67.6"/>
		</defs>
		<use xlink:href="#XMLID_148_"  style="overflow:visible;fill-rule:evenodd;clip-rule:evenodd;fill:#2E1A47;"/>
		<clipPath id="XMLID_5_">
			<use xlink:href="#XMLID_148_"  style="overflow:visible;"/>
		</clipPath>
		<rect id="XMLID_149_" x="24.5" y="61.7" class="st4" width="14.9" height="14.9"/>
	</g>
	<g id="XMLID_143_">
		<defs>
			<path id="XMLID_144_" d="M33.4,78.3c-0.4-0.4-0.9-0.6-1.5-0.6c-0.6,0-1.1,0.2-1.5,0.6c-0.4,0.4-0.6,0.9-0.6,1.5
				c0,0.6,0.2,1.1,0.6,1.5c0.4,0.4,0.9,0.6,1.5,0.6c0.6,0,1.1-0.2,1.5-0.6c0.4-0.4,0.6-0.9,0.6-1.5C34,79.2,33.8,78.7,33.4,78.3"/>
		</defs>
		<use xlink:href="#XMLID_144_"  style="overflow:visible;fill-rule:evenodd;clip-rule:evenodd;fill:#2E1A47;"/>
		<clipPath id="XMLID_6_">
			<use xlink:href="#XMLID_144_"  style="overflow:visible;"/>
		</clipPath>
		<rect id="XMLID_145_" x="24.5" y="72.3" class="st5" width="14.9" height="14.9"/>
	</g>
	<g id="XMLID_139_">
		<defs>
			<path id="XMLID_140_" d="M68.2,67h-28c-1.1,0-2,1-2,2.1c0,1.2,0.9,2.1,2,2.1h28c1.1,0,2-1,2-2.1C70.2,68,69.3,67,68.2,67"/>
		</defs>
		<use xlink:href="#XMLID_140_"  style="overflow:visible;fill-rule:evenodd;clip-rule:evenodd;fill:#2E1A47;"/>
		<clipPath id="XMLID_7_">
			<use xlink:href="#XMLID_140_"  style="overflow:visible;"/>
		</clipPath>
		<rect id="XMLID_141_" x="33" y="61.7" class="st6" width="42.6" height="14.9"/>
	</g>
	<g id="XMLID_135_">
		<defs>
			<path id="XMLID_136_" d="M31.4,11.2c-0.7-0.8-2-0.8-2.7,0l-6.2,6.4l-2.1-2.2c-0.7-0.8-2-0.8-2.7,0c-0.7,0.8-0.7,2,0,2.8l3.5,3.6
				c0.4,0.4,0.9,0.6,1.4,0.6c0.5,0,1-0.2,1.4-0.6l7.6-7.8C32.1,13.2,32.1,12,31.4,11.2"/>
		</defs>
		<use xlink:href="#XMLID_136_"  style="overflow:visible;fill-rule:evenodd;clip-rule:evenodd;fill:#2E1A47;"/>
		<clipPath id="XMLID_8_">
			<use xlink:href="#XMLID_136_"  style="overflow:visible;"/>
		</clipPath>
		<rect id="XMLID_137_" x="11.7" y="5.3" class="st7" width="25.5" height="22.3"/>
	</g>
	<path id="XMLID_130_" class="st1" d="M24.5,28c-6.7,0-12.1-5.4-12.1-12.1c0-6.7,5.4-12.1,12.1-12.1c6.7,0,12.1,5.4,12.1,12.1
		C36.5,22.6,31.1,28,24.5,28 M24.5,0c-8.8,0-16,7.2-16,16s7.2,16,16,16c8.8,0,16-7.2,16-16S33.3,0,24.5,0"/>
</g>
</svg>
