<?xml version="1.0" encoding="utf-8"?>
<!-- Generator: Adobe Illustrator 21.0.0, SVG Export Plug-In . SVG Version: 6.00 Build 0)  -->
<svg version="1.1" id="Layer_1" xmlns="http://www.w3.org/2000/svg" xmlns:xlink="http://www.w3.org/1999/xlink" x="0px" y="0px"
	 viewBox="0 0 105 102.2" style="enable-background:new 0 0 105 102.2;" xml:space="preserve">
<style type="text/css">
	.st0{fill:#3B3B3B;}
</style>
<rect x="35.6" y="10" class="st0" width="33.7" height="4.5"/>
<path class="st0" d="M79,58h-2.8V34.8h-4.3V58h-3.6c-3.5,0-6.3,2.8-6.3,6.3c0,1.5,0.6,3,1.5,4.1c-1,1.1-1.5,2.6-1.5,4.1
	c0,1,0.2,2,0.7,2.8c-2,1.1-3.2,3.2-3.2,5.5c0,0.7,0.1,1.4,0.3,2H48.2c-0.1-4.6-2.3-8.9-5.9-11.7c3.6-1.7,5.9-5.4,5.9-9.4
	c0-1.2-0.9-2.2-2.1-2.2H33.4V43.1h-4.3v16.6c-2.7,0.3-4.9,2.6-4.9,5.5v37h4.3v-37c0-0.7,0.5-1.2,1.1-1.2h13.9c-0.9,2.4-3.1,4-5.7,4
	h-4.9c-1.2,0-2.1,0.9-2.1,2.2c0,1.2,0.9,2.2,2.1,2.2c6.1,0,11,5,11,11.1v1.6c0,1.2,0.9,2.2,2.1,2.2h8.8c-0.2,0.6-0.3,1.3-0.3,2
	c0,3.3,2.6,6,5.8,6.3v6.6h4.3v-6.6h6.9c3.5,0,6.3-2.8,6.3-6.3c0-0.7-0.1-1.4-0.4-2.1c3-0.4,5.3-3.1,5.3-6.2c0-1-0.2-2-0.7-2.8
	c2-1.1,3.2-3.2,3.2-5.5c0-1.5-0.6-3-1.5-4.1c1.1-1.3,1.6-2.8,1.6-4.3C85.3,60.8,82.5,58,79,58z M76.6,82.9H65.9c-1.1,0-2-0.9-2-2
	s0.9-2,2-2h10.7c1.1,0,2,0.9,2,2C78.5,82,77.6,82.9,76.6,82.9z M71.6,91.2H60.9c-1.1,0-2-0.9-2-2s0.9-2,2-2h10.7c1.1,0,2,0.9,2,2
	S72.7,91.2,71.6,91.2z M68.3,74.6c-1.1,0-2-0.9-2-2s0.9-2,2-2H79c1.1,0,2,0.9,2,2s-0.9,2-2,2H68.3z M79,66.3H68.3c-1.1,0-2-0.9-2-2
	c0-1.1,0.9-2,2-2H79c1.1,0,2,0.9,2,2C81,65.4,80.1,66.3,79,66.3z"/>
<path class="st0" d="M7.2,27.8c-0.5,0.5-0.6,1.2-0.4,1.8c0.3,0.6,0.9,1,1.6,1h8.2c3.3,0,6-2.5,6.3-5.6l1.9-1.9
	c0.3-0.3,0.5-0.8,0.5-1.3s-0.3-0.9-0.7-1.2l-1.8-1.3c-0.4-2.1-2.3-3.7-4.5-3.7c-2.5,0-4.6,2-4.6,4.5c-1.4-0.2-2.6-0.7-3.8-1.5
	l-0.6-0.4c-0.5-0.3-1.2-0.4-1.7-0.1C7,18.4,6.7,19,6.7,19.6V21c0,2,0.6,3.9,1.8,5.5L7.2,27.8z M15.4,23.6c0.9,0,1.7-0.7,1.7-1.7
	v-1.8c0-0.7,0.6-1.3,1.2-1.3c0.7,0,1.2,0.6,1.2,1.3c0,0.5,0.2,1,0.7,1.3L21,22l-1,1.1c-0.3,0.3-0.5,0.7-0.5,1.2c0,1.7-1.3,3-3,3
	h-4.3c0.3-0.6,0.2-1.3-0.3-1.8c-0.8-0.8-1.4-1.8-1.6-2.9C11.9,23.3,13.6,23.6,15.4,23.6z"/>
<path class="st0" d="M50.9,29v5h-3.2v3.4h3.2v6.7h3.2v-6.7h3.2V34h-3.2v-3.4h3.3v-3.3h-4.9C51.6,27.3,50.9,28.1,50.9,29z"/>
<path class="st0" d="M42,19.7c-3.1,0-5.5,2.4-5.5,5.5v20.1c0,3.1,2.4,5.5,5.5,5.5h20.1c3.1,0,5.5-2.4,5.5-5.5v-20
	c0-3.1-2.5-5.6-5.5-5.6H42z M63.3,45.3c0,0.6-0.4,1.2-1.2,1.2H42c-0.6,0-1.2-0.6-1.2-1.2v-20c0-0.6,0.4-1.2,1.2-1.2h20.1
	c0.6,0,1.2,0.6,1.2,1.2V45.3z"/>
<path class="st0" d="M31.1,33.6V13.5c0-3-2.5-5.5-5.5-5.5H5.5C2.4,8,0,10.4,0,13.5v20.1c0,3.1,2.4,5.5,5.5,5.5h20.1
	C28.7,39.1,31.1,36.7,31.1,33.6z M4.3,13.5c0-0.6,0.4-1.2,1.2-1.2h20.1c0.6,0,1.2,0.6,1.2,1.2v19.6h-0.1v0.5c0,0.6-0.4,1.2-1.2,1.2
	h-20c-0.6,0-1.2-0.4-1.2-1.2V13.5z"/>
<path class="st0" d="M99.5,0H79.4c-3.1,0-5.5,2.4-5.5,5.5v20.1c0,3.1,2.4,5.5,5.5,5.5h20.1c3.1,0,5.5-2.4,5.5-5.5v-20
	C105,2.5,102.5,0,99.5,0z M93.9,15.6c0,2.5-2,4.5-4.5,4.5c-2.5,0-4.5-2-4.5-4.5c0-2.5,2-4.5,4.5-4.5S93.9,13.1,93.9,15.6z M89.5,6.7
	c-4,0-7.6,2.8-8.6,6.7h-2.6V5.6c0-0.6,0.4-1.2,1.2-1.2h20c0.6,0,1.2,0.6,1.2,1.2v7.8h-2.6C97.1,9.5,93.5,6.7,89.5,6.7z M78.2,17.7
	h2.6c1,3.9,4.6,6.7,8.6,6.7c4,0,7.6-2.8,8.6-6.7h2.6v8.4c-0.2,0.4-0.6,0.7-1.1,0.7H79.4c-0.6,0-1.2-0.6-1.2-1.2V17.7z"/>
</svg>
