<?xml version="1.0" encoding="utf-8"?>
<!-- Generator: Adobe Illustrator 23.0.2, SVG Export Plug-In . SVG Version: 6.00 Build 0)  -->
<svg version="1.1" id="Layer_1" xmlns="http://www.w3.org/2000/svg" xmlns:xlink="http://www.w3.org/1999/xlink" x="0px" y="0px"
	 viewBox="0 0 100 100" style="enable-background:new 0 0 100 100;" xml:space="preserve">
<style type="text/css">
	.st0{fill:#3B3B3B;}
</style>
<path class="st0" d="M49.2,93.9c-0.4,0-0.9-0.1-1.3-0.3l-15.4-6.8h-20c-1.6,0-3.4-1.3-3.4-3.1v-6.3l-7.3-3.3
	c-1.5-0.7-2.2-2.5-1.6-4.1l7.3-16.7C6,52.3,5,50.7,5,49c0-2.3,1.6-4.2,4-5.1v-1c-2.4-0.9-4-2.8-4-5.1c0-2.3,1.6-4.2,4-5.1v-1
	C6.7,31,5,29,5,26.8c0-2.3,1.6-4.2,4-5.1v-4.5c0-1.8,1.8-3.1,3.4-3.1h12L27.1,8c0.3-0.8,1-1.4,1.8-1.7C29.6,6,30.5,6,31.2,6.3
	l17.1,7.8h14.4c1.7,0,2.9,1.3,2.9,3.1v4c0,0,0,0,0,0l12.7,4.9l1.6-1.3c0.1-0.1,0.2-0.3,0.3-0.4l7.1-5.9c0.3-0.3,0.7-0.4,1.1-0.3
	c0.4,0,0.8,0.2,1,0.5L99.7,31c0.5,0.6,0.4,1.6-0.2,2.1l-3.4,2.8l2.6,3.2c0.5,0.6,0.4,1.6-0.2,2.1l-15.2,13c-0.6,0.5-1.6,0.5-2.1-0.2
	c-0.5-0.6-0.5-1.6,0.2-2.1l14-12.1l-1.6-2l-1,0.8c-0.1,0.2-0.2,0.4-0.4,0.5l-21.2,18c-0.3,0.3-0.7,0.4-1.1,0.4c-0.4,0-0.8-0.2-1-0.5
	l-3.4,2.7v23.9c0,1.8-1.2,3.1-2.9,3.1h-8.4L52.1,92c-0.3,0.8-1,1.4-1.8,1.7C49.9,93.9,49.5,93.9,49.2,93.9z M40,86.9l9.1,4
	c0,0,0.1,0,0.1,0c0,0,0.1-0.1,0.1-0.1l1.7-3.9H40z M32.9,83.8h29.8c0,0,0-0.1,0-0.1V62.2l-9.2,7.4c-0.1,0.4-0.5,0.8-0.9,1l-12.2,4.6
	c-0.1,0-0.1,0-0.2,0.1l-6,1.5c-0.6,0.1-1.2-0.1-1.5-0.5c-0.4-0.4-0.5-1.1-0.2-1.6l2.4-5.5c0-0.1,0.1-0.1,0.1-0.2l6.4-9.8
	c0,0,0-0.1,0-0.1c0-0.4,0.2-0.8,0.6-1l16.8-13.5c-0.3-0.6-0.2-1.4,0.4-1.9l3.5-3V17.3c0,0,0-0.1,0-0.1l-50.1,0
	c-0.1,0-0.3,0.1-0.4,0.2v3.9c4,0,7.1,2.5,7.1,5.6c0,0.8-0.7,1.5-1.5,1.5c-0.8,0-1.5-0.7-1.5-1.5c0-1.4-1.9-2.6-4-2.6v5.4
	c0.4,0.3,0.6,0.8,0.5,1.4c-0.1,0.4-0.2,0.7-0.5,1v0.4c4,0,7.1,2.5,7.1,5.6c0,0.8-0.7,1.5-1.5,1.5c-0.8,0-1.5-0.7-1.5-1.5
	c0-1.4-1.9-2.6-4-2.6v5.4c0.4,0.3,0.6,0.8,0.5,1.4c-0.1,0.4-0.2,0.7-0.5,1v0.4c4,0,7.1,2.5,7.1,5.6c0,0.8-0.7,1.5-1.5,1.5
	c-0.8,0-1.5-0.7-1.5-1.5c0-1.4-1.9-2.6-4-2.6V50c0,0,0,0,0,0.1v1.8c0.4,0.3,0.6,0.8,0.5,1.4c-0.1,0.4-0.2,0.7-0.5,1v0.4
	c4,0,7.1,2.5,7.1,5.6c0,0.8-0.7,1.5-1.5,1.5c-0.8,0-1.5-0.7-1.5-1.5c0-1.4-1.9-2.6-4-2.6V63c0.4,0.3,0.6,0.8,0.5,1.4
	c-0.1,0.4-0.2,0.7-0.5,1v0.4c4,0,7.1,2.2,7.1,5.1c0,0.8-0.7,1.5-1.5,1.5c-0.8,0-1.5-0.7-1.5-1.5c0-0.9-1.8-2-4-2v4.4
	c0.4,0.3,0.6,0.8,0.5,1.3c0,0.4-0.2,0.7-0.5,1v8.3c0,0,0.2,0.1,0.4,0.1H32.9C32.8,83.8,32.8,83.8,32.9,83.8z M37.4,71l-0.9,2l2-0.5
	L37.4,71z M6.4,63.4L3,71.2c0,0.1,0,0.2,0,0.2l2.4,1.1C5.2,71.9,5,71.3,5,70.7c0-2.1,1.6-3.8,4-4.6v-0.9C8,64.8,7.1,64.2,6.4,63.4z
	 M9.1,69.4c-0.6,0.4-1,0.9-1,1.3c0,0.4,0.4,0.9,1,1.3V69.4z M39.1,68.3C39.1,68.3,39.1,68.3,39.1,68.3l2.4,3.3l7.6-2.9l-5.8-6.8
	L39.1,68.3z M45.3,59.2l6.7,7.7l15-12.1L60.4,47L45.3,59.2z M9.1,58.5c-0.6,0.5-1,1-1,1.7c0,0.6,0.4,1.2,1,1.7V58.5z M62.2,43.9
	l8.2,10l18.9-16l-8.2-10L62.2,43.9z M9.1,47.4c-0.6,0.5-1,1-1,1.7c0,0.5,0.3,1,0.7,1.4l0.3-0.7V47.4z M9.1,36.3c-0.6,0.5-1,1-1,1.7
	c0,0.6,0.4,1.2,1,1.7V36.3z M65.7,24.5V37l10.1-8.6L65.7,24.5z M83.4,25.8l8.2,9.9l4.8-4l-8.2-9.9L83.4,25.8z M9.1,25.1
	c-0.6,0.5-1,1-1,1.7c0,0.6,0.4,1.2,1,1.7V25.1z M27.8,14.1H41l-11-5c-0.1,0-0.1,0-0.1,0.1L27.8,14.1z"/>
</svg>
