<?xml version="1.0" encoding="utf-8"?>
<!-- Generator: Adobe Illustrator 23.0.2, SVG Export Plug-In . SVG Version: 6.00 Build 0)  -->
<svg version="1.1" id="Layer_1" xmlns="http://www.w3.org/2000/svg" xmlns:xlink="http://www.w3.org/1999/xlink" x="0px" y="0px"
	 viewBox="0 0 100 100" style="enable-background:new 0 0 100 100;" xml:space="preserve">
<style type="text/css">
	.st0{fill:#3B3B3B;}
</style>
<path class="st0" d="M73.2,100c-0.9,0-1.7-0.5-2.2-1.3L60.7,79.3h-8.3v18.3c0,1.3-1.1,2.4-2.4,2.4s-2.4-1.1-2.4-2.4V79.3h-7.1
	L30.2,98.7c-0.6,1.2-2.1,1.6-3.3,1c-1.2-0.6-1.6-2.1-1-3.3L35,79.3H4.5c-2.5,0-4.5-2-4.5-4.5v-5.6c0-2.5,2-4.5,4.5-4.5h0.4V14.2
	c0-2.5,2-4.5,4.5-4.5H39V4.5C39,2,41.1,0,43.6,0h12.9C58.9,0,61,2,61,4.5v5.2h28.4c2.5,0,4.5,2,4.5,4.5v50.4h1.6
	c2.5,0,4.5,2,4.5,4.5v5.6c0,2.5-2,4.5-4.5,4.5H66.2l9.1,17.2c0.6,1.2,0.2,2.7-1,3.3C73.9,99.9,73.6,100,73.2,100z M62.2,74.4h32.9
	v-4.9H4.9v4.9H39c0,0,0.1,0,0.1,0H62.2C62.2,74.4,62.2,74.4,62.2,74.4z M95.5,69.5L95.5,69.5L95.5,69.5z M9.8,64.6H89v-50H9.8V64.6z
	 M89.4,14.6L89.4,14.6L89.4,14.6z M43.9,9.8h12.2V4.9H43.9V9.8z M56.4,4.9L56.4,4.9L56.4,4.9z M65.9,59.8H30.5
	c-1.3,0-2.4-1.1-2.4-2.4s1.1-2.4,2.4-2.4h17.1v-3.7c0-1.3,1.1-2.4,2.4-2.4s2.4,1.1,2.4,2.4v3.7h11V41.5h-11v2.4
	c0,1.3-1.1,2.4-2.4,2.4s-2.4-1.1-2.4-2.4v-8.5c0-1.3,1.1-2.4,2.4-2.4s2.4,1.1,2.4,2.4v1.2h11V24.4h-11v2.4c0,1.3-1.1,2.4-2.4,2.4
	s-2.4-1.1-2.4-2.4v-2.4h-2.4v2.4c0,1.3-1.1,2.4-2.4,2.4c-1.3,0-2.4-1.1-2.4-2.4v-2.4h-7.3v12.2h7.3v-2.4c0-1.3,1.1-2.4,2.4-2.4
	c1.3,0,2.4,1.1,2.4,2.4V39c0,1.3-1.1,2.4-2.4,2.4h-9.8v5.9c0,1.3-1.1,2.4-2.4,2.4S28,48.7,28,47.3V22c0-1.3,1.1-2.4,2.4-2.4h35.4
	c1.3,0,2.4,1.1,2.4,2.4v35.4C68.3,58.7,67.2,59.8,65.9,59.8z"/>
</svg>
