<?xml version="1.0" encoding="utf-8"?>
<!-- Generator: Adobe Illustrator 23.0.2, SVG Export Plug-In . SVG Version: 6.00 Build 0)  -->
<svg version="1.1" id="Layer_1" xmlns="http://www.w3.org/2000/svg" xmlns:xlink="http://www.w3.org/1999/xlink" x="0px" y="0px"
	 viewBox="0 0 100 100" style="enable-background:new 0 0 100 100;" xml:space="preserve">
<style type="text/css">
	.st0{fill:#2E1A47;}
</style>
<path class="st0" d="M50,100c-5.8,0-10.6-4.3-10.6-9.6c0-4.7,3.7-8.6,8.6-9.4c0-0.1,0-0.1,0-0.2l0.1-12.5
	c-5.7-0.4-10.7-3.4-13.8-7.7l-10.2,5.1c2,4.6,0.4,10.2-3.8,12.8c0,0,0,0,0,0c-2.2,1.4-4.7,1.8-7.2,1.2c-2.6-0.6-4.7-2.3-6-4.7
	c-2.7-4.7-1.2-10.9,3.3-13.8c2.2-1.4,4.7-1.8,7.2-1.2c1.7,0.4,3.1,1.3,4.3,2.4l10.4-5.2c-1-2.3-1.6-4.9-1.6-7.6c0-3,0.7-5.9,2-8.5
	L23.3,36c-1.3,2.1-3.3,3.5-5.7,4.1c-2.5,0.6-5,0.2-7.2-1.2c-4.5-2.8-6-9-3.3-13.8c1.3-2.4,3.5-4,6-4.7c2.5-0.6,5-0.2,7.2,1.2
	c3.6,2.3,5.3,6.7,4.4,10.7l10.1,5.4c3.2-4,7.9-6.6,13.2-7L48,19.1c-4.9-0.8-8.6-4.8-8.6-9.4C39.4,4.3,44.2,0,50,0
	c5.8,0,10.6,4.3,10.6,9.6c0,4.7-3.8,8.7-8.7,9.5L52,30.9c5.1,0.7,9.5,3.4,12.5,7.3l10.8-5.8c-0.8-4.1,0.9-8.5,4.4-10.7
	c2.2-1.4,4.7-1.8,7.2-1.2c2.6,0.6,4.7,2.3,6,4.7c2.7,4.7,1.2,10.9-3.3,13.8c-2.2,1.4-4.7,1.8-7.2,1.2C80,39.5,78,38.1,76.7,36
	l-10.2,5.5c1.2,2.4,1.8,5.2,1.8,8c0,2.8-0.6,5.5-1.8,8l11.2,5.2c1.3-1.4,2.8-2.3,4.6-2.8c2.5-0.6,5-0.2,7.2,1.2
	c4.5,2.8,6,9,3.3,13.8c-1.3,2.4-3.5,4-6,4.7c-2.5,0.6-5,0.2-7.2-1.2l0,0c-4.1-2.6-5.7-7.9-4-12.4l-11.2-5.2c-3,3.9-7.4,6.6-12.5,7.3
	l-0.1,12.7c0,0,0,0.1,0,0.1c4.9,0.8,8.7,4.7,8.7,9.5C60.6,95.7,55.8,100,50,100z M50,84.6c-3.7,0-6.7,2.6-6.7,5.8
	c0,3.2,3,5.8,6.7,5.8c3.7,0,6.7-2.6,6.7-5.8C56.7,87.2,53.7,84.6,50,84.6z M19.3,76.7L19.3,76.7L19.3,76.7z M15.4,63.5
	c-1,0-2,0.3-2.9,0.9c-2.8,1.8-3.7,5.6-2,8.6c0.8,1.4,2.1,2.5,3.6,2.8c1.4,0.4,2.9,0.1,4.2-0.7h0c2.8-1.8,3.7-5.6,2-8.6
	c-0.8-1.4-2.1-2.5-3.6-2.8C16.3,63.5,15.8,63.5,15.4,63.5z M84.6,63.5c-0.4,0-0.9,0.1-1.3,0.2c-1.5,0.4-2.8,1.4-3.6,2.8
	c-1.7,3-0.8,6.9,2,8.6h0c1.3,0.8,2.8,1.1,4.2,0.7c1.5-0.4,2.8-1.4,3.6-2.8c1.7-3,0.8-6.9-2-8.6C86.6,63.8,85.6,63.5,84.6,63.5z
	 M41.4,62c2.3,1.5,5.1,2.4,8.1,2.4c3,0,5.8-0.9,8.2-2.4c-0.2-3.6-3.1-5.3-6-5.3h-5C44,56.7,41.7,59,41.4,62z M49.5,34.6
	c-8.2,0-14.9,6.7-14.9,14.9c0,3.7,1.3,7,3.5,9.6c1.1-2.9,3.5-5.2,6.4-6c-1.4-1.6-2.2-3.7-2.2-6.1c0-4.8,3.5-8.7,7.7-8.7
	c4.2,0,7.7,3.9,7.7,8.7c0,2.5-0.9,4.8-2.5,6.3c2.7,0.9,4.8,2.9,5.7,5.6c2.2-2.6,3.5-5.9,3.5-9.5C64.4,41.3,57.7,34.6,49.5,34.6z
	 M50,42.3c-2.1,0-3.8,2.2-3.8,4.8s1.7,4.8,3.8,4.8c2.1,0,3.8-2.2,3.8-4.8S52.1,42.3,50,42.3z M15.4,24c-0.4,0-0.9,0.1-1.3,0.2
	c-1.5,0.4-2.8,1.4-3.6,2.8c-1.7,3-0.8,6.9,2,8.6c0,0,0,0,0,0c1.3,0.8,2.8,1.1,4.2,0.7c1.5-0.4,2.8-1.4,3.6-2.8c1.7-3,0.8-6.9-2-8.6
	C17.4,24.3,16.4,24,15.4,24z M84.6,24c-1,0-2,0.3-2.9,0.9c-2.8,1.8-3.7,5.6-2,8.6c0.8,1.4,2.1,2.5,3.6,2.8c1.4,0.4,2.9,0.1,4.2-0.7
	c2.8-1.8,3.7-5.6,2-8.6c-0.8-1.4-2.1-2.5-3.6-2.8C85.5,24.1,85,24,84.6,24z M50,3.8c-3.7,0-6.7,2.6-6.7,5.8s3,5.8,6.7,5.8
	c3.7,0,6.7-2.6,6.7-5.8S53.7,3.8,50,3.8z"/>
</svg>
