<?xml version="1.0" encoding="utf-8"?>
<!-- Generator: Adobe Illustrator 23.0.2, SVG Export Plug-In . SVG Version: 6.00 Build 0)  -->
<svg version="1.1" id="Layer_1" xmlns="http://www.w3.org/2000/svg" xmlns:xlink="http://www.w3.org/1999/xlink" x="0px" y="0px"
	 viewBox="0 0 100 100" style="enable-background:new 0 0 100 100;" xml:space="preserve">
<style type="text/css">
	.st0{fill-rule:evenodd;clip-rule:evenodd;fill:#2E1A47;}
</style>
<g id="XMLID_1_">
	<path id="XMLID_116_" class="st0" d="M81.7,46.6c-0.9,0-1.7-0.7-1.7-1.7c0-0.9,0.7-1.7,1.7-1.7c0.9,0,1.7,0.7,1.7,1.7
		C83.3,45.9,82.6,46.6,81.7,46.6L81.7,46.6L81.7,46.6z M51.7,48.3h11.7V31.6H51.7V48.3L51.7,48.3z M60,13.3c0.9,0,1.7,0.7,1.7,1.7
		c0,0.9-0.7,1.7-1.7,1.7c-0.9,0-1.7-0.7-1.7-1.7C58.3,14,59.1,13.3,60,13.3L60,13.3L60,13.3z M63.3,63.3c0.9,0,1.7,0.7,1.7,1.7
		c0,0.9-0.7,1.7-1.7,1.7c-0.9,0-1.7-0.7-1.7-1.7C61.7,64,62.4,63.3,63.3,63.3L63.3,63.3L63.3,63.3z M63.7,86.7
		c0.8-0.1,1.6,0.5,1.7,1.4c0,0.1,0,0.1,0,0.2c0,0.9-0.7,1.7-1.7,1.7H36.3c-0.9,0-1.7-0.8-1.7-1.7c0,0,0,0,0-0.1
		c0-0.8,0.7-1.5,1.6-1.4c0,0,0.1,0,0.1,0H63.7L63.7,86.7z M65.8,95c0,0.9-0.7,1.7-1.7,1.7H35.8c-0.9,0-1.7-0.8-1.7-1.7
		c0,0,0,0,0-0.1c0-0.9,0.7-1.7,1.7-1.7h28.3C65.1,93.2,65.9,94,65.8,95C65.8,95,65.8,95,65.8,95L65.8,95L65.8,95z M48.3,28.4v23.1
		c-6.4-0.9-10.8-6.8-9.9-13.2C39.2,33.2,43.2,29.1,48.3,28.4L48.3,28.4L48.3,28.4z M35,39.9c0,7.6,5.7,14,13.3,14.9v5.7l-0.3-1.3
		c-0.1-0.7-0.7-1.2-1.3-1.3c-1-0.2-2-0.4-2.9-0.8c-0.2-0.1-0.4-0.1-0.6-0.1c-0.5,0-0.9,0.2-1.2,0.6l-1.6,1.7
		c-0.9-0.4-1.7-0.9-2.5-1.5l0.7-2.2c0.2-0.6,0-1.4-0.5-1.8c-0.8-0.7-1.5-1.4-2.1-2.1c-0.4-0.5-1.1-0.7-1.8-0.5L32,52
		c-0.5-0.8-1-1.6-1.5-2.5l1.7-1.6c0.5-0.5,0.7-1.2,0.5-1.8c-0.3-0.9-0.6-1.9-0.8-2.9c-0.1-0.7-0.6-1.2-1.3-1.3l-2.3-0.5v-2.9
		l2.3-0.5c0.7-0.1,1.2-0.7,1.3-1.3c0.2-1,0.4-2,0.8-2.9c0.2-0.6,0-1.4-0.5-1.8l-1.7-1.6c0.4-0.9,0.9-1.7,1.5-2.5l2.2,0.7
		c0.6,0.2,1.4,0,1.8-0.5c0.7-0.8,1.4-1.5,2.1-2.1c0.5-0.4,0.7-1.1,0.5-1.8L37.9,22c0.8-0.5,1.6-1,2.5-1.5l1.6,1.7
		c0.5,0.5,1.2,0.7,1.8,0.5c0.9-0.3,1.9-0.6,2.9-0.8c0.7-0.1,1.2-0.6,1.3-1.3l0.3-1.3V25C40.7,25.9,35,32.3,35,39.9L35,39.9L35,39.9z
		 M29.2,69c-1.4-2-2.7-3.8-3.6-5.5c-5.4-9.6-8.9-21.2-8.9-29.5c0-16.6,13.8-29.7,31.7-30.5V15c-0.4,0-0.9,0.1-1.4,0.1
		c-0.7,0.1-1.3,0.6-1.4,1.3L45,18.9c-0.4,0.1-0.8,0.2-1.3,0.3l-1.7-1.9c-0.5-0.5-1.2-0.7-1.9-0.4c-1.9,0.8-3.6,1.8-5.2,3.1
		c-0.6,0.4-0.8,1.2-0.6,1.9l0.8,2.3c-0.3,0.3-0.6,0.6-0.9,0.9l-2.3-0.8c-0.7-0.2-1.4,0-1.9,0.6c-1.2,1.6-2.3,3.4-3.1,5.2
		c-0.3,0.7-0.1,1.4,0.4,1.9l1.9,1.7c-0.1,0.4-0.2,0.8-0.3,1.2l-2.6,0.5c-0.8,0.2-1.3,0.8-1.3,1.6v5.7c0,0.8,0.6,1.5,1.3,1.6l2.6,0.5
		c0.1,0.4,0.2,0.8,0.3,1.2l-1.9,1.7c-0.5,0.5-0.7,1.2-0.4,1.9c0.8,1.9,1.8,3.6,3.1,5.2c0.4,0.6,1.2,0.8,1.9,0.6l2.3-0.8
		c0.3,0.3,0.6,0.6,0.9,0.9L34.4,58c-0.2,0.7,0,1.4,0.6,1.9c1.6,1.2,3.4,2.3,5.2,3.1c0.7,0.3,1.4,0.1,1.9-0.4l1.7-1.9
		c0.4,0.1,0.8,0.2,1.3,0.3l0.5,2.4c0.1,0.7,0.7,1.2,1.4,1.3c0.5,0.1,0.9,0.1,1.4,0.1v18.5H36.5C35.8,78.4,32.4,73.4,29.2,69L29.2,69
		L29.2,69z M73.3,21.6c0.9,0,1.7,0.7,1.7,1.7c0,0.9-0.7,1.7-1.7,1.7c-0.9,0-1.7-0.7-1.7-1.7C71.7,22.4,72.4,21.6,73.3,21.6
		L73.3,21.6L73.3,21.6z M86.4,43.3c-0.7-2-2.6-3.3-4.7-3.3c-2.1,0-4,1.3-4.7,3.3H66.7v-6.7h6.7c0.9,0,1.7-0.7,1.7-1.7v0v-7
		c2.6-0.9,4-3.8,3-6.4c-0.9-2.6-3.8-4-6.4-3c-2.6,0.9-4,3.8-3,6.4c0.5,1.4,1.6,2.5,3,3v5.3h-5v-3.3c0-0.9-0.7-1.7-1.7-1.7h0h-3.3
		v-8.6c2.6-0.9,4-3.8,3-6.4c-0.9-2.6-3.8-4-6.4-3c-2.6,0.9-4,3.8-3,6.4c0.5,1.4,1.6,2.5,3,3v8.6h-6.7V1.7C51.7,0.7,50.9,0,50,0h0
		C29.4,0,13.3,14.9,13.3,33.9c0,9,3.6,21,9.4,31.2c1,1.8,2.4,3.8,3.8,5.8c3,4.3,6.4,9.2,6.8,13.4c-1.3,0.9-2,2.4-2,4
		c0,1.1,0.4,2.2,1.1,3.1c-1,1-1.5,2.3-1.5,3.7c0,2.8,2.2,5,5,5h28.3c2.8,0,5-2.3,5-5.1v-0.1c0-1.4-0.6-2.7-1.5-3.6
		c0.7-0.9,1.1-2,1.1-3.2c0-2.6-2.1-4.8-4.8-4.8c-0.1,0-0.1,0-0.2,0H51.7V51.6H55v5c0,0.9,0.7,1.7,1.7,1.7h5v2c-2.6,0.9-4,3.8-3,6.4
		c0.9,2.6,3.8,4,6.4,3c2.6-0.9,4-3.8,3-6.4c-0.5-1.4-1.6-2.5-3-3v-3.6c0-0.9-0.7-1.7-1.7-1.7h0h-5v-3.3H65c0.9,0,1.7-0.7,1.7-1.7v0
		v-3.3H77c0.9,2.6,3.8,4,6.4,3C85.9,48.7,87.3,45.9,86.4,43.3L86.4,43.3L86.4,43.3z"/>
	<path id="XMLID_113_" class="st0" d="M65.7,76.2c-0.6,1-1.1,2.1-1.6,3.2l3.1,1.2c0.4-1,0.9-1.9,1.4-2.9L65.7,76.2L65.7,76.2z"/>
	<path id="XMLID_109_" class="st0" d="M69.6,70.9c-0.6,0.9-1.3,1.8-1.8,2.7l2.7,1.7c0.6-0.9,1.2-1.8,1.8-2.6L69.6,70.9L69.6,70.9z"
		/>
	<path id="XMLID_105_" class="st0" d="M74,65.5c-0.5,0.9-1.1,1.7-1.8,2.6l2.6,1.8c0.7-0.9,1.3-1.9,1.8-2.8L74,65.5L74,65.5z"/>
	<path id="XMLID_101_" class="st0" d="M76.3,59.3c-0.5,1-1,2-1.5,2.9l2.9,1.5c0.5-1,1.1-2,1.6-3L76.3,59.3L76.3,59.3z"/>
	<path id="XMLID_97_" class="st0" d="M79.7,53c-0.4,1-0.8,2.1-1.3,3.1l3.1,1.3c0.5-1.1,0.9-2.2,1.3-3.3L79.7,53L79.7,53z"/>
	<path id="XMLID_93_" class="st0" d="M86.5,34.3l-3.4,0l0,0.3c0,0.9,0,1.9-0.1,3l3.4,0.3c0.1-1.1,0.1-2.2,0.1-3.2L86.5,34.3
		L86.5,34.3z"/>
	<path id="XMLID_89_" class="st0" d="M85.9,27.2l-3,0.7c0.2,0.9,0.4,1.9,0.5,2.9l3.1-0.4C86.3,29.3,86.1,28.2,85.9,27.2"/>
	<path id="XMLID_85_" class="st0" d="M83.3,20.1l-3,1.5c0.5,1,0.9,2,1.3,3l3.2-1.1C84.3,22.2,83.8,21.1,83.3,20.1"/>
	<path id="XMLID_81_" class="st0" d="M80,13.8l-2.5,2c0.6,0.8,1.2,1.6,1.8,2.5l2.7-1.7C81.4,15.6,80.7,14.7,80,13.8"/>
	<path id="XMLID_77_" class="st0" d="M75.1,9.3l-2,2.4c0.8,0.6,1.5,1.3,2.2,2l2.2-2.2C76.8,10.8,75.9,10.1,75.1,9.3"/>
	<path id="XMLID_73_" class="st0" d="M68.4,4.9l-1.5,2.8c0.9,0.5,1.8,1,2.7,1.6l1.8-2.7C70.4,6,69.4,5.4,68.4,4.9"/>
	<path id="XMLID_69_" class="st0" d="M62.5,2.2l-1,3.3c1.1,0.3,2.1,0.7,3.1,1.2l1.3-3.2C64.8,3,63.7,2.6,62.5,2.2"/>
	<path id="XMLID_65_" class="st0" d="M55.6,1.3l-0.4,3.1c1,0.1,2,0.3,2.9,0.5l0.7-3C57.8,1.7,56.7,1.5,55.6,1.3"/>
</g>
</svg>
