<?xml version="1.0" encoding="utf-8"?>
<!-- Generator: Adobe Illustrator 21.0.0, SVG Export Plug-In . SVG Version: 6.00 Build 0)  -->
<svg version="1.1" id="Capa_1" xmlns="http://www.w3.org/2000/svg" xmlns:xlink="http://www.w3.org/1999/xlink" x="0px" y="0px"
	 viewBox="0 0 477.9 477.9" style="enable-background:new 0 0 477.9 477.9;" xml:space="preserve">
<style type="text/css">
	.st0{fill:#618138;}
</style>
<g class="st0">
	<g>
		<g>
			<path d="M341.3,85.3H51.2C22.9,85.3,0,108.3,0,136.5v290.1c0,28.3,22.9,51.2,51.2,51.2h290.1c28.3,0,51.2-22.9,51.2-51.2V136.5
				C392.5,108.3,369.6,85.3,341.3,85.3z M358.4,426.7c0,9.4-7.6,17.1-17.1,17.1H51.2c-9.4,0-17.1-7.6-17.1-17.1V136.5
				c0-9.4,7.6-17.1,17.1-17.1h290.1c9.4,0,17.1,7.6,17.1,17.1V426.7z"/>
		</g>
	</g>
	<g>
		<g>
			<path d="M426.7,0H119.5C91.2,0,68.3,22.9,68.3,51.2c0,9.4,7.6,17.1,17.1,17.1s17.1-7.6,17.1-17.1s7.6-17.1,17.1-17.1h307.2
				c9.4,0,17.1,7.6,17.1,17.1v307.2c0,9.4-7.6,17.1-17.1,17.1s-17.1,7.6-17.1,17.1s7.6,17.1,17.1,17.1c28.3,0,51.2-22.9,51.2-51.2
				V51.2C477.9,22.9,454.9,0,426.7,0z"/>
		</g>
	</g>
	<path d="M296.7,253.6l-86.6-86.6c-0.5-0.5-1.1-1-1.6-1.4c-0.4-0.6-0.9-1.1-1.4-1.6c-6.8-6.8-17.9-6.8-24.7,0l-86.6,86.6
		c-6.8,6.8-6.8,17.9,0,24.7c3.4,3.4,7.9,5.1,12.4,5.1s9-1.7,12.4-5.1l56.2-56.2v167.6c0,9.7,7.8,17.5,17.5,17.5s17.5-7.8,17.5-17.5
		V218.2l60.2,60.2c3.4,3.4,7.9,5.1,12.4,5.1c4.5,0,9-1.7,12.4-5.1C303.5,271.5,303.5,260.5,296.7,253.6z"/>
</g>
</svg>
