<?xml version="1.0" encoding="utf-8"?>
<!-- Generator: Adobe Illustrator 23.0.2, SVG Export Plug-In . SVG Version: 6.00 Build 0)  -->
<svg version="1.1" id="Layer_1" xmlns="http://www.w3.org/2000/svg" xmlns:xlink="http://www.w3.org/1999/xlink" x="0px" y="0px"
	 viewBox="0 0 100 100" style="enable-background:new 0 0 100 100;" xml:space="preserve">
<style type="text/css">
	.st0{fill:#9B9C9C;}
</style>
<path class="st0" d="M98.4,90.9L57.5,50L98.4,9.1c2.1-2.1,2.1-5.4,0-7.5c-2.1-2.1-5.4-2.1-7.5,0L50,42.5L9.1,1.6
	C7-0.5,3.6-0.5,1.6,1.6C0.5,2.6,0,4,0,5.3S0.5,8,1.6,9.1L42.5,50L1.6,90.9c-2.1,2.1-2.1,5.4,0,7.5c1,1,2.4,1.6,3.8,1.6
	s2.7-0.5,3.8-1.6L50,57.5l40.9,40.9c2.1,2.1,5.4,2.1,7.5,0C100.5,96.4,100.5,93,98.4,90.9z"/>
</svg>
