<?xml version="1.0" encoding="utf-8"?>
<!-- Generator: Adobe Illustrator 23.0.2, SVG Export Plug-In . SVG Version: 6.00 Build 0)  -->
<svg version="1.1" id="Layer_1" xmlns="http://www.w3.org/2000/svg" xmlns:xlink="http://www.w3.org/1999/xlink" x="0px" y="0px"
	 viewBox="0 0 100 100" style="enable-background:new 0 0 100 100;" xml:space="preserve">
<style type="text/css">
	.st0{fill:#A94242;}
</style>
<g>
	<path class="st0" d="M85.4,14.6c-19.5-19.5-51.2-19.5-70.7,0c-19.5,19.5-19.5,51.2,0,70.7C24.4,95.1,37.2,100,50,100
		s25.6-4.9,35.4-14.6C104.9,65.9,104.9,34.1,85.4,14.6z M79.9,79.9c-16.5,16.5-43.4,16.5-59.9,0c-16.5-16.5-16.5-43.4,0-59.9
		C28.3,11.8,39.2,7.7,50,7.7c10.8,0,21.7,4.1,29.9,12.4C96.4,36.6,96.4,63.4,79.9,79.9z"/>
	<path class="st0" d="M69.7,29.4c-1.5-1.5-3.9-1.5-5.4,0L49.1,44.6L33.9,29.4c-1.5-1.5-3.9-1.5-5.4,0s-1.5,3.9,0,5.4L43.7,50
		L28.5,65.2c-1.5,1.5-1.5,3.9,0,5.4c0.8,0.8,1.7,1.1,2.7,1.1s2-0.4,2.7-1.1l15.2-15.2l15.2,15.2c0.8,0.8,1.7,1.1,2.7,1.1
		c1,0,2-0.4,2.7-1.1c1.5-1.5,1.5-3.9,0-5.4L54.5,50l15.2-15.2C71.2,33.3,71.2,30.9,69.7,29.4z"/>
</g>
</svg>
