<?xml version="1.0" encoding="utf-8"?>
<!-- Generator: Adobe Illustrator 23.0.2, SVG Export Plug-In . SVG Version: 6.00 Build 0)  -->
<svg version="1.1" id="Layer_1" xmlns="http://www.w3.org/2000/svg" xmlns:xlink="http://www.w3.org/1999/xlink" x="0px" y="0px"
	 viewBox="0 0 100 100" style="enable-background:new 0 0 100 100;" xml:space="preserve">
<style type="text/css">
	.st0{fill:#FFFFFF;}
	.st1{fill:#59713A;}
	.st2{fill:#F7981C;}
	.st3{fill:#313D20;}
	.st4{fill:#DB831B;}
	.st5{fill:#F6F5FA;}
	.st6{fill:#745995;}
	.st7{fill:#2C1A43;}
	.st8{fill:#C1C1D1;}
</style>
<g>
	<circle class="st0" cx="49.6" cy="50" r="47.8"/>
	<path class="st1" d="M32.5,38.7c0-4.1,2.1-7.8,5.3-10v-3.4c0-0.5-0.4-1-1-1h-32c-0.5,0-1,0.4-1,1v20.9c0,0.5,0.4,1,1,1h12.7
		c0.5,0,1.3,0.3,1.7,0.6l6.7,6.1c0.4,0.4,0.7,0.2,0.7-0.3v-5.4c0-0.5,0.4-1,1-1h4.8L32.5,38.7L32.5,38.7z"/>
	<path class="st2" d="M100,6.4c0-0.5-0.4-1-1-1H62.3c-0.5,0-1,0.4-1,1v20.1c0,0.5,0.4,1,1,1H73c0.5,0,1,0.4,1,1V32
		c0,0.5,0.4,0.7,0.8,0.5l7.7-4.6c0.5-0.3,1.3-0.5,1.8-0.5H99c0.5,0,1-0.4,1-1L100,6.4L100,6.4z"/>
	<path class="st3" d="M3.9,46.2V25.4c0-0.5,0.4-1,1-1H1c-0.5,0-1,0.4-1,1v20.9c0,0.5,0.4,1,1,1h3.9C4.3,47.2,3.9,46.8,3.9,46.2z"/>
	<path class="st4" d="M65.2,26.5V6.4c0-0.5,0.4-1,1-1h-3.9c-0.5,0-1,0.4-1,1v20.1c0,0.5,0.4,1,1,1h3.9C65.6,27.5,65.2,27,65.2,26.5z
		"/>
	<g>
		<path class="st0" d="M69.5,11.2c0.2-0.5,0.6-0.5,0.9,0l0.8,1.7c0.2,0.5,0.9,0.9,1.4,1l1.9,0.3c0.5,0.1,0.6,0.5,0.3,0.8l-1.3,1.3
			c-0.4,0.4-0.6,1.1-0.5,1.6l0.3,1.8c0.1,0.5-0.2,0.8-0.7,0.5l-1.7-0.9c-0.5-0.3-1.3-0.3-1.7,0l-1.7,0.9c-0.5,0.3-0.8,0-0.7-0.5
			l0.3-1.8c0.1-0.5-0.2-1.3-0.5-1.6L65.2,15c-0.4-0.4-0.3-0.7,0.3-0.8l1.9-0.3c0.5-0.1,1.2-0.5,1.4-1L69.5,11.2z"/>
		<path class="st0" d="M81.2,11.2c0.2-0.5,0.6-0.5,0.9,0l0.8,1.7c0.2,0.5,0.9,0.9,1.4,1l1.9,0.3c0.5,0.1,0.6,0.5,0.3,0.8l-1.3,1.3
			c-0.4,0.4-0.6,1.1-0.5,1.6l0.3,1.8c0.1,0.5-0.2,0.8-0.7,0.5l-1.7-0.9c-0.5-0.3-1.3-0.3-1.7,0l-1.7,0.9c-0.5,0.3-0.8,0-0.7-0.5
			l0.3-1.8c0.1-0.5-0.2-1.3-0.5-1.6L76.9,15c-0.4-0.4-0.3-0.7,0.3-0.8l1.9-0.3c0.5-0.1,1.2-0.5,1.4-1L81.2,11.2z"/>
		<path class="st0" d="M93,11.2c0.2-0.5,0.6-0.5,0.9,0l0.8,1.7c0.2,0.5,0.9,0.9,1.4,1l1.9,0.3c0.5,0.1,0.6,0.5,0.3,0.8l-1.3,1.3
			c-0.4,0.4-0.6,1.1-0.5,1.6l0.3,1.8c0.1,0.5-0.2,0.8-0.7,0.5l-1.7-0.9c-0.5-0.3-1.3-0.3-1.7,0l-1.7,0.9c-0.5,0.3-0.8,0-0.7-0.5
			l0.3-1.8c0.1-0.5-0.2-1.3-0.5-1.6L88.6,15c-0.4-0.4-0.3-0.7,0.3-0.8l1.9-0.3c0.5-0.1,1.2-0.5,1.4-1L93,11.2z"/>
	</g>
	<g>
		<path class="st5" d="M26.5,32H7.3c-0.8,0-1.5-0.7-1.5-1.5s0.7-1.5,1.5-1.5h19.2c0.8,0,1.5,0.7,1.5,1.5S27.3,32,26.5,32z"/>
		<path class="st5" d="M26.5,36.9H7.3c-0.8,0-1.5-0.7-1.5-1.5s0.7-1.5,1.5-1.5h19.2c0.8,0,1.5,0.7,1.5,1.5S27.3,36.9,26.5,36.9z"/>
		<path class="st5" d="M16.9,41.7H7.3c-0.8,0-1.5-0.7-1.5-1.5s0.7-1.5,1.5-1.5h9.6c0.8,0,1.5,0.7,1.5,1.5
			C18.4,41,17.7,41.7,16.9,41.7z"/>
	</g>
	<path class="st6" d="M61.8,82.4c-7.9,0-15.8,0-23.7,0c0.5-4.6,0.9-9.1,1.4-13.7c7,0,14,0,20.9,0C60.9,73.3,61.4,77.9,61.8,82.4z"/>
	<path class="st7" d="M60.6,70.4c-7.1,0.1-14.2,0.2-21.3,0.2c-0.1,1-0.2,2.1-0.3,3.1c0.7,0.7,4.9,4.9,11.5,4.6
		c5.9-0.2,9.6-3.9,10.4-4.7C60.8,72.5,60.7,71.5,60.6,70.4z"/>
	<path class="st7" d="M57.7,30.3c-1.3,0-2.5,0.3-3.7,0.7c1,1.2,1.7,2.5,2.2,3.9c6.5,1.1,11,4.4,11,11.5v-6.9
		C67.2,34.4,62.9,30.3,57.7,30.3z"/>
	<path class="st7" d="M49.8,34.5c2.3,0,4.6,0.2,6.6,0.5c-1.5-4.9-6.2-8.5-11.8-8.5c-6.8,0-12.2,5.2-12.2,11.7v8.2
		C32.5,37.2,40.2,34.5,49.8,34.5z"/>
	<path class="st7" d="M35.9,38.2c0.1-5.9,4.6-10.7,10.5-11.5c-0.6-0.1-1.1-0.1-1.7-0.1c-6.8,0-12.2,5.2-12.2,11.7v8.2
		C32.5,42.7,33.7,40,35.9,38.2z"/>
	<path class="st6" d="M67.2,57.5c0,9.2-7.8,16.7-17.4,16.7l0,0c-9.6,0-17.4-7.5-17.4-16.7V46.2c0-9.2,7.8-12,17.4-12l0,0
		c9.6,0,17.4,2.8,17.4,12V57.5z"/>
	<path class="st7" d="M42.4,62.8l15.2-2c0,0-0.9,5.8-7,6.7C44.1,68.2,42.4,62.8,42.4,62.8z"/>
	<path class="st8" d="M78.5,88.4c-0.1-1.7-0.6-4.3-2.4-6.8c-4.9-7-14.6-6.2-15.2-6.1C57.1,80.6,51.3,81,50,81l0,0
		c-1.2,0-2.8-0.3-4.5-0.9c-3.5-1.3-5.6-3.5-6.6-4.7c-0.6-0.1-10.2-0.7-15,6.1c-1.8,2.5-2.3,5.1-2.4,6.8c8,5.9,17.8,9.4,28.5,9.5l0,0
		C60.7,97.8,70.5,94.3,78.5,88.4z"/>
</g>
</svg>
