<?xml version="1.0" encoding="utf-8"?>
<!-- Generator: Adobe Illustrator 23.0.2, SVG Export Plug-In . SVG Version: 6.00 Build 0)  -->
<svg version="1.1" id="Layer_1" xmlns="http://www.w3.org/2000/svg" xmlns:xlink="http://www.w3.org/1999/xlink" x="0px" y="0px"
	 viewBox="0 0 100 100" style="enable-background:new 0 0 100 100;" xml:space="preserve">
<style type="text/css">
	.st0{fill:#3D3942;}
</style>
<g>
	<g>
		<g>
			<g>
				<path class="st0" d="M83.1,8c-7.6,0-13.7,6.1-13.7,13.8s6.1,13.7,13.7,13.7s13.8-6.1,13.8-13.8S90.7,8,83.1,8z M83.1,32.5
					c-5.9,0-10.8-4.8-10.8-10.8S77.3,11,83.1,11c5.9,0,10.8,4.8,10.8,10.8S89,32.5,83.1,32.5z"/>
			</g>
		</g>
	</g>
	<g>
		<g>
			<g>
				<path class="st0" d="M87.4,23.9c-0.1-0.3-0.1-0.5-0.3-0.8c-0.1-0.2-0.2-0.5-0.4-0.7c-0.2-0.2-0.3-0.4-0.5-0.6
					c-0.2-0.2-0.4-0.4-0.7-0.5c-0.2-0.2-0.5-0.3-0.7-0.4c-0.3-0.1-0.5-0.3-0.8-0.4c-0.3-0.1-0.6-0.2-0.8-0.3c-0.1,0-0.3-0.1-0.4-0.2
					c-0.1-0.1-0.3-0.1-0.4-0.2s-0.3-0.1-0.4-0.2s-0.2-0.2-0.3-0.3c-0.1-0.1-0.2-0.2-0.2-0.4c-0.1-0.1-0.1-0.3-0.1-0.4
					c0-0.2,0-0.3,0-0.5c0-0.1,0.1-0.3,0.1-0.4c0.1-0.1,0.1-0.3,0.2-0.4c0.1-0.1,0.2-0.2,0.3-0.3c0.1-0.1,0.3-0.2,0.5-0.2
					C83,17,83.1,17,83.3,17c0.1,0,0.2,0,0.3,0s0.2,0,0.3,0c0.2,0,0.3,0,0.5,0.1c0.2,0,0.4,0.1,0.5,0.1s0.3,0.1,0.4,0.1
					c0.2,0,0.3,0.1,0.4,0.1l0.5,0.2l0.1-0.6l0.2-1.5v-0.4L85.9,15c-0.1,0-0.3-0.1-0.4-0.1s-0.2-0.1-0.4-0.1c-0.1,0-0.3-0.1-0.5-0.1
					s-0.3-0.1-0.5-0.1h-0.1v-1.3v-0.5h-0.5h-1.3h-0.5v0.5v1.4h-0.1c-0.3,0.1-0.6,0.2-0.8,0.4c-0.3,0.1-0.5,0.3-0.7,0.5
					c-0.2,0.2-0.4,0.4-0.6,0.7c-0.2,0.2-0.3,0.5-0.4,0.8c-0.1,0.3-0.2,0.6-0.3,0.8C79,18.1,79,18.5,79,18.8s0,0.5,0.1,0.8
					c0.1,0.3,0.1,0.5,0.3,0.8c0.1,0.2,0.3,0.5,0.4,0.7c0.2,0.2,0.3,0.4,0.5,0.6s0.4,0.4,0.7,0.5c0.2,0.2,0.5,0.3,0.7,0.4
					c0.3,0.1,0.6,0.3,0.8,0.4c0.3,0.1,0.6,0.2,0.8,0.3c0.1,0,0.3,0.1,0.4,0.2s0.3,0.1,0.4,0.2s0.2,0.2,0.3,0.2
					c0.1,0.1,0.2,0.2,0.3,0.3c0.1,0.1,0.1,0.2,0.2,0.4c0,0.1,0.1,0.3,0.1,0.5s0,0.3,0,0.5c0,0.1-0.1,0.3-0.2,0.4s-0.2,0.2-0.3,0.3
					C84,25.9,84,26,83.8,26.1c-0.1,0.1-0.3,0.1-0.4,0.2c-0.1,0-0.3,0.1-0.5,0.1c-0.1,0-0.2,0-0.4,0c-0.1,0-0.3,0-0.4,0
					c-0.2,0-0.4,0-0.5,0c-0.2,0-0.4-0.1-0.5-0.1c-0.2,0-0.4-0.1-0.6-0.2c-0.2-0.1-0.4-0.1-0.6-0.2c-0.1,0-0.2-0.1-0.3-0.1
					c-0.1,0-0.2-0.1-0.3-0.1L79,25.5l-0.1,0.7l-0.2,1.7v0.3l0.3,0.1c0.4-0.1,0.6,0,0.8,0.1c0.2,0.1,0.5,0.2,0.7,0.2
					c0.2,0.1,0.5,0.1,0.8,0.2c0.3,0.1,0.5,0.1,0.8,0.1h0.2v1.4v0.5h0.5H84h0.5v-0.5v-1.5h0.1c0.3-0.1,0.6-0.2,0.8-0.4
					c0.3-0.1,0.5-0.3,0.8-0.5c0.2-0.2,0.4-0.4,0.6-0.7c0.2-0.2,0.3-0.5,0.5-0.8c0.1-0.3,0.2-0.6,0.3-0.8c0.1-0.3,0.1-0.6,0.1-0.9
					C87.5,24.3,87.5,24.2,87.4,23.9z"/>
			</g>
		</g>
	</g>
	<g>
		<g>
			<g>
				<path class="st0" d="M76.5,37.3C76,36.6,75,36.5,74.3,37L59.1,49.2l-19.7-8.2c-0.5-0.2-1-0.1-1.4,0.2L16.8,56.2
					c-0.7,0.5-0.8,1.4-0.4,2.1c0.3,0.5,0.8,0.7,1.2,0.7c0.3,0,0.6-0.1,0.8-0.3L39,44.1l19.8,8.2c0.5,0.2,1.1,0.1,1.5-0.2l15.9-12.6
					C76.9,39,77,37.9,76.5,37.3z"/>
			</g>
		</g>
	</g>
	<g>
		<g>
			<g>
				<path class="st0" d="M98.6,89h-7V45.3c0-0.8-0.7-1.5-1.5-1.5H76.2c-0.8,0-1.5,0.7-1.5,1.5V89h-5.1V60.4c0-0.8-0.7-1.5-1.5-1.5
					h-14c-0.8,0-1.5,0.7-1.5,1.5V89h-5.1V58.1c0-0.8-0.7-1.5-1.5-1.5H32.2c-0.8,0-1.5,0.7-1.5,1.5V89h-5.1V67c0-0.8-0.7-1.5-1.5-1.5
					h-14c-0.8,0-1.5,0.7-1.5,1.5v22H1.5C0.7,89,0,89.6,0,90.5S0.7,92,1.5,92H10h13.9h8.3H46h8.1H68h8.1H90h8.5
					c0.8,0,1.5-0.7,1.5-1.5C100.1,89.6,99.4,89,98.6,89z M22.5,89H11.6V68.5h10.8V89z M44.5,89H33.7V59.6h10.8V89z M66.5,89H55.7
					V61.9h10.8V89z M88.6,89H77.7V46.8h10.8V89z"/>
			</g>
		</g>
	</g>
</g>
</svg>
