<?xml version="1.0" encoding="utf-8"?>
<!-- Generator: Adobe Illustrator 23.0.2, SVG Export Plug-In . SVG Version: 6.00 Build 0)  -->
<svg version="1.1" id="Layer_1" xmlns="http://www.w3.org/2000/svg" xmlns:xlink="http://www.w3.org/1999/xlink" x="0px" y="0px"
	 viewBox="0 0 100 100" style="enable-background:new 0 0 100 100;" xml:space="preserve">
<style type="text/css">
	.st0{fill:#FFFFFF;}
	.st1{fill:#C1C1D1;}
	.st2{fill:#59713A;}
	.st3{fill:#745995;}
	.st4{fill:#2C1A43;}
</style>
<g>
	<polygon class="st0" points="88.8,24.1 64.7,0 11.2,0 11.2,100 88.8,100 	"/>
	<polygon class="st1" points="64.7,0 64.7,24.1 88.8,24.1 	"/>
	<g>
		<path class="st1" d="M57.8,58.6H28.4c-1,0-1.7,0.8-1.7,1.7c0,1,0.8,1.7,1.7,1.7h29.3c1,0,1.7-0.8,1.7-1.7
			C59.5,59.4,58.7,58.6,57.8,58.6z"/>
		<path class="st1" d="M76.7,51.7c0-1-0.8-1.7-1.7-1.7H62.9c-1,0-1.7,0.8-1.7,1.7c0,1,0.8,1.7,1.7,1.7H75
			C76,53.4,76.7,52.7,76.7,51.7z"/>
		<path class="st1" d="M37.1,53.4h17.2c1,0,1.7-0.8,1.7-1.7c0-1-0.8-1.7-1.7-1.7H37.1c-1,0-1.7,0.8-1.7,1.7
			C35.3,52.7,36.1,53.4,37.1,53.4z"/>
		<path class="st1" d="M28.4,53.4c0.5,0,0.9-0.2,1.2-0.5c0.3-0.3,0.5-0.8,0.5-1.2c0-0.4-0.2-0.9-0.5-1.2c-0.6-0.6-1.8-0.6-2.4,0
			c-0.3,0.3-0.5,0.8-0.5,1.2c0,0.4,0.2,0.9,0.5,1.2C27.5,53.3,28,53.4,28.4,53.4z"/>
		<path class="st1" d="M65.2,59.1c-0.3,0.3-0.5,0.8-0.5,1.2c0,0.5,0.2,0.9,0.5,1.2c0.3,0.3,0.8,0.5,1.2,0.5s0.9-0.2,1.2-0.5
			c0.3-0.3,0.5-0.8,0.5-1.2c0-0.5-0.2-0.9-0.5-1.2C66.9,58.5,65.8,58.5,65.2,59.1z"/>
		<path class="st1" d="M73.8,59.1c-0.3,0.3-0.5,0.8-0.5,1.2c0,0.5,0.2,0.9,0.5,1.2c0.3,0.3,0.8,0.5,1.2,0.5s0.9-0.2,1.2-0.5
			c0.3-0.3,0.5-0.8,0.5-1.2c0-0.5-0.2-0.9-0.5-1.2C75.6,58.5,74.4,58.5,73.8,59.1z"/>
	</g>
	<g>
		<path class="st2" d="M38,67.5c-3.8,2-5,5.7-5.5,9.6c-0.7-0.6-1.4-1.2-2.1-1.8c-1.7-1.4-4.1,1-2.4,2.4c1.6,1.3,3.2,2.7,4.8,4.1
			c1.1,1,2.9,0.4,2.9-1.2c0.1-3.7,0.3-8.2,4-10.1C41.7,69.5,39.9,66.5,38,67.5z"/>
		<path class="st2" d="M64.4,76.3c-0.7-1-1.5-1.8-2.8-1.9c-2.5-0.2-6.8,3.4-8.6,0.2c-0.5-0.8-1.6-1.1-2.4-0.6
			c-2.4,1.5-5.6,3.7-8.2,0.9c-1.5-1.6-3.9,0.8-2.4,2.4c3.2,3.5,7.4,2.4,11,0.4c0.8,0.8,1.7,1.4,2.9,1.8c1.6,0.6,7-2.1,7.5-1.5
			C62.7,79.8,65.7,78.1,64.4,76.3z"/>
	</g>
	<g>
		<path class="st3" d="M40.8,36c-2.8,0-5.6,0-8.5,0c0.2-1.6,0.3-3.3,0.5-4.9c2.5,0,5,0,7.5,0C40.4,32.8,40.6,34.4,40.8,36z"/>
		<path class="st4" d="M40.3,31.7c-2.5,0-5.1,0.1-7.6,0.1c0,0.4-0.1,0.7-0.1,1.1c0.2,0.2,1.8,1.7,4.1,1.6c2.1-0.1,3.4-1.4,3.7-1.7
			C40.4,32.5,40.4,32.1,40.3,31.7z"/>
		<path class="st4" d="M39.3,17.5c-0.5,0-0.9,0.1-1.3,0.3c0.3,0.4,0.6,0.9,0.8,1.4c2.3,0.4,3.9,1.6,3.9,4.1v-2.5
			C42.7,18.9,41.1,17.5,39.3,17.5z"/>
		<path class="st4" d="M36.5,18.9c0.8,0,1.6,0.1,2.4,0.2c-0.5-1.7-2.2-3-4.2-3c-2.4,0-4.4,1.9-4.4,4.2v2.9
			C30.3,19.9,33,18.9,36.5,18.9z"/>
		<path class="st4" d="M31.5,20.2c0-2.1,1.6-3.8,3.7-4.1c-0.2,0-0.4,0-0.6,0c-2.4,0-4.4,1.9-4.4,4.2v2.9
			C30.3,21.9,30.7,20.9,31.5,20.2z"/>
		<path class="st3" d="M42.7,27.1c0,3.3-2.8,5.9-6.2,5.9l0,0c-3.4,0-6.2-2.7-6.2-5.9v-4c0-3.3,2.8-4.3,6.2-4.3l0,0
			c3.4,0,6.2,1,6.2,4.3V27.1z"/>
		<path class="st4" d="M33.8,29l5.4-0.7c0,0-0.3,2.1-2.5,2.4C34.4,31,33.8,29,33.8,29z"/>
		<path class="st1" d="M46.7,38.2c0-0.6-0.2-1.5-0.9-2.4c-1.7-2.5-5.2-2.2-5.4-2.2c-1.4,1.8-3.4,2-3.9,2l0,0c-0.4,0-1-0.1-1.6-0.3
			c-1.2-0.4-2-1.2-2.4-1.7c-0.2,0-3.6-0.3-5.3,2.2c-0.6,0.9-0.8,1.8-0.9,2.4c2.8,2.1,6.4,3.4,10.2,3.4l0,0
			C40.3,41.5,43.9,40.3,46.7,38.2z"/>
	</g>
</g>
</svg>
