<?xml version="1.0" encoding="utf-8"?>
<!-- Generator: Adobe Illustrator 23.0.2, SVG Export Plug-In . SVG Version: 6.00 Build 0)  -->
<svg version="1.1" id="Layer_1" xmlns="http://www.w3.org/2000/svg" xmlns:xlink="http://www.w3.org/1999/xlink" x="0px" y="0px"
	 viewBox="0 0 100 100" style="enable-background:new 0 0 100 100;" xml:space="preserve">
<style type="text/css">
	.st0{clip-path:url(#SVGID_2_);}
	.st1{clip-path:url(#SVGID_4_);enable-background:new    ;}
	.st2{clip-path:url(#SVGID_6_);}
	.st3{clip-path:url(#SVGID_8_);}
	.st4{clip-path:url(#SVGID_10_);fill:#FFFFFF;}
</style>
<g>
	<defs>
		<path id="SVGID_1_" d="M50,0C22.4,0,0,22.4,0,50s22.4,50,50,50c27.6,0,50-22.4,50-50S77.6,0,50,0z M43.8,25h6.1c0,0,0.1,0,0.1,0
			s0.1,0,0.1,0h6.1v5.9c0,0.1,0.1,0.3,0.1,0.4c0,0.1-0.1,0.2-0.1,0.4v5.9h-6c-0.1,0-0.1,0-0.2,0c-0.1,0-0.1,0-0.2,0h-6v-5.9
			c0-0.1-0.1-0.2-0.1-0.4c0-0.1,0.1-0.2,0.1-0.4V25z M60.1,75H39.9c-1.3,0-2.4-1.3-2.4-2.8c0-1.5,1.1-2.8,2.4-2.8l3.9-0.7V50
			l-3.9-0.7c-1.3,0-2.4-1.3-2.4-2.8s1.1-2.8,2.4-2.8h15.7c0.5,0,0.6-0.2,0.7-0.4c0,0.1,0,0.2,0,0.4v25l3.9,0.7
			c1.3,0,2.4,1.3,2.4,2.8C62.5,73.8,61.5,75,60.1,75z"/>
	</defs>
	<clipPath id="SVGID_2_">
		<use xlink:href="#SVGID_1_"  style="overflow:visible;"/>
	</clipPath>
	<g class="st0">
		<defs>
			<rect id="SVGID_3_" y="0" width="100" height="100"/>
		</defs>
		<clipPath id="SVGID_4_">
			<use xlink:href="#SVGID_3_"  style="overflow:visible;"/>
		</clipPath>
		<g class="st1">
			<g>
				<defs>
					<rect id="SVGID_5_" y="0" width="100" height="100"/>
				</defs>
				<clipPath id="SVGID_6_">
					<use xlink:href="#SVGID_5_"  style="overflow:visible;"/>
				</clipPath>
				<g class="st2">
					<defs>
						<rect id="SVGID_7_" y="0" width="100" height="100"/>
					</defs>
					<clipPath id="SVGID_8_">
						<use xlink:href="#SVGID_7_"  style="overflow:visible;"/>
					</clipPath>
					<g class="st3">
						<defs>
							<rect id="SVGID_9_" y="0" width="100" height="100"/>
						</defs>
						<clipPath id="SVGID_10_">
							<use xlink:href="#SVGID_9_"  style="overflow:visible;"/>
						</clipPath>
						<rect x="-31.2" y="-31.3" class="st4" width="162.5" height="162.5"/>
					</g>
				</g>
			</g>
		</g>
	</g>
</g>
</svg>
