<?xml version="1.0" encoding="utf-8"?>
<!-- Generator: Adobe Illustrator 23.0.2, SVG Export Plug-In . SVG Version: 6.00 Build 0)  -->
<svg version="1.1" id="Layer_1" xmlns="http://www.w3.org/2000/svg" xmlns:xlink="http://www.w3.org/1999/xlink" x="0px" y="0px"
	 viewBox="0 0 100 100" style="enable-background:new 0 0 100 100;" xml:space="preserve">
<style type="text/css">
	.st0{fill:#3D3942;}
</style>
<g>
	<g>
		<g>
			<path class="st0" d="M12,33.2c-0.4-0.4-0.9-0.6-1.4-0.6s-1,0.2-1.4,0.6s-0.6,0.9-0.6,1.4s0.2,1,0.6,1.4c0.4,0.4,0.9,0.6,1.4,0.6
				s1-0.2,1.4-0.6c0.4-0.4,0.6-0.9,0.6-1.4S12.4,33.5,12,33.2z"/>
		</g>
	</g>
	<g>
		<g>
			<path class="st0" d="M85.7,0H46.2c-1.1,0-2,0.9-2,2s0.9,2,2,2h39.5c1.1,0,2,0.9,2,2v88.3c0,1.1-0.9,2-2,2H14.6c-1.1,0-2-0.9-2-2
				V41.9c0-1.1-0.9-2-2-2s-2,0.9-2,2v52.3c0,3.2,2.6,5.9,5.9,5.9h71.1c3.2,0,5.9-2.6,5.9-5.9V5.9C91.5,2.6,88.8,0,85.7,0z"/>
		</g>
	</g>
	<g>
		<g>
			<path class="st0" d="M50.1,7.8c-1.3,0-2.7,0.1-4,0.3c-1.1,0.2-1.8,1.2-1.6,2.2c0.2,1.1,1.2,1.8,2.2,1.6c1.1-0.2,2.2-0.3,3.4-0.3
				c12.2,0,22.1,9.9,22.1,22.1c0,5.4-2,10.4-5.2,14.2c-1.4-2.5-3.4-4.6-5.8-6.2c-1.4-1-2.9-1.7-4.4-2.3c1.8-1.7,2.9-4.2,2.9-6.8
				v-1.9c0-5.3-4.3-9.6-9.6-9.6s-9.6,4.3-9.6,9.6v1.9c0,2.7,1.1,5.1,2.9,6.8c-1.6,0.6-3,1.3-4.4,2.3c-2.4,1.7-4.3,3.8-5.8,6.3
				c-2.5-2.9-4.2-6.5-4.9-10.6c-0.2-1.1-1.2-1.8-2.2-1.6C25,36,24.3,37,24.5,38c1,6,4.1,11.5,8.8,15.4c4.7,4,10.7,6.2,16.9,6.2
				c14.3,0,26-11.7,26-26S64.3,7.8,50.1,7.8z M44.5,30.7c0-3.1,2.5-5.7,5.7-5.7c3.1,0,5.7,2.5,5.7,5.7v1.9c0,3.1-2.5,5.7-5.7,5.7
				s-5.7-2.5-5.7-5.7V30.7z M50.1,55.9c-5.3,0-10.2-1.8-14-5c2.6-5.3,8-8.7,14-8.7s11.4,3.4,14,8.7C60.2,54,55.4,55.9,50.1,55.9z"/>
		</g>
	</g>
	<g>
		<g>
			<path class="st0" d="M68.2,77.6H40.4c-1.1,0-2,0.9-2,2c0,1.1,0.9,2,2,2h27.8c1.1,0,2-0.9,2-2C70.1,78.6,69.2,77.6,68.2,77.6z"/>
		</g>
	</g>
	<g>
		<g>
			<path class="st0" d="M33.5,67.4c-0.4-0.4-0.9-0.6-1.4-0.6c-0.5,0-1,0.2-1.4,0.6c-0.4,0.4-0.6,0.9-0.6,1.4s0.2,1,0.6,1.4
				c0.4,0.4,0.9,0.6,1.4,0.6s1-0.2,1.4-0.6c0.4-0.4,0.6-0.9,0.6-1.4S33.8,67.6,33.5,67.4z"/>
		</g>
	</g>
	<g>
		<g>
			<path class="st0" d="M33.5,78.2c-0.4-0.4-0.9-0.6-1.4-0.6c-0.5,0-1,0.2-1.4,0.6c-0.4,0.4-0.6,0.9-0.6,1.4s0.2,1,0.6,1.4
				c0.4,0.4,0.9,0.6,1.4,0.6s1-0.2,1.4-0.6c0.4-0.4,0.6-0.9,0.6-1.4C34,79.1,33.8,78.6,33.5,78.2z"/>
		</g>
	</g>
	<g>
		<g>
			<path class="st0" d="M68.2,66.8H40.4c-1.1,0-2,0.9-2,2c0,1.1,0.9,2,2,2h27.8c1.1,0,2-0.9,2-2C70.1,67.6,69.2,66.8,68.2,66.8z"/>
		</g>
	</g>
	<g>
		<g>
			<path class="st0" d="M31.7,11.3c-0.8-0.8-2-0.8-2.8,0l-6.4,6.4l-2.2-2.2c-0.8-0.8-2-0.8-2.8,0s-0.8,2,0,2.8l3.6,3.6
				c0.4,0.4,0.9,0.6,1.4,0.6s1-0.2,1.4-0.6l7.7-7.7C32.5,13.3,32.5,12,31.7,11.3z"/>
		</g>
	</g>
	<g>
		<g>
			<path class="st0" d="M24.7,0c-8.8,0-16,7.2-16,16s7.2,16,16,16s16-7.2,16-16S33.6,0,24.7,0z M24.7,28.1
				c-6.7,0-12.1-5.4-12.1-12.1S18.1,3.9,24.7,3.9S36.8,9.3,36.8,16S31.4,28.1,24.7,28.1z"/>
		</g>
	</g>
</g>
</svg>
