<?xml version="1.0" encoding="utf-8"?>
<!-- Generator: Adobe Illustrator 23.0.2, SVG Export Plug-In . SVG Version: 6.00 Build 0)  -->
<svg version="1.1" id="Layer_1" xmlns="http://www.w3.org/2000/svg" xmlns:xlink="http://www.w3.org/1999/xlink" x="0px" y="0px"
	 viewBox="0 0 100 100" style="enable-background:new 0 0 100 100;" xml:space="preserve">
<style type="text/css">
	.st0{fill:#3D3942;}
</style>
<g>
	<g>
		<g>
			<g>
				<rect x="33.3" y="8.3" class="st0" width="33.3" height="3.3"/>
			</g>
		</g>
	</g>
	<g>
		<g>
			<g>
				<path class="st0" d="M82.5,62.5c0-3.2-2.6-5.8-5.8-5.8h-3.3V33.3H70v23.3h-4.2c-3.2,0-5.8,2.6-5.8,5.8c0,1.6,0.7,3.1,1.8,4.2
					c-1.1,1.1-1.8,2.5-1.8,4.2c0,1.1,0.3,2.2,0.9,3.1c-2,0.9-3.4,2.9-3.4,5.3c0,0.9,0.2,1.7,0.6,2.5H45c0-5.1-2.6-9.6-6.4-12.3
					c3.8-1.4,6.4-5.1,6.4-9.3c0-0.9-0.7-1.7-1.7-1.7H30V41.7h-3.3v16.7c-2.8,0-5,2.2-5,5V100H25V63.3c0-0.9,0.7-1.7,1.7-1.7h14.8
					c-0.7,2.9-3.4,5-6.5,5h-5c-0.9,0-1.7,0.7-1.7,1.7S29.1,70,30,70c6.4,0,11.7,5.2,11.7,11.7v1.7c0,0.9,0.7,1.7,1.7,1.7h9.8
					c-0.4,0.8-0.6,1.6-0.6,2.5c0,3.2,2.6,5.8,5.8,5.8v6.7h3.3v-6.7h6.7h0.8c3.2,0,5.8-2.6,5.8-5.8c0-0.9-0.2-1.8-0.6-2.5
					c3.1-0.1,5.6-2.7,5.6-5.8c0-1.1-0.3-2.2-0.9-3.1c2-0.9,3.4-2.9,3.4-5.3c0-1.6-0.7-3.1-1.8-4.2C81.8,65.6,82.5,64.1,82.5,62.5z
					 M69.2,90h-0.8H60h-1.7c-1.4,0-2.5-1.1-2.5-2.5S57,85,58.3,85h5h5.8c1.4,0,2.5,1.1,2.5,2.5S70.5,90,69.2,90z M74.2,81.7h-5h-5.8
					c-1.4,0-2.5-1.1-2.5-2.5c0-1.4,1.1-2.5,2.5-2.5h2.5h8.3c1.4,0,2.5,1.1,2.5,2.5C76.7,80.5,75.5,81.7,74.2,81.7z M76.7,73.3h-2.5
					h-8.3c-1.4,0-2.5-1.1-2.5-2.5c0-1.4,1.1-2.5,2.5-2.5h10.8c1.4,0,2.5,1.1,2.5,2.5C79.2,72.2,78,73.3,76.7,73.3z M76.7,65H65.8
					c-1.4,0-2.5-1.1-2.5-2.5s1.1-2.5,2.5-2.5h10.8c1.4,0,2.5,1.1,2.5,2.5S78,65,76.7,65z"/>
			</g>
		</g>
	</g>
	<g>
		<g>
			<g>
				<path class="st0" d="M25,21.2c0-0.5-0.3-0.9-0.7-1.2l-1.7-1.3c-0.4-2.1-2.3-3.7-4.5-3.7c-2.5,0-4.5,2-4.6,4.5
					c-1.3-0.2-2.6-0.7-3.7-1.5l-0.6-0.4c-0.5-0.3-1.2-0.4-1.7-0.1C7,17.8,6.7,18.4,6.7,19v1.4c0,2,0.6,3.9,1.7,5.5l-1.2,1.3
					c-0.5,0.5-0.6,1.2-0.4,1.8c0.3,0.6,0.9,1,1.5,1h8.1c3.2,0,5.9-2.5,6.2-5.6l1.9-1.9C24.9,22.2,25,21.7,25,21.2z M19.8,22.5
					c-0.3,0.3-0.5,0.7-0.5,1.2c0,1.7-1.3,3-2.9,3h-4.2c0.3-0.6,0.1-1.3-0.3-1.8C11,24,10.5,23,10.2,22c1.6,0.7,3.3,1,5,1
					c0.9,0,1.7-0.7,1.7-1.7v-1.7c0-0.7,0.5-1.2,1.2-1.2s1.2,0.6,1.2,1.2c0,0.5,0.2,1,0.7,1.3l0.8,0.6L19.8,22.5z"/>
			</g>
		</g>
	</g>
	<g>
		<g>
			<g>
				<path class="st0" d="M55,28.3V25h-5c-0.9,0-1.7,0.7-1.7,1.7v5H45V35h3.3v6.7h3.3V35H55v-3.3h-3.3v-3.3H55z"/>
			</g>
		</g>
	</g>
	<g>
		<g>
			<g>
				<path class="st0" d="M60,18.3H40c-2.8,0-5,2.2-5,5v20c0,2.8,2.2,5,5,5h20c2.8,0,5-2.2,5-5v-20C65,20.6,62.8,18.3,60,18.3z
					 M61.7,43.3c0,0.9-0.7,1.7-1.7,1.7H40c-0.9,0-1.7-0.7-1.7-1.7v-20c0-0.9,0.7-1.7,1.7-1.7h20c0.9,0,1.7,0.7,1.7,1.7V43.3z"/>
			</g>
		</g>
	</g>
	<g>
		<g>
			<g>
				<path class="st0" d="M25,8.3H5c-2.8,0-5,2.2-5,5v20c0,2.8,2.2,5,5,5h20c2.8,0,5-2.2,5-5v-20C30,10.6,27.8,8.3,25,8.3z
					 M26.7,33.3c0,0.9-0.7,1.7-1.7,1.7H5c-0.9,0-1.7-0.7-1.7-1.7v-20c0-0.9,0.7-1.7,1.7-1.7h20c0.9,0,1.7,0.7,1.7,1.7V33.3z"/>
			</g>
		</g>
	</g>
	<g>
		<g>
			<g>
				<path class="st0" d="M95,0H75c-2.8,0-5,2.2-5,5v20c0,2.8,2.2,5,5,5h20c2.8,0,5-2.2,5-5V5C100,2.2,97.8,0,95,0z M96.7,25
					c0,0.9-0.7,1.7-1.7,1.7H75c-0.9,0-1.7-0.7-1.7-1.7v-8.3h3.5c0.8,3.8,4.1,6.7,8.2,6.7s7.4-2.9,8.2-6.7h3.5V25z M80,15
					c0-2.8,2.2-5,5-5s5,2.2,5,5s-2.2,5-5,5S80,17.8,80,15z M96.7,13.3h-3.5C92.4,9.5,89,6.7,85,6.7s-7.4,2.9-8.2,6.7h-3.5V5
					c0-0.9,0.7-1.7,1.7-1.7h20c0.9,0,1.7,0.7,1.7,1.7V13.3z"/>
			</g>
		</g>
	</g>
</g>
</svg>
