<?xml version="1.0" encoding="utf-8"?>
<!-- Generator: Adobe Illustrator 23.0.2, SVG Export Plug-In . SVG Version: 6.00 Build 0)  -->
<svg version="1.1" id="Layer_1" xmlns="http://www.w3.org/2000/svg" xmlns:xlink="http://www.w3.org/1999/xlink" x="0px" y="0px"
	 viewBox="0 0 100 100" style="enable-background:new 0 0 100 100;" xml:space="preserve">
<style type="text/css">
	.st0{fill:#000000;}
</style>
<g>
	<path class="st0" d="M99.3,1.3C99.1,1.1,98.8,1,98.6,1c-0.5-0.3-1.1-0.3-1.6-0.1L26.2,30.2c-1.4,0.6-2.2,1.9-2.1,3.4
		c0.1,1.5,1.1,2.7,2.6,3.1l11.7,2.9l7.5,22.5c0,0,0,0.1,0,0.1c0.6,1.3,1.8,2.1,3.1,2.1c0.2,0,0.4,0,0.5,0c0,0,0.1,0,0.1,0
		c0.1,0,0.3,0.1,0.4,0.1c0.5,0,1.1-0.2,1.4-0.7L63,48.1l8,2.1c0.3,0.1,0.6,0.1,0.9,0.1c1.2,0,2.4-0.7,3-1.8L99.8,3.8
		C100.2,2.9,100,1.9,99.3,1.3z M27.8,33.3l50.8-21l-39.2,24L27.8,33.3z M41.8,38.9l40.8-25L50.8,42.1c0,0-0.1,0.1-0.1,0.1
		c0,0-0.1,0.1-0.1,0.1c0,0.1-0.1,0.1-0.1,0.2c0,0.1-0.1,0.2-0.1,0.2c0,0,0,0.1,0,0.1c0,0.1-0.1,0.2-0.1,0.4L49,60.4L41.8,38.9z
		 M52.8,55.9l0.7-10.2l5.7,1.5L52.8,55.9z M71.9,46.8l-9.2-2.4c0,0,0,0,0,0l-7.1-1.8l36.6-32.4L71.9,46.8z"/>
	<path class="st0" d="M8,60.5c0.3,0,0.7-0.1,0.9-0.3c0.6-0.4,1.2-0.7,1.8-1c0.9-0.4,1.3-1.5,0.9-2.3c-0.4-0.9-1.4-1.3-2.3-0.9
		c-0.8,0.4-1.6,0.8-2.3,1.2c-0.8,0.5-1.1,1.6-0.5,2.4C6.9,60.2,7.4,60.5,8,60.5z"/>
	<path class="st0" d="M2.2,66.6c0.2,0.1,0.4,0.1,0.6,0.1c0.7,0,1.4-0.5,1.7-1.2c0.2-0.6,0.5-1.2,0.8-1.7c0.5-0.8,0.3-1.9-0.5-2.4
		C4,60.8,2.9,61,2.3,61.8c-0.5,0.8-0.9,1.6-1.2,2.5C0.8,65.3,1.3,66.3,2.2,66.6z"/>
	<path class="st0" d="M2.7,94.7c-0.6,0.4-1.3,0.9-1.9,1.3c-0.8,0.6-1,1.7-0.4,2.5c0.3,0.5,0.9,0.8,1.4,0.8c0.3,0,0.7-0.1,1-0.3
		c0.7-0.5,1.3-0.9,1.9-1.4c0.8-0.6,1-1.7,0.4-2.5C4.5,94.4,3.4,94.2,2.7,94.7z"/>
	<path class="st0" d="M4.5,70c-0.3-0.9-1.3-1.4-2.3-1c-0.9,0.3-1.4,1.3-1,2.3c0.3,0.8,0.7,1.6,1.2,2.4c0.3,0.5,0.9,0.8,1.5,0.8
		c0.3,0,0.6-0.1,0.9-0.3c0.8-0.5,1.1-1.6,0.6-2.4C5.1,71.2,4.8,70.6,4.5,70z"/>
	<path class="st0" d="M22.4,60.4c0.6,0.4,1.1,0.8,1.6,1.3c0.3,0.3,0.8,0.5,1.2,0.5c0.5,0,0.9-0.2,1.3-0.6c0.7-0.7,0.6-1.8-0.1-2.5
		c-0.6-0.6-1.3-1.1-2.1-1.6c-0.8-0.5-1.9-0.3-2.4,0.5C21.3,58.7,21.6,59.8,22.4,60.4z"/>
	<path class="st0" d="M28.3,69.4C28.3,69.4,28.3,69.4,28.3,69.4c1,0,1.8-0.7,1.8-1.7c0-0.1,0-0.3,0-0.4c0-0.8-0.1-1.6-0.3-2.4
		c-0.2-1-1.2-1.5-2.1-1.3c-0.9,0.2-1.5,1.2-1.3,2.1c0.1,0.5,0.2,1.1,0.2,1.6l0,0.3C26.6,68.6,27.3,69.4,28.3,69.4z"/>
	<path class="st0" d="M15.8,58l0.3,0c0.6,0,1.1,0.1,1.6,0.2c0.1,0,0.3,0,0.4,0c0.8,0,1.5-0.6,1.7-1.4c0.2-0.9-0.4-1.9-1.3-2.1
		c-0.8-0.2-1.6-0.3-2.5-0.3c0,0,0,0,0,0l-0.3,0c-1,0-1.7,0.8-1.7,1.8C14,57.2,14.8,58,15.8,58z"/>
	<path class="st0" d="M15.3,84.6c-0.5,0.5-1.1,1-1.7,1.5c-0.7,0.6-0.8,1.8-0.2,2.5c0.3,0.4,0.8,0.6,1.3,0.6c0.4,0,0.8-0.1,1.2-0.4
		c0.6-0.5,1.2-1.1,1.8-1.6c0.7-0.7,0.8-1.8,0.1-2.5C17.2,84,16,84,15.3,84.6z"/>
	<path class="st0" d="M32.3,73.8c-0.7,0.4-1.3,0.7-2,1.1c-0.9,0.4-1.2,1.5-0.8,2.4c0.3,0.6,0.9,1,1.6,1c0.3,0,0.5-0.1,0.8-0.2
		c0.7-0.4,1.4-0.8,2.1-1.2c0.8-0.5,1.1-1.6,0.6-2.4C34.2,73.6,33.1,73.3,32.3,73.8z"/>
	<path class="st0" d="M39,69.4c-0.6,0.4-1.2,0.9-1.9,1.4c-0.8,0.6-1,1.7-0.4,2.5c0.3,0.5,0.9,0.7,1.4,0.7c0.3,0,0.7-0.1,1-0.3
		c0.7-0.5,1.3-1,1.9-1.4c0.8-0.6,0.9-1.7,0.4-2.5C40.8,69,39.7,68.8,39,69.4z"/>
	<path class="st0" d="M45.1,64.2c0,0-0.6,0.6-1.7,1.5c-0.7,0.6-0.8,1.8-0.2,2.5c0.3,0.4,0.8,0.6,1.3,0.6c0.4,0,0.8-0.1,1.2-0.4
		c1.2-1,1.8-1.7,1.8-1.7c0.7-0.7,0.7-1.8,0-2.5C46.9,63.6,45.8,63.5,45.1,64.2z"/>
	<path class="st0" d="M8.9,79.9c0.3,0.2,0.6,0.2,0.9,0.2c0.6,0,1.2-0.3,1.5-0.9c0.5-0.8,0.2-1.9-0.7-2.4c-0.6-0.3-1.2-0.7-1.7-1.2
		c-0.8-0.6-1.9-0.5-2.5,0.3S6,77.9,6.8,78.5C7.5,79,8.2,79.5,8.9,79.9z"/>
	<path class="st0" d="M9.2,89.9c-0.6,0.5-1.2,0.9-1.8,1.4C6.6,91.9,6.4,93,7,93.8c0.3,0.5,0.9,0.7,1.4,0.7c0.4,0,0.7-0.1,1.1-0.4
		c0.6-0.5,1.3-1,1.9-1.5c0.8-0.6,0.9-1.7,0.3-2.5C11,89.4,9.9,89.3,9.2,89.9z"/>
	<path class="st0" d="M27.6,71.7c-0.9-0.4-1.9-0.1-2.4,0.8c-0.3,0.6-0.6,1.3-1,1.9c-0.5,0.8-0.2,1.9,0.6,2.4
		c0.2,0.1,0.4,0.2,0.6,0.2c-0.1,0-0.2,0-0.3,0.1c-0.7,0.2-1.4,0.5-2.1,0.7c-0.3,0.1-0.6,0.3-0.8,0.5c-0.5,0-1,0.2-1.3,0.6
		c-0.5,0.5-1,1.1-1.5,1.7c0-0.1,0-0.2,0-0.2c0-1-0.8-1.8-1.8-1.8l-0.2,0c-0.7,0-1.3,0-2-0.1c-1-0.1-1.8,0.6-2,1.5
		c-0.1,1,0.6,1.8,1.5,2c0.8,0.1,1.6,0.1,2.4,0.1c0,0,0,0,0,0l0.1,0c0.5,0,0.9-0.2,1.3-0.5c-0.1,0.5,0.1,1.1,0.5,1.5
		c0.3,0.3,0.8,0.5,1.2,0.5c0.5,0,0.9-0.2,1.3-0.6c0.6-0.6,1.1-1.2,1.6-1.7c0.1,0,0.3,0,0.4-0.1c0.8-0.2,1.6-0.5,2.4-0.7
		c0.9-0.3,1.4-1.3,1.1-2.2c-0.2-0.6-0.8-1.1-1.4-1.2c0.5-0.1,0.9-0.4,1.2-0.8c0.5-0.7,0.9-1.5,1.2-2.2
		C28.8,73.2,28.5,72.1,27.6,71.7z"/>
</g>
</svg>
