<?xml version="1.0" encoding="utf-8"?>
<!-- Generator: Adobe Illustrator 23.0.2, SVG Export Plug-In . SVG Version: 6.00 Build 0)  -->
<svg version="1.1" id="Layer_1" xmlns="http://www.w3.org/2000/svg" xmlns:xlink="http://www.w3.org/1999/xlink" x="0px" y="0px"
	 viewBox="0 0 100 100" style="enable-background:new 0 0 100 100;" xml:space="preserve">
<style type="text/css">
	.st0{fill:#999999;}
</style>
<g>
	<path class="st0" d="M50,0C22.4,0,0,22.4,0,50c0,27.6,22.4,50,50,50c27.6,0,50-22.4,50-50C100,22.4,77.6,0,50,0z M50,92.3
		c-23.3,0-42.3-19-42.3-42.3S26.7,7.7,50,7.7s42.3,19,42.3,42.3S73.3,92.3,50,92.3z"/>
	<path class="st0" d="M74.7,45.5H53.2V24.1c0-2.1-1.7-3.8-3.8-3.8s-3.8,1.7-3.8,3.8v21.4H24.1c-2.1,0-3.8,1.7-3.8,3.8
		s1.7,3.8,3.8,3.8h21.4v21.4c0,2.1,1.7,3.8,3.8,3.8s3.8-1.7,3.8-3.8V53.2h21.4c2.1,0,3.8-1.7,3.8-3.8S76.8,45.5,74.7,45.5z"/>
</g>
</svg>
