<?xml version="1.0" encoding="utf-8"?>
<!-- Generator: Adobe Illustrator 23.0.2, SVG Export Plug-In . SVG Version: 6.00 Build 0)  -->
<svg version="1.1" id="Layer_1" xmlns="http://www.w3.org/2000/svg" xmlns:xlink="http://www.w3.org/1999/xlink" x="0px" y="0px"
	 viewBox="0 0 100 100" style="enable-background:new 0 0 100 100;" xml:space="preserve">
<style type="text/css">
	.st0{fill:#2F1A47;}
</style>
<path class="st0" d="M71.5,62.9H67l-1.6-1.5c5.6-6.5,9-15,9-24.2C74.3,16.6,57.7,0,37.2,0S0,16.6,0,37.2s16.6,37.2,37.2,37.2
	c9.2,0,17.7-3.4,24.2-9l1.5,1.6v4.5L91.5,100l8.5-8.5L71.5,62.9z M37.2,62.9c-14.2,0-25.7-11.5-25.7-25.7s11.5-25.7,25.7-25.7
	s25.7,11.5,25.7,25.7S51.4,62.9,37.2,62.9z"/>
</svg>
