<?xml version="1.0" encoding="utf-8"?>
<!-- Generator: Adobe Illustrator 23.0.2, SVG Export Plug-In . SVG Version: 6.00 Build 0)  -->
<svg version="1.1" id="Layer_1" xmlns="http://www.w3.org/2000/svg" xmlns:xlink="http://www.w3.org/1999/xlink" x="0px" y="0px"
	 viewBox="0 0 100 100" style="enable-background:new 0 0 100 100;" xml:space="preserve">
<style type="text/css">
	.st0{fill:#D7D4DF;}
</style>
<g>
	<g>
		<g>
			<g>
				<path class="st0" d="M86.4,43.3c-0.7-2-2.6-3.3-4.7-3.3c-2.1,0-4,1.3-4.7,3.3H66.7v-6.7h6.7c0.9,0,1.7-0.7,1.7-1.7v0v-7
					c2.6-0.9,4-3.8,3-6.4c-0.9-2.6-3.8-4-6.4-3c-2.6,0.9-4,3.8-3,6.4c0.5,1.4,1.6,2.5,3,3v5.3h-5v-3.3c0-0.9-0.7-1.7-1.7-1.7h0h-3.3
					v-8.6c2.6-0.9,4-3.8,3-6.4c-0.9-2.6-3.8-4-6.4-3c-2.6,0.9-4,3.8-3,6.4c0.5,1.4,1.6,2.5,3,3v8.6h-6.7V1.7C51.7,0.7,50.9,0,50,0
					c0,0,0,0,0,0C29.4,0,13.3,14.9,13.3,33.9c0,9,3.6,21,9.4,31.2c1,1.8,2.4,3.8,3.8,5.8c3,4.3,6.4,9.2,6.8,13.4c-1.3,0.9-2,2.4-2,4
					c0,1.1,0.4,2.2,1.1,3.1c-1,1-1.5,2.3-1.5,3.7c0,2.8,2.2,5,5,5h28.3c2.8,0,5-2.3,5-5.1c0,0,0,0,0-0.1c0-1.4-0.6-2.7-1.5-3.6
					c0.7-0.9,1.1-2,1.1-3.2c0-2.6-2.1-4.8-4.8-4.8c-0.1,0-0.1,0-0.2,0H51.7V51.6H55v5c0,0.9,0.7,1.7,1.7,1.7c0,0,0,0,0,0h5v2
					c-2.6,0.9-4,3.8-3,6.4c0.9,2.6,3.8,4,6.4,3c2.6-0.9,4-3.8,3-6.4c-0.5-1.4-1.6-2.5-3-3v-3.6c0-0.9-0.7-1.7-1.7-1.7c0,0,0,0,0,0
					h-5v-3.3H65c0.9,0,1.7-0.7,1.7-1.7v0v-3.3H77c0.9,2.6,3.8,4,6.4,3C85.9,48.7,87.3,45.9,86.4,43.3z M73.3,21.6
					c0.9,0,1.7,0.7,1.7,1.7s-0.7,1.7-1.7,1.7s-1.7-0.7-1.7-1.7C71.7,22.4,72.4,21.6,73.3,21.6z M29.2,69c-1.4-2-2.7-3.8-3.6-5.5
					c-5.4-9.6-8.9-21.2-8.9-29.5c0-16.6,13.8-29.7,31.7-30.5V15c-0.4,0-0.9,0.1-1.4,0.1c-0.7,0.1-1.3,0.6-1.4,1.3L45,18.9
					c-0.4,0.1-0.8,0.2-1.3,0.3l-1.7-1.9c-0.5-0.5-1.2-0.7-1.9-0.4c-1.9,0.8-3.6,1.8-5.2,3.1c-0.6,0.4-0.8,1.2-0.6,1.9l0.8,2.3
					c-0.3,0.3-0.6,0.6-0.9,0.9l-2.3-0.8c-0.7-0.2-1.4,0-1.9,0.6c-1.2,1.6-2.3,3.4-3.1,5.2c-0.3,0.7-0.1,1.4,0.4,1.9l1.9,1.7
					c-0.1,0.4-0.2,0.8-0.3,1.2l-2.6,0.5c-0.8,0.2-1.3,0.8-1.3,1.6v5.7c0,0.8,0.6,1.5,1.3,1.6l2.6,0.5c0.1,0.4,0.2,0.8,0.3,1.2
					l-1.9,1.7c-0.5,0.5-0.7,1.2-0.4,1.9c0.8,1.9,1.8,3.6,3.1,5.2c0.4,0.6,1.2,0.8,1.9,0.6l2.3-0.8c0.3,0.3,0.6,0.6,0.9,0.9L34.4,58
					c-0.2,0.7,0,1.4,0.6,1.9c1.6,1.2,3.4,2.3,5.2,3.1c0.7,0.3,1.4,0.1,1.9-0.4l1.7-1.9c0.4,0.1,0.8,0.2,1.3,0.3l0.5,2.4
					c0.1,0.7,0.7,1.2,1.4,1.3c0.5,0.1,0.9,0.1,1.4,0.1v18.5H36.5C35.8,78.4,32.4,73.4,29.2,69z M35,39.9c0,7.6,5.7,14,13.3,14.9v5.7
					l-0.3-1.3c-0.1-0.7-0.7-1.2-1.3-1.3c-1-0.2-2-0.4-2.9-0.8c-0.2-0.1-0.4-0.1-0.6-0.1c-0.5,0-0.9,0.2-1.2,0.6l-1.6,1.7
					c-0.9-0.4-1.7-0.9-2.5-1.5l0.7-2.2c0.2-0.6,0-1.4-0.5-1.8c-0.8-0.7-1.5-1.4-2.1-2.1c-0.4-0.5-1.1-0.7-1.8-0.5L32,52
					c-0.5-0.8-1-1.6-1.5-2.5l1.7-1.6c0.5-0.5,0.7-1.2,0.5-1.8c-0.3-0.9-0.6-1.9-0.8-2.9c-0.1-0.7-0.6-1.2-1.3-1.3l-2.3-0.5v-2.9
					l2.3-0.5c0.7-0.1,1.2-0.7,1.3-1.3c0.2-1,0.4-2,0.8-2.9c0.2-0.6,0-1.4-0.5-1.8l-1.7-1.6c0.4-0.9,0.9-1.7,1.5-2.5l2.2,0.7
					c0.6,0.2,1.4,0,1.8-0.5c0.7-0.8,1.4-1.5,2.1-2.1c0.5-0.4,0.7-1.1,0.5-1.8L37.9,22c0.8-0.5,1.6-1,2.5-1.5l1.6,1.7
					c0.5,0.5,1.2,0.7,1.8,0.5c0.9-0.3,1.9-0.6,2.9-0.8c0.7-0.1,1.2-0.6,1.3-1.3l0.3-1.3V25C40.7,25.9,35,32.3,35,39.9z M48.3,28.4
					v23.1c-6.4-0.9-10.8-6.8-9.9-13.2C39.2,33.2,43.2,29.1,48.3,28.4z M65.8,95c0,0.9-0.7,1.7-1.7,1.7H35.8c-0.9,0-1.7-0.8-1.7-1.7
					c0,0,0,0,0-0.1c0-0.9,0.7-1.7,1.7-1.7h28.3C65.1,93.2,65.9,94,65.8,95C65.8,95,65.8,95,65.8,95z M63.7,86.7
					c0.8-0.1,1.6,0.5,1.7,1.4c0,0.1,0,0.1,0,0.2c0,0.9-0.7,1.7-1.7,1.7H36.3c-0.9,0-1.7-0.8-1.7-1.7c0,0,0,0,0-0.1
					c0-0.8,0.7-1.5,1.6-1.4c0,0,0.1,0,0.1,0L63.7,86.7L63.7,86.7z M63.3,63.3c0.9,0,1.7,0.7,1.7,1.7s-0.7,1.7-1.7,1.7
					c-0.9,0-1.7-0.7-1.7-1.7C61.7,64,62.4,63.3,63.3,63.3z M60,13.3c0.9,0,1.7,0.7,1.7,1.7c0,0.9-0.7,1.7-1.7,1.7
					c-0.9,0-1.7-0.7-1.7-1.7C58.3,14,59.1,13.3,60,13.3z M63.3,48.3H51.7V31.6h11.7V48.3z M81.7,46.6c-0.9,0-1.7-0.7-1.7-1.7
					s0.7-1.7,1.7-1.7s1.7,0.7,1.7,1.7C83.3,45.9,82.6,46.6,81.7,46.6z"/>
			</g>
		</g>
		<g>
			<g>
				<path class="st0" d="M66.1,76.2c-0.6,1.1-1.1,2.1-1.6,3.3l3.1,1.2c0.4-1,0.9-1.9,1.4-2.9L66.1,76.2z"/>
			</g>
		</g>
		<g>
			<g>
				<path class="st0" d="M69.8,70.3c-0.7,0.9-1.3,1.9-1.9,2.9l2.8,1.8c0.6-0.9,1.2-1.9,1.9-2.8L69.8,70.3z"/>
			</g>
		</g>
		<g>
			<g>
				<path class="st0" d="M73.6,64.8c-0.6,0.9-1.2,1.8-1.8,2.8l2.7,1.9c0.7-1,1.3-2,1.9-2.9L73.6,64.8z"/>
			</g>
		</g>
		<g>
			<g>
				<path class="st0" d="M76.7,59c-0.5,1-1,2-1.5,3l2.9,1.6c0.5-1,1.1-2.1,1.6-3.1L76.7,59z"/>
			</g>
		</g>
		<g>
			<g>
				<path class="st0" d="M79.3,52.8c-0.4,1-0.8,2.1-1.2,3.1l3.1,1.3c0.5-1.1,0.9-2.1,1.3-3.2L79.3,52.8z"/>
			</g>
		</g>
		<g>
			<g>
				<path class="st0" d="M86.7,33.6l-3.3,0l0,0.3c0,0.9,0,1.9-0.1,2.9l3.3,0.3c0.1-1.1,0.1-2.2,0.1-3.2L86.7,33.6z"/>
			</g>
		</g>
		<g>
			<g>
				<path class="st0" d="M85.8,26.5l-3.2,0.8c0.2,1,0.4,2.1,0.6,3.2l3.3-0.4C86.3,28.8,86.1,27.6,85.8,26.5z"/>
			</g>
		</g>
		<g>
			<g>
				<path class="st0" d="M83.4,19.7l-3,1.5c0.5,1,0.9,2,1.2,3l3.1-1.1C84.4,21.9,83.9,20.8,83.4,19.7z"/>
			</g>
		</g>
		<g>
			<g>
				<path class="st0" d="M79.6,13.7L77,15.8c0.7,0.8,1.3,1.7,1.9,2.6l2.8-1.8C81,15.6,80.3,14.6,79.6,13.7z"/>
			</g>
		</g>
		<g>
			<g>
				<path class="st0" d="M74.6,8.6l-2.1,2.6c0.8,0.7,1.6,1.4,2.4,2.2l2.4-2.3C76.4,10.2,75.5,9.4,74.6,8.6z"/>
			</g>
		</g>
		<g>
			<g>
				<path class="st0" d="M68.7,4.6l-1.6,2.9c1,0.5,1.9,1.1,2.8,1.7l1.9-2.8C70.8,5.8,69.8,5.2,68.7,4.6z"/>
			</g>
		</g>
		<g>
			<g>
				<path class="st0" d="M62.2,1.9l-1,3.2c1,0.3,2.1,0.7,3,1.1l1.3-3.1C64.4,2.6,63.3,2.2,62.2,1.9z"/>
			</g>
		</g>
		<g>
			<g>
				<path class="st0" d="M55.3,0.3l-0.4,3.3C55.9,3.8,57,4,58,4.2l0.7-3.3C57.6,0.7,56.4,0.5,55.3,0.3z"/>
			</g>
		</g>
	</g>
</g>
</svg>
