<?xml version="1.0" encoding="utf-8"?>
<!-- Generator: Adobe Illustrator 23.0.2, SVG Export Plug-In . SVG Version: 6.00 Build 0)  -->
<svg version="1.1" id="Layer_1" xmlns="http://www.w3.org/2000/svg" xmlns:xlink="http://www.w3.org/1999/xlink" x="0px" y="0px"
	 viewBox="0 0 100 100" style="enable-background:new 0 0 100 100;" xml:space="preserve">
<style type="text/css">
	.st0{fill:#900304;}
	.st1{fill:#ECEBF0;}
</style>
<path class="st0" d="M84.8,9.7H63.8C61.7,4.1,56.4,0,50,0c-6.4,0-11.7,4.1-13.8,9.7H15.2c-5.6,0-10.1,4.5-10.1,10.1v70.1
	c0,5.6,4.5,10.1,10.1,10.1h69.7c5.6,0,10.1-4.5,10.1-10.1V19.8C94.9,14.2,90.4,9.7,84.8,9.7z M50,20.8c-3.4,0-6.1-2.7-6.1-6.1
	s2.7-6.1,6.1-6.1c3.4,0,6.1,2.7,6.1,6.1S53.4,20.8,50,20.8z"/>
<polygon class="st1" points="69.7,44.3 62.8,37.4 50,50.2 37.2,37.4 30.3,44.3 43.1,57.1 30.3,69.9 37.2,76.8 50,64 62.8,76.8 
	69.7,69.9 56.9,57.1 "/>
</svg>
